%TF.GenerationSoftware,KiCad,Pcbnew,10.0.1*%
%TF.CreationDate,2026-05-09T19:58:26+05:30*%
%TF.ProjectId,ValkDeck,56616c6b-4465-4636-9b2e-6b696361645f,rev?*%
%TF.SameCoordinates,Original*%
%TF.FileFunction,Copper,L2,Bot*%
%TF.FilePolarity,Positive*%
%FSLAX46Y46*%
G04 Gerber Fmt 4.6, Leading zero omitted, Abs format (unit mm)*
G04 Created by KiCad (PCBNEW 10.0.1) date 2026-05-09 19:58:26*
%MOMM*%
%LPD*%
G01*
G04 APERTURE LIST*
G04 Aperture macros list*
%AMRoundRect*
0 Rectangle with rounded corners*
0 $1 Rounding radius*
0 $2 $3 $4 $5 $6 $7 $8 $9 X,Y pos of 4 corners*
0 Add a 4 corners polygon primitive as box body*
4,1,4,$2,$3,$4,$5,$6,$7,$8,$9,$2,$3,0*
0 Add four circle primitives for the rounded corners*
1,1,$1+$1,$2,$3*
1,1,$1+$1,$4,$5*
1,1,$1+$1,$6,$7*
1,1,$1+$1,$8,$9*
0 Add four rect primitives between the rounded corners*
20,1,$1+$1,$2,$3,$4,$5,0*
20,1,$1+$1,$4,$5,$6,$7,0*
20,1,$1+$1,$6,$7,$8,$9,0*
20,1,$1+$1,$8,$9,$2,$3,0*%
%AMFreePoly0*
4,1,37,0.603843,0.796157,0.639018,0.796157,0.711114,0.766294,0.766294,0.711114,0.796157,0.639018,0.796157,0.603843,0.800000,0.600000,0.800000,-0.600000,0.796157,-0.603843,0.796157,-0.639018,0.766294,-0.711114,0.711114,-0.766294,0.639018,-0.796157,0.603843,-0.796157,0.600000,-0.800000,0.000000,-0.800000,0.000000,-0.796148,-0.078414,-0.796148,-0.232228,-0.765552,-0.377117,-0.705537,
-0.507515,-0.618408,-0.618408,-0.507515,-0.705537,-0.377117,-0.765552,-0.232228,-0.796148,-0.078414,-0.796148,0.078414,-0.765552,0.232228,-0.705537,0.377117,-0.618408,0.507515,-0.507515,0.618408,-0.377117,0.705537,-0.232228,0.765552,-0.078414,0.796148,0.000000,0.796148,0.000000,0.800000,0.600000,0.800000,0.603843,0.796157,0.603843,0.796157,$1*%
%AMFreePoly1*
4,1,37,0.000000,0.796148,0.078414,0.796148,0.232228,0.765552,0.377117,0.705537,0.507515,0.618408,0.618408,0.507515,0.705537,0.377117,0.765552,0.232228,0.796148,0.078414,0.796148,-0.078414,0.765552,-0.232228,0.705537,-0.377117,0.618408,-0.507515,0.507515,-0.618408,0.377117,-0.705537,0.232228,-0.765552,0.078414,-0.796148,0.000000,-0.796148,0.000000,-0.800000,-0.600000,-0.800000,
-0.603843,-0.796157,-0.639018,-0.796157,-0.711114,-0.766294,-0.766294,-0.711114,-0.796157,-0.639018,-0.796157,-0.603843,-0.800000,-0.600000,-0.800000,0.600000,-0.796157,0.603843,-0.796157,0.639018,-0.766294,0.711114,-0.711114,0.766294,-0.639018,0.796157,-0.603843,0.796157,-0.600000,0.800000,0.000000,0.800000,0.000000,0.796148,0.000000,0.796148,$1*%
G04 Aperture macros list end*
%TA.AperFunction,ComponentPad*%
%ADD10R,1.700000X1.700000*%
%TD*%
%TA.AperFunction,ComponentPad*%
%ADD11C,1.700000*%
%TD*%
%TA.AperFunction,ComponentPad*%
%ADD12RoundRect,0.170000X-0.680000X0.680000X-0.680000X-0.680000X0.680000X-0.680000X0.680000X0.680000X0*%
%TD*%
%TA.AperFunction,ComponentPad*%
%ADD13RoundRect,0.200000X-0.600000X-0.600000X0.600000X-0.600000X0.600000X0.600000X-0.600000X0.600000X0*%
%TD*%
%TA.AperFunction,ComponentPad*%
%ADD14C,1.600000*%
%TD*%
%TA.AperFunction,ComponentPad*%
%ADD15FreePoly0,0.000000*%
%TD*%
%TA.AperFunction,ComponentPad*%
%ADD16FreePoly1,0.000000*%
%TD*%
%TA.AperFunction,ComponentPad*%
%ADD17R,2.000000X2.000000*%
%TD*%
%TA.AperFunction,ComponentPad*%
%ADD18C,2.000000*%
%TD*%
%TA.AperFunction,ComponentPad*%
%ADD19R,3.200000X2.000000*%
%TD*%
%TA.AperFunction,ComponentPad*%
%ADD20RoundRect,0.250000X-0.550000X0.550000X-0.550000X-0.550000X0.550000X-0.550000X0.550000X0.550000X0*%
%TD*%
%TA.AperFunction,ComponentPad*%
%ADD21C,3.300000*%
%TD*%
%TA.AperFunction,SMDPad,CuDef*%
%ADD22R,1.650000X2.500000*%
%TD*%
%TA.AperFunction,SMDPad,CuDef*%
%ADD23RoundRect,0.250000X1.025000X1.000000X-1.025000X1.000000X-1.025000X-1.000000X1.025000X-1.000000X0*%
%TD*%
%TA.AperFunction,ComponentPad*%
%ADD24RoundRect,0.250000X0.550000X-0.550000X0.550000X0.550000X-0.550000X0.550000X-0.550000X-0.550000X0*%
%TD*%
%TA.AperFunction,ViaPad*%
%ADD25C,0.600000*%
%TD*%
%TA.AperFunction,Conductor*%
%ADD26C,0.200000*%
%TD*%
G04 APERTURE END LIST*
D10*
%TO.P,J1,1,Pin_1_1*%
%TO.N,Net-(A1-GPIO18)*%
X169000000Y-58225000D03*
D11*
%TO.P,J1,2,Pin_2_2*%
%TO.N,GND*%
X169000000Y-60765000D03*
%TD*%
D12*
%TO.P,U1,1,GND_1*%
%TO.N,GND*%
X143225000Y-54965000D03*
D11*
%TO.P,U1,2,VCC_2*%
%TO.N,+3.3V*%
X143225000Y-57505000D03*
%TO.P,U1,3,SCL_3*%
%TO.N,/OLED_SCL*%
X143225000Y-60045000D03*
%TO.P,U1,4,SDA_4*%
%TO.N,/OLED_SDA*%
X143225000Y-62585000D03*
%TD*%
D13*
%TO.P,A1,1,GPIO0_1*%
%TO.N,Net-(A1-GPIO0)*%
X171000000Y-71980000D03*
D14*
%TO.P,A1,2,GPIO1_2*%
%TO.N,Net-(A1-GPIO1)*%
X171000000Y-74520000D03*
D15*
%TO.P,A1,3,GND_3*%
%TO.N,GND*%
X171000000Y-77060000D03*
D14*
%TO.P,A1,4,GPIO2_4*%
%TO.N,Net-(A1-GPIO2)*%
X171000000Y-79600000D03*
%TO.P,A1,5,GPIO3_5*%
%TO.N,Net-(A1-GPIO3)*%
X171000000Y-82140000D03*
%TO.P,A1,6,GPIO4_6*%
%TO.N,Net-(A1-GPIO4)*%
X171000000Y-84680000D03*
%TO.P,A1,7,GPIO5_7*%
%TO.N,Net-(A1-GPIO5)*%
X171000000Y-87220000D03*
D15*
%TO.P,A1,8,GND_8*%
%TO.N,GND*%
X171000000Y-89760000D03*
D14*
%TO.P,A1,9,GPIO6_9*%
%TO.N,unconnected-(A1-GPIO6-Pad9)*%
X171000000Y-92300000D03*
%TO.P,A1,10,GPIO7_10*%
%TO.N,unconnected-(A1-GPIO7-Pad10)_1*%
X171000000Y-94840000D03*
%TO.P,A1,11,GPIO8_11*%
%TO.N,unconnected-(A1-GPIO8-Pad11)_1*%
X171000000Y-97380000D03*
%TO.P,A1,12,GPIO9_12*%
%TO.N,Net-(A1-GPIO9)*%
X171000000Y-99920000D03*
D15*
%TO.P,A1,13,GND_13*%
%TO.N,GND*%
X171000000Y-102460000D03*
D14*
%TO.P,A1,14,GPIO10_14*%
%TO.N,Net-(A1-GPIO10)*%
X171000000Y-105000000D03*
%TO.P,A1,15,GPIO11_15*%
%TO.N,Net-(A1-GPIO11)*%
X171000000Y-107540000D03*
%TO.P,A1,16,GPIO12_16*%
%TO.N,unconnected-(A1-GPIO12-Pad16)*%
X171000000Y-110080000D03*
%TO.P,A1,17,GPIO13_17*%
%TO.N,unconnected-(A1-GPIO13-Pad17)_1*%
X171000000Y-112620000D03*
D15*
%TO.P,A1,18,GND_18*%
%TO.N,GND*%
X171000000Y-115160000D03*
D14*
%TO.P,A1,19,GPIO14_19*%
%TO.N,unconnected-(A1-GPIO14-Pad19)_1*%
X171000000Y-117700000D03*
%TO.P,A1,20,GPIO15_20*%
%TO.N,Net-(A1-GPIO15)*%
X171000000Y-120240000D03*
%TO.P,A1,21,GPIO16_21*%
%TO.N,/OLED_SCL*%
X188780000Y-120240000D03*
%TO.P,A1,22,GPIO17_22*%
%TO.N,/OLED_SDA*%
X188780000Y-117700000D03*
D16*
%TO.P,A1,23,GND_23*%
%TO.N,GND*%
X188780000Y-115160000D03*
D14*
%TO.P,A1,24,GPIO18_24*%
%TO.N,Net-(A1-GPIO18)*%
X188780000Y-112620000D03*
%TO.P,A1,25,GPIO19_25*%
%TO.N,Net-(A1-GPIO19)*%
X188780000Y-110080000D03*
%TO.P,A1,26,GPIO20_26*%
%TO.N,unconnected-(A1-GPIO20-Pad26)_1*%
X188780000Y-107540000D03*
%TO.P,A1,27,GPIO21_27*%
%TO.N,unconnected-(A1-GPIO21-Pad27)*%
X188780000Y-105000000D03*
D16*
%TO.P,A1,28,GND_28*%
%TO.N,GND*%
X188780000Y-102460000D03*
D14*
%TO.P,A1,29,GPIO22_29*%
%TO.N,unconnected-(A1-GPIO22-Pad29)_1*%
X188780000Y-99920000D03*
%TO.P,A1,30,RUN_30*%
%TO.N,unconnected-(A1-RUN-Pad30)_1*%
X188780000Y-97380000D03*
%TO.P,A1,31,GPIO26_ADC0_31*%
%TO.N,unconnected-(A1-GPIO26_ADC0-Pad31)*%
X188780000Y-94840000D03*
%TO.P,A1,32,GPIO27_ADC1_32*%
%TO.N,unconnected-(A1-GPIO27_ADC1-Pad32)_1*%
X188780000Y-92300000D03*
D16*
%TO.P,A1,33,AGND_33*%
%TO.N,unconnected-(A1-AGND-Pad33)*%
X188780000Y-89760000D03*
D14*
%TO.P,A1,34,GPIO28_ADC2_34*%
%TO.N,unconnected-(A1-GPIO28_ADC2-Pad34)_1*%
X188780000Y-87220000D03*
%TO.P,A1,35,ADC_VREF_35*%
%TO.N,unconnected-(A1-ADC_VREF-Pad35)*%
X188780000Y-84680000D03*
%TO.P,A1,36,3V3_36*%
%TO.N,+3.3V*%
X188780000Y-82140000D03*
%TO.P,A1,37,3V3_EN_37*%
%TO.N,unconnected-(A1-3V3_EN-Pad37)*%
X188780000Y-79600000D03*
D16*
%TO.P,A1,38,GND_38*%
%TO.N,GND*%
X188780000Y-77060000D03*
D14*
%TO.P,A1,39,VSYS_39*%
%TO.N,unconnected-(A1-VSYS-Pad39)_1*%
X188780000Y-74520000D03*
%TO.P,A1,40,VBUS_40*%
%TO.N,+5V*%
X188780000Y-71980000D03*
%TD*%
D17*
%TO.P,SW1,A,A_A*%
%TO.N,Net-(A1-GPIO4)*%
X148500000Y-56500000D03*
D18*
%TO.P,SW1,B,B_B*%
%TO.N,Net-(A1-GPIO3)*%
X148500000Y-61500000D03*
%TO.P,SW1,C,C_C*%
%TO.N,GND*%
X148500000Y-59000000D03*
D19*
%TO.P,SW1,MP*%
%TO.N,N/C*%
X156000000Y-53400000D03*
X156000000Y-64600000D03*
D18*
%TO.P,SW1,S1,S1_S1*%
%TO.N,Net-(A1-GPIO5)*%
X163000000Y-61500000D03*
%TO.P,SW1,S2,S2_S2*%
%TO.N,GND*%
X163000000Y-56500000D03*
%TD*%
D20*
%TO.P,D6,1,K_1*%
%TO.N,Net-(A1-GPIO10)*%
X162000000Y-98500000D03*
D14*
%TO.P,D6,2,A_2*%
%TO.N,Net-(D6-A)*%
X162000000Y-106120000D03*
%TD*%
%TO.P,C10,1*%
%TO.N,+5V*%
X146500000Y-81000000D03*
%TO.P,C10,2*%
%TO.N,Net-(D18-VDD)*%
X146500000Y-86000000D03*
%TD*%
%TO.P,C5,1*%
%TO.N,+5V*%
X126500000Y-121000000D03*
%TO.P,C5,2*%
%TO.N,Net-(D13-VDD)*%
X126500000Y-126000000D03*
%TD*%
D21*
%TO.P,a8,1,1_1*%
%TO.N,Net-(A1-GPIO0)*%
X110330000Y-78500000D03*
D22*
X108505000Y-78500000D03*
D23*
X106780000Y-78500000D03*
%TO.P,a8,2,2_2*%
%TO.N,Net-(D1-A)*%
X120230000Y-75960000D03*
D22*
X118480000Y-75960000D03*
D21*
X116680000Y-75960000D03*
%TD*%
%TO.P,a7,1,1_1*%
%TO.N,Net-(A1-GPIO0)*%
X110330000Y-118500000D03*
D22*
X108505000Y-118500000D03*
D23*
X106780000Y-118500000D03*
%TO.P,a7,2,2_2*%
%TO.N,Net-(D7-A)*%
X120230000Y-115960000D03*
D22*
X118480000Y-115960000D03*
D21*
X116680000Y-115960000D03*
%TD*%
D14*
%TO.P,C4,1*%
%TO.N,+5V*%
X106500000Y-81000000D03*
%TO.P,C4,2*%
%TO.N,Net-(D12-VDD)*%
X106500000Y-86000000D03*
%TD*%
%TO.P,C7,1*%
%TO.N,+5V*%
X126500000Y-81000000D03*
%TO.P,C7,2*%
%TO.N,Net-(D15-VDD)*%
X126500000Y-86000000D03*
%TD*%
D21*
%TO.P,a6,1,1_1*%
%TO.N,Net-(A1-GPIO0)*%
X110330000Y-98500000D03*
D22*
X108505000Y-98500000D03*
D23*
X106780000Y-98500000D03*
%TO.P,a6,2,2_2*%
%TO.N,Net-(D4-A)*%
X120230000Y-95960000D03*
D22*
X118480000Y-95960000D03*
D21*
X116680000Y-95960000D03*
%TD*%
D20*
%TO.P,D2,1,K_1*%
%TO.N,Net-(A1-GPIO9)*%
X142000000Y-78690000D03*
D14*
%TO.P,D2,2,A_2*%
%TO.N,Net-(D2-A)*%
X142000000Y-86310000D03*
%TD*%
%TO.P,C3,1*%
%TO.N,+5V*%
X106500000Y-101000000D03*
%TO.P,C3,2*%
%TO.N,Net-(D11-VDD)*%
X106500000Y-106000000D03*
%TD*%
D20*
%TO.P,D9,1,K_1*%
%TO.N,Net-(A1-GPIO11)*%
X162000000Y-118500000D03*
D14*
%TO.P,D9,2,A_2*%
%TO.N,Net-(D9-A)*%
X162000000Y-126120000D03*
%TD*%
D20*
%TO.P,D3,1,K_1*%
%TO.N,Net-(A1-GPIO9)*%
X162000000Y-78500000D03*
D14*
%TO.P,D3,2,A_2*%
%TO.N,Net-(D3-A)*%
X162000000Y-86120000D03*
%TD*%
D17*
%TO.P,BZ1,1,+_1*%
%TO.N,Net-(A1-GPIO19)*%
X177800000Y-126500000D03*
D18*
%TO.P,BZ1,2,-_2*%
%TO.N,GND*%
X170200000Y-126500000D03*
%TD*%
D14*
%TO.P,C2,1*%
%TO.N,+5V*%
X106500000Y-121000000D03*
%TO.P,C2,2*%
%TO.N,Net-(D10-VDD)*%
X106500000Y-126000000D03*
%TD*%
%TO.P,C6,1*%
%TO.N,+5V*%
X126500000Y-101000000D03*
%TO.P,C6,2*%
%TO.N,Net-(D14-VDD)*%
X126500000Y-106000000D03*
%TD*%
D21*
%TO.P,a2,1,1_1*%
%TO.N,Net-(A1-GPIO1)*%
X130330000Y-118500000D03*
D22*
X128505000Y-118500000D03*
D23*
X126780000Y-118500000D03*
%TO.P,a2,2,2_2*%
%TO.N,Net-(D5-A)*%
X140230000Y-115960000D03*
D22*
X138480000Y-115960000D03*
D21*
X136680000Y-115960000D03*
%TD*%
D20*
%TO.P,D8,1,K_1*%
%TO.N,Net-(A1-GPIO11)*%
X142000000Y-118690000D03*
D14*
%TO.P,D8,2,A_2*%
%TO.N,Net-(D8-A)*%
X142000000Y-126310000D03*
%TD*%
D21*
%TO.P,a4,1,1_1*%
%TO.N,Net-(A1-GPIO2)*%
X150330000Y-98500000D03*
D22*
X148505000Y-98500000D03*
D23*
X146780000Y-98500000D03*
%TO.P,a4,2,2_2*%
%TO.N,Net-(D6-A)*%
X160230000Y-95960000D03*
D22*
X158480000Y-95960000D03*
D21*
X156680000Y-95960000D03*
%TD*%
%TO.P,a3,1,1_1*%
%TO.N,Net-(A1-GPIO1)*%
X130330000Y-98500000D03*
D22*
X128505000Y-98500000D03*
D23*
X126780000Y-98500000D03*
%TO.P,a3,2,2_2*%
%TO.N,Net-(D8-A)*%
X140230000Y-95960000D03*
D22*
X138480000Y-95960000D03*
D21*
X136680000Y-95960000D03*
%TD*%
D20*
%TO.P,D4,1,K_1*%
%TO.N,Net-(A1-GPIO10)*%
X122000000Y-98380000D03*
D14*
%TO.P,D4,2,A_2*%
%TO.N,Net-(D4-A)*%
X122000000Y-106000000D03*
%TD*%
D21*
%TO.P,a10,1,1_1*%
%TO.N,Net-(A1-GPIO2)*%
X150330000Y-78500000D03*
D22*
X148505000Y-78500000D03*
D23*
X146780000Y-78500000D03*
%TO.P,a10,2,2_2*%
%TO.N,Net-(D3-A)*%
X160230000Y-75960000D03*
D22*
X158480000Y-75960000D03*
D21*
X156680000Y-75960000D03*
%TD*%
D20*
%TO.P,D7,1,K_1*%
%TO.N,Net-(A1-GPIO11)*%
X122000000Y-118380000D03*
D14*
%TO.P,D7,2,A_2*%
%TO.N,Net-(D7-A)*%
X122000000Y-126000000D03*
%TD*%
D24*
%TO.P,D1,1,K_1*%
%TO.N,Net-(A1-GPIO9)*%
X122000000Y-86000000D03*
D14*
%TO.P,D1,2,A_2*%
%TO.N,Net-(D1-A)*%
X122000000Y-78380000D03*
%TD*%
%TO.P,C9,1*%
%TO.N,+5V*%
X146500000Y-126000000D03*
%TO.P,C9,2*%
%TO.N,Net-(D17-VDD)*%
X146500000Y-121000000D03*
%TD*%
%TO.P,C8,1*%
%TO.N,+5V*%
X146000000Y-101000000D03*
%TO.P,C8,2*%
%TO.N,Net-(D16-VDD)*%
X146000000Y-106000000D03*
%TD*%
D20*
%TO.P,D5,1,K_1*%
%TO.N,Net-(A1-GPIO10)*%
X142000000Y-98690000D03*
D14*
%TO.P,D5,2,A_2*%
%TO.N,Net-(D5-A)*%
X142000000Y-106310000D03*
%TD*%
D21*
%TO.P,a5,1,1_1*%
%TO.N,Net-(A1-GPIO2)*%
X150330000Y-118500000D03*
D22*
X148505000Y-118500000D03*
D23*
X146780000Y-118500000D03*
%TO.P,a5,2,2_2*%
%TO.N,Net-(D9-A)*%
X160230000Y-115960000D03*
D22*
X158480000Y-115960000D03*
D21*
X156680000Y-115960000D03*
%TD*%
%TO.P,a9,1,1_1*%
%TO.N,Net-(A1-GPIO1)*%
X130330000Y-78500000D03*
D22*
X128505000Y-78500000D03*
D23*
X126780000Y-78500000D03*
%TO.P,a9,2,2_2*%
%TO.N,Net-(D2-A)*%
X140230000Y-75960000D03*
D22*
X138480000Y-75960000D03*
D21*
X136680000Y-75960000D03*
%TD*%
D25*
%TO.N,Net-(D17-DOUT)*%
X154456000Y-86427800D03*
X155254500Y-104493100D03*
%TO.N,Net-(A1-GPIO0)*%
X140669000Y-71342400D03*
%TO.N,Net-(A1-GPIO15)*%
X123774100Y-117265900D03*
%TO.N,Net-(D12-DOUT)*%
X132957400Y-109740800D03*
X116037600Y-78833900D03*
%TD*%
%TO.N,Net-(D8-A)*%
D26*
X137455800Y-94408300D02*
X138480000Y-94408300D01*
X136680000Y-95184100D02*
X137455800Y-94408300D01*
X136680000Y-95960000D02*
X136680000Y-95184100D01*
X138480000Y-95960000D02*
X138480000Y-94408300D01*
X143138900Y-125171100D02*
X142000000Y-126310000D01*
X143138900Y-113828200D02*
X143138900Y-125171100D01*
X140647000Y-111336300D02*
X143138900Y-113828200D01*
X140647000Y-96377000D02*
X140647000Y-111336300D01*
X140230000Y-95960000D02*
X140647000Y-96377000D01*
X140230000Y-95184100D02*
X140230000Y-95960000D01*
X139454200Y-94408300D02*
X140230000Y-95184100D01*
X138480000Y-94408300D02*
X139454200Y-94408300D01*
%TO.N,Net-(D5-A)*%
X137455800Y-114408300D02*
X138480000Y-114408300D01*
X136680000Y-115184100D02*
X137455800Y-114408300D01*
X136680000Y-115960000D02*
X136680000Y-115184100D01*
X138480000Y-115960000D02*
X138480000Y-114408300D01*
X140230000Y-115184100D02*
X140230000Y-115960000D01*
X139454200Y-114408300D02*
X140230000Y-115184100D01*
X138480000Y-114408300D02*
X139454200Y-114408300D01*
%TO.N,Net-(D3-A)*%
X158480000Y-75960000D02*
X158480000Y-74408300D01*
X160230000Y-79324300D02*
X160230000Y-75960000D01*
X162000000Y-81094300D02*
X160230000Y-79324300D01*
X162000000Y-86120000D02*
X162000000Y-81094300D01*
X157455800Y-74408300D02*
X158480000Y-74408300D01*
X156680000Y-75184100D02*
X157455800Y-74408300D01*
X156680000Y-75960000D02*
X156680000Y-75184100D01*
X160230000Y-75186200D02*
X160230000Y-75960000D01*
X159452100Y-74408300D02*
X160230000Y-75186200D01*
X158480000Y-74408300D02*
X159452100Y-74408300D01*
%TO.N,Net-(D9-A)*%
X157455800Y-114408300D02*
X158480000Y-114408300D01*
X156680000Y-115184100D02*
X157455800Y-114408300D01*
X156680000Y-115960000D02*
X156680000Y-115184100D01*
X158480000Y-115960000D02*
X158480000Y-114408300D01*
X160230000Y-115184100D02*
X160230000Y-115960000D01*
X159454200Y-114408300D02*
X160230000Y-115184100D01*
X158480000Y-114408300D02*
X159454200Y-114408300D01*
%TO.N,Net-(D2-A)*%
X137455800Y-74408300D02*
X138480000Y-74408300D01*
X136680000Y-75184100D02*
X137455800Y-74408300D01*
X136680000Y-75960000D02*
X136680000Y-75184100D01*
X138480000Y-75960000D02*
X138480000Y-74408300D01*
X140230000Y-75184100D02*
X140230000Y-75960000D01*
X139454200Y-74408300D02*
X140230000Y-75184100D01*
X138480000Y-74408300D02*
X139454200Y-74408300D01*
%TO.N,Net-(D4-A)*%
X117455800Y-94408300D02*
X118480000Y-94408300D01*
X116680000Y-95184100D02*
X117455800Y-94408300D01*
X116680000Y-95960000D02*
X116680000Y-95184100D01*
X118480000Y-95960000D02*
X118480000Y-94408300D01*
X120230000Y-95184100D02*
X120230000Y-95960000D01*
X119454200Y-94408300D02*
X120230000Y-95184100D01*
X118480000Y-94408300D02*
X119454200Y-94408300D01*
X122000000Y-101280000D02*
X122000000Y-106000000D01*
X116680000Y-95960000D02*
X122000000Y-101280000D01*
%TO.N,Net-(D7-A)*%
X117455800Y-114408300D02*
X118480000Y-114408300D01*
X116680000Y-115184100D02*
X117455800Y-114408300D01*
X116680000Y-115960000D02*
X116680000Y-115184100D01*
X118480000Y-115960000D02*
X118480000Y-114408300D01*
X120230000Y-115184100D02*
X120230000Y-115960000D01*
X119454200Y-114408300D02*
X120230000Y-115184100D01*
X118480000Y-114408300D02*
X119454200Y-114408300D01*
X122000000Y-121280000D02*
X122000000Y-126000000D01*
X116680000Y-115960000D02*
X122000000Y-121280000D01*
%TO.N,Net-(D1-A)*%
X120230000Y-76610000D02*
X120230000Y-75960000D01*
X122000000Y-78380000D02*
X120230000Y-76610000D01*
X118480000Y-75960000D02*
X118480000Y-74408300D01*
X118480000Y-75960000D02*
X118480000Y-74408300D01*
X117455800Y-74408300D02*
X118480000Y-74408300D01*
X116680000Y-75184100D02*
X117455800Y-74408300D01*
X116680000Y-75960000D02*
X116680000Y-75184100D01*
X120230000Y-75184100D02*
X120230000Y-75960000D01*
X119454200Y-74408300D02*
X120230000Y-75184100D01*
X118480000Y-74408300D02*
X119454200Y-74408300D01*
%TO.N,Net-(D6-A)*%
X157455800Y-94408300D02*
X158480000Y-94408300D01*
X156680000Y-95184100D02*
X157455800Y-94408300D01*
X156680000Y-95960000D02*
X156680000Y-95184100D01*
X158480000Y-95960000D02*
X158480000Y-94408300D01*
X160230000Y-95184100D02*
X160230000Y-95960000D01*
X159454200Y-94408300D02*
X160230000Y-95184100D01*
X158480000Y-94408300D02*
X159454200Y-94408300D01*
X162000000Y-100955900D02*
X162000000Y-106120000D01*
X160230000Y-99185900D02*
X162000000Y-100955900D01*
X160230000Y-95960000D02*
X160230000Y-99185900D01*
%TO.N,Net-(D17-DOUT)*%
X154456100Y-86427800D02*
X154456000Y-86427800D01*
X154456100Y-96661500D02*
X154456100Y-86427800D01*
X156771200Y-98976600D02*
X154456100Y-96661500D01*
X156771200Y-102976400D02*
X156771200Y-98976600D01*
X155254500Y-104493100D02*
X156771200Y-102976400D01*
%TO.N,+5V*%
X105163400Y-102266100D02*
X106429500Y-101000000D01*
X105163400Y-119733900D02*
X105163400Y-102266100D01*
X106429500Y-121000000D02*
X105163400Y-119733900D01*
X106500000Y-121000000D02*
X106429500Y-121000000D01*
X106500000Y-101000000D02*
X106429500Y-101000000D01*
X105174500Y-82325500D02*
X106500000Y-81000000D01*
X105174500Y-99745000D02*
X105174500Y-82325500D01*
X106429500Y-101000000D02*
X105174500Y-99745000D01*
X144882600Y-102117400D02*
X146000000Y-101000000D01*
X144882600Y-124382600D02*
X144882600Y-102117400D01*
X146500000Y-126000000D02*
X144882600Y-124382600D01*
X145175800Y-100175800D02*
X145175800Y-90498500D01*
X146000000Y-101000000D02*
X145175800Y-100175800D01*
X124617000Y-90498500D02*
X145175800Y-90498500D01*
X120892200Y-86773700D02*
X124617000Y-90498500D01*
X120892200Y-85149700D02*
X120892200Y-86773700D01*
X125041900Y-81000000D02*
X120892200Y-85149700D01*
X126500000Y-81000000D02*
X125041900Y-81000000D01*
X146500000Y-84182500D02*
X146500000Y-81000000D01*
X147623800Y-85306300D02*
X146500000Y-84182500D01*
X147623800Y-88050500D02*
X147623800Y-85306300D01*
X145175800Y-90498500D02*
X147623800Y-88050500D01*
X132945700Y-127445700D02*
X126500000Y-121000000D01*
X145054300Y-127445700D02*
X132945700Y-127445700D01*
X146500000Y-126000000D02*
X145054300Y-127445700D01*
%TO.N,Net-(A1-GPIO11)*%
X122000000Y-118189200D02*
X122000000Y-118380000D01*
X123688700Y-116500500D02*
X122000000Y-118189200D01*
X133198400Y-116500500D02*
X123688700Y-116500500D01*
X134609600Y-117911700D02*
X133198400Y-116500500D01*
X141221700Y-117911700D02*
X134609600Y-117911700D01*
X142000000Y-118690000D02*
X141221700Y-117911700D01*
%TO.N,Net-(A1-GPIO10)*%
X127207500Y-103587500D02*
X122000000Y-98380000D01*
X135264900Y-103587500D02*
X127207500Y-103587500D01*
X136698900Y-102153500D02*
X135264900Y-103587500D01*
X136698900Y-98904300D02*
X136698900Y-102153500D01*
X134720100Y-96925500D02*
X136698900Y-98904300D01*
X134720100Y-95104600D02*
X134720100Y-96925500D01*
X135864900Y-93959800D02*
X134720100Y-95104600D01*
X141046400Y-93959800D02*
X135864900Y-93959800D01*
X142000000Y-94913400D02*
X141046400Y-93959800D01*
X142000000Y-98690000D02*
X142000000Y-94913400D01*
%TO.N,Net-(A1-GPIO9)*%
X139482400Y-78690000D02*
X142000000Y-78690000D01*
X137713900Y-80458500D02*
X139482400Y-78690000D01*
X137713900Y-81114700D02*
X137713900Y-80458500D01*
X134932000Y-83896600D02*
X137713900Y-81114700D01*
X124103400Y-83896600D02*
X134932000Y-83896600D01*
X122000000Y-86000000D02*
X124103400Y-83896600D01*
X166105900Y-95025900D02*
X171000000Y-99920000D01*
X166105900Y-82605900D02*
X166105900Y-95025900D01*
X162000000Y-78500000D02*
X166105900Y-82605900D01*
X162189200Y-78310800D02*
X162000000Y-78500000D01*
X162189200Y-75072500D02*
X162189200Y-78310800D01*
X161125700Y-74009000D02*
X162189200Y-75072500D01*
X161043100Y-74009000D02*
X161125700Y-74009000D01*
X160921700Y-74130400D02*
X161043100Y-74009000D01*
X159742200Y-74130400D02*
X160921700Y-74130400D01*
X159550300Y-73938500D02*
X159742200Y-74130400D01*
X146751500Y-73938500D02*
X159550300Y-73938500D01*
X142000000Y-78690000D02*
X146751500Y-73938500D01*
%TO.N,Net-(A1-GPIO5)*%
X168664200Y-84884200D02*
X171000000Y-87220000D01*
X168664200Y-67732200D02*
X168664200Y-84884200D01*
X163000000Y-62068000D02*
X168664200Y-67732200D01*
X163000000Y-61500000D02*
X163000000Y-62068000D01*
%TO.N,Net-(A1-GPIO4)*%
X147160000Y-57840000D02*
X148500000Y-56500000D01*
X147160000Y-62036400D02*
X147160000Y-57840000D01*
X156963400Y-71839800D02*
X147160000Y-62036400D01*
X160092500Y-71839800D02*
X156963400Y-71839800D01*
X167349300Y-79096600D02*
X160092500Y-71839800D01*
X167349300Y-85137200D02*
X167349300Y-79096600D01*
X170582600Y-88370500D02*
X167349300Y-85137200D01*
X171415200Y-88370500D02*
X170582600Y-88370500D01*
X172119600Y-87666100D02*
X171415200Y-88370500D01*
X172119600Y-85799600D02*
X172119600Y-87666100D01*
X171000000Y-84680000D02*
X172119600Y-85799600D01*
%TO.N,Net-(A1-GPIO3)*%
X169080100Y-80220100D02*
X171000000Y-82140000D01*
X169080100Y-67438700D02*
X169080100Y-80220100D01*
X165208900Y-63567500D02*
X169080100Y-67438700D01*
X165208900Y-61850900D02*
X165208900Y-63567500D01*
X163064700Y-59706700D02*
X165208900Y-61850900D01*
X150293300Y-59706700D02*
X163064700Y-59706700D01*
X148500000Y-61500000D02*
X150293300Y-59706700D01*
%TO.N,Net-(A1-GPIO2)*%
X148505000Y-118500000D02*
X150330000Y-118500000D01*
X146780000Y-118500000D02*
X147147200Y-118500000D01*
X147147200Y-118500000D02*
X148505000Y-118500000D01*
X148505000Y-78500000D02*
X150330000Y-78500000D01*
X146780000Y-78500000D02*
X147617500Y-78500000D01*
X147617500Y-78500000D02*
X148505000Y-78500000D01*
X148505000Y-83370000D02*
X148505000Y-98500000D01*
X147617500Y-82482500D02*
X148505000Y-83370000D01*
X147617500Y-78500000D02*
X147617500Y-82482500D01*
X148137800Y-98867200D02*
X148505000Y-98500000D01*
X147147200Y-98867200D02*
X148137800Y-98867200D01*
X147147200Y-118500000D02*
X147147200Y-98867200D01*
X147147200Y-98867200D02*
X146780000Y-98500000D01*
X148505000Y-98500000D02*
X150330000Y-98500000D01*
%TO.N,Net-(A1-GPIO1)*%
X126780000Y-78500000D02*
X128505000Y-78500000D01*
X128505000Y-78500000D02*
X130330000Y-78500000D01*
X126780000Y-98500000D02*
X128505000Y-98500000D01*
X128505000Y-98500000D02*
X130330000Y-98500000D01*
X126780000Y-118500000D02*
X128505000Y-118500000D01*
X128505000Y-118500000D02*
X130330000Y-118500000D01*
X120490500Y-92210500D02*
X126780000Y-98500000D01*
X120490500Y-84789500D02*
X120490500Y-92210500D01*
X126780000Y-78500000D02*
X120490500Y-84789500D01*
%TO.N,Net-(A1-GPIO0)*%
X108505000Y-98500000D02*
X110330000Y-98500000D01*
X106780000Y-118500000D02*
X108505000Y-118500000D01*
X108505000Y-118500000D02*
X110330000Y-118500000D01*
X107617500Y-98500000D02*
X108505000Y-98500000D01*
X107642500Y-79362500D02*
X106780000Y-78500000D01*
X108505000Y-78500000D02*
X107642500Y-79362500D01*
X107617500Y-79387500D02*
X107617500Y-98500000D01*
X107642500Y-79362500D02*
X107617500Y-79387500D01*
X110330000Y-78500000D02*
X108505000Y-78500000D01*
X106780000Y-98500000D02*
X107617500Y-98500000D01*
X108505000Y-108190700D02*
X108505000Y-118500000D01*
X107617500Y-107303200D02*
X108505000Y-108190700D01*
X107617500Y-98500000D02*
X107617500Y-107303200D01*
X117487600Y-71342400D02*
X140669000Y-71342400D01*
X110330000Y-78500000D02*
X117487600Y-71342400D01*
%TO.N,Net-(A1-GPIO15)*%
X123774100Y-119875300D02*
X123774100Y-117265900D01*
X131750400Y-127851600D02*
X123774100Y-119875300D01*
X163388400Y-127851600D02*
X131750400Y-127851600D01*
X171000000Y-120240000D02*
X163388400Y-127851600D01*
%TO.N,/OLED_SDA*%
X153417800Y-72777800D02*
X143225000Y-62585000D01*
X159894500Y-72777800D02*
X153417800Y-72777800D01*
X160682700Y-73566000D02*
X159894500Y-72777800D01*
X161250700Y-73566000D02*
X160682700Y-73566000D01*
X162590900Y-74906200D02*
X161250700Y-73566000D01*
X162590900Y-75472200D02*
X162590900Y-74906200D01*
X166586100Y-79467400D02*
X162590900Y-75472200D01*
X166586100Y-86945700D02*
X166586100Y-79467400D01*
X170738100Y-91097700D02*
X166586100Y-86945700D01*
X171406300Y-91097700D02*
X170738100Y-91097700D01*
X187343500Y-107034900D02*
X171406300Y-91097700D01*
X187343500Y-116263500D02*
X187343500Y-107034900D01*
X188780000Y-117700000D02*
X187343500Y-116263500D01*
%TO.N,+3.3V*%
X145570600Y-55159400D02*
X143225000Y-57505000D01*
X159085400Y-55159400D02*
X145570600Y-55159400D01*
X169495800Y-65569800D02*
X159085400Y-55159400D01*
X169495800Y-77117700D02*
X169495800Y-65569800D01*
X170574700Y-78196600D02*
X169495800Y-77117700D01*
X184836600Y-78196600D02*
X170574700Y-78196600D01*
X188780000Y-82140000D02*
X184836600Y-78196600D01*
%TO.N,Net-(A1-GPIO18)*%
X176590900Y-58225000D02*
X169000000Y-58225000D01*
X189927600Y-71561700D02*
X176590900Y-58225000D01*
X189927600Y-111472400D02*
X189927600Y-71561700D01*
X188780000Y-112620000D02*
X189927600Y-111472400D01*
%TO.N,GND*%
X188780000Y-77060000D02*
X171000000Y-77060000D01*
X169897500Y-61662500D02*
X169000000Y-60765000D01*
X169897500Y-75957500D02*
X169897500Y-61662500D01*
X171000000Y-77060000D02*
X169897500Y-75957500D01*
%TO.N,Net-(D12-DOUT)*%
X116741100Y-79537400D02*
X116037600Y-78833900D01*
X116741100Y-90318800D02*
X116741100Y-79537400D01*
X114698400Y-92361500D02*
X116741100Y-90318800D01*
X114698400Y-97943800D02*
X114698400Y-92361500D01*
X116685600Y-99931000D02*
X114698400Y-97943800D01*
X116685600Y-102273900D02*
X116685600Y-99931000D01*
X124152500Y-109740800D02*
X116685600Y-102273900D01*
X132957400Y-109740800D02*
X124152500Y-109740800D01*
%TD*%
M02*
