%TF.GenerationSoftware,KiCad,Pcbnew,10.0.1*%
%TF.CreationDate,2026-05-09T19:58:26+05:30*%
%TF.ProjectId,ValkDeck,56616c6b-4465-4636-9b2e-6b696361645f,rev?*%
%TF.SameCoordinates,Original*%
%TF.FileFunction,Legend,Bot*%
%TF.FilePolarity,Positive*%
%FSLAX46Y46*%
G04 Gerber Fmt 4.6, Leading zero omitted, Abs format (unit mm)*
G04 Created by KiCad (PCBNEW 10.0.1) date 2026-05-09 19:58:26*
%MOMM*%
%LPD*%
G01*
G04 APERTURE LIST*
%ADD10C,0.150000*%
%ADD11C,0.002500*%
%ADD12C,0.000250*%
%ADD13C,0.120000*%
%ADD14C,0.000000*%
G04 APERTURE END LIST*
D10*
G36*
X185859987Y-116668799D02*
G01*
X185812482Y-116687911D01*
X185762290Y-116708733D01*
X185708007Y-116725464D01*
X185647496Y-116732302D01*
X185609974Y-116730127D01*
X185571720Y-116723510D01*
X185534004Y-116712578D01*
X185496920Y-116697315D01*
X185461243Y-116678183D01*
X185426884Y-116655183D01*
X185394860Y-116628541D01*
X185365396Y-116597786D01*
X185314166Y-116534954D01*
X185281010Y-116484701D01*
X185262936Y-116446660D01*
X185257440Y-116419122D01*
X185260335Y-116403261D01*
X185269042Y-116389569D01*
X185282202Y-116378380D01*
X185300122Y-116368869D01*
X185344207Y-116356962D01*
X185395437Y-116353237D01*
X185432318Y-116353970D01*
X185475366Y-116355436D01*
X185517742Y-116356657D01*
X185553218Y-116357145D01*
X185600052Y-116352077D01*
X185647557Y-116335408D01*
X185669712Y-116321917D01*
X185690544Y-116304084D01*
X185708359Y-116282342D01*
X185723333Y-116255052D01*
X185730844Y-116232581D01*
X185734263Y-116204677D01*
X185731882Y-116173719D01*
X185726081Y-116145448D01*
X185713665Y-116111821D01*
X185694330Y-116076327D01*
X185670201Y-116042105D01*
X185641024Y-116007939D01*
X185573429Y-115943215D01*
X185498264Y-115884352D01*
X185422426Y-115834649D01*
X185353061Y-115796852D01*
X185307315Y-115777957D01*
X185261226Y-115765223D01*
X185214405Y-115757778D01*
X185168597Y-115755331D01*
X185116695Y-115762414D01*
X185093279Y-115771230D01*
X185073342Y-115782991D01*
X185056470Y-115798128D01*
X185043606Y-115816392D01*
X185035493Y-115837337D01*
X185032676Y-115861882D01*
X185036095Y-115886917D01*
X185045010Y-115903586D01*
X185056917Y-115912807D01*
X185070228Y-115915554D01*
X185104056Y-115911463D01*
X185133792Y-115902243D01*
X185162491Y-115892657D01*
X185193876Y-115888199D01*
X185244213Y-115893125D01*
X185296702Y-115908410D01*
X185348018Y-115931174D01*
X185398490Y-115959701D01*
X185446659Y-115992588D01*
X185492096Y-116029066D01*
X185570987Y-116103560D01*
X185587362Y-116123316D01*
X185597976Y-116141906D01*
X185604497Y-116160970D01*
X185606524Y-116178054D01*
X185601106Y-116200562D01*
X185584665Y-116217744D01*
X185561028Y-116228336D01*
X185531359Y-116232093D01*
X185489715Y-116231605D01*
X185442210Y-116230383D01*
X185395071Y-116228918D01*
X185354466Y-116228185D01*
X185312761Y-116231206D01*
X185273194Y-116240153D01*
X185236170Y-116255035D01*
X185204195Y-116275263D01*
X185177174Y-116301155D01*
X185156018Y-116332904D01*
X185142565Y-116369180D01*
X185137883Y-116411673D01*
X185139910Y-116438860D01*
X185146127Y-116466871D01*
X185168658Y-116523169D01*
X185201448Y-116579101D01*
X185240343Y-116633262D01*
X185279220Y-116679499D01*
X185322653Y-116723326D01*
X185369729Y-116763001D01*
X185419373Y-116796966D01*
X185472071Y-116825107D01*
X185527634Y-116846730D01*
X185585419Y-116860557D01*
X185644809Y-116865170D01*
X185698115Y-116860286D01*
X185752032Y-116846120D01*
X185802224Y-116822611D01*
X185843562Y-116790432D01*
X185859621Y-116771381D01*
X185871955Y-116750682D01*
X185879850Y-116728135D01*
X185882519Y-116703604D01*
X185878794Y-116680095D01*
X185872515Y-116671818D01*
X185859987Y-116668799D01*
G37*
G36*
X184891381Y-116221530D02*
G01*
X184883565Y-116202784D01*
X184872636Y-116190144D01*
X184862072Y-116183367D01*
X184854501Y-116181290D01*
X184836793Y-116183000D01*
X184816948Y-116186053D01*
X184795760Y-116190144D01*
X184780269Y-116194187D01*
X184770176Y-116204494D01*
X184764366Y-116219083D01*
X184762299Y-116237222D01*
X184766390Y-116265127D01*
X184808766Y-116413443D01*
X184841189Y-116520788D01*
X184861706Y-116593084D01*
X184868850Y-116635338D01*
X184865125Y-116667395D01*
X184853829Y-116700429D01*
X184834717Y-116726013D01*
X184821977Y-116733625D01*
X184806690Y-116736210D01*
X184778475Y-116731980D01*
X184748621Y-116718503D01*
X184720183Y-116698984D01*
X184692629Y-116675211D01*
X184644513Y-116620683D01*
X184609281Y-116569148D01*
X184591512Y-116538496D01*
X184561165Y-116472733D01*
X184536557Y-116398056D01*
X184518422Y-116327531D01*
X184506821Y-116274652D01*
X184489052Y-116183977D01*
X184481524Y-116160746D01*
X184472383Y-116148196D01*
X184458685Y-116141174D01*
X184434403Y-116138304D01*
X184403689Y-116142090D01*
X184380486Y-116155401D01*
X184366137Y-116180985D01*
X184361313Y-116222262D01*
X184363383Y-116253038D01*
X184370533Y-116294253D01*
X184390683Y-116379921D01*
X184403323Y-116433471D01*
X184414924Y-116490136D01*
X184423168Y-116544052D01*
X184426221Y-116590092D01*
X184423839Y-116659701D01*
X184421458Y-116733401D01*
X184422496Y-116764848D01*
X184425549Y-116785242D01*
X184434755Y-116809623D01*
X184445027Y-116824870D01*
X184459808Y-116834137D01*
X184485633Y-116837815D01*
X184517079Y-116833358D01*
X184535214Y-116821390D01*
X184543763Y-116804659D01*
X184546449Y-116785853D01*
X184553960Y-116656648D01*
X184560127Y-116658724D01*
X184609342Y-116722838D01*
X184668082Y-116788967D01*
X184701716Y-116817274D01*
X184738058Y-116840441D01*
X184777464Y-116856024D01*
X184820368Y-116861263D01*
X184843265Y-116856805D01*
X184872269Y-116845570D01*
X184900968Y-116830183D01*
X184922827Y-116814185D01*
X184955249Y-116776741D01*
X184976133Y-116735783D01*
X184987932Y-116691626D01*
X184991826Y-116647123D01*
X184987735Y-116596687D01*
X184978210Y-116547899D01*
X184966242Y-116503569D01*
X184955617Y-116466383D01*
X184932414Y-116376379D01*
X184914279Y-116308175D01*
X184900968Y-116258044D01*
X184891381Y-116221530D01*
G37*
G36*
X183981516Y-115810957D02*
G01*
X183994155Y-115822192D01*
X184001299Y-115836236D01*
X184005696Y-115849853D01*
X184013206Y-115905235D01*
X184028654Y-115982538D01*
X184055582Y-116089822D01*
X184090081Y-116216278D01*
X184128000Y-116351284D01*
X184164881Y-116484579D01*
X184196327Y-116605235D01*
X184225697Y-116722777D01*
X184230826Y-116746346D01*
X184232536Y-116769977D01*
X184228172Y-116800294D01*
X184216172Y-116822245D01*
X184195684Y-116836279D01*
X184160790Y-116841723D01*
X184138625Y-116837693D01*
X184121528Y-116827252D01*
X184109255Y-116813330D01*
X184100706Y-116798981D01*
X184074389Y-116816383D01*
X184057953Y-116820506D01*
X184031707Y-116822184D01*
X184003039Y-116819924D01*
X183973272Y-116812964D01*
X183911479Y-116786646D01*
X183814087Y-116726196D01*
X183767768Y-116689935D01*
X183724633Y-116648344D01*
X183685830Y-116601696D01*
X183650872Y-116548265D01*
X183622453Y-116489477D01*
X183600619Y-116421198D01*
X183595490Y-116391523D01*
X183594075Y-116366915D01*
X183715413Y-116366915D01*
X183717489Y-116388164D01*
X183722923Y-116414787D01*
X183746163Y-116482543D01*
X183779226Y-116541645D01*
X183822330Y-116593267D01*
X183873642Y-116637569D01*
X183933316Y-116676111D01*
X184002337Y-116708855D01*
X184029631Y-116718442D01*
X184053201Y-116724914D01*
X184076465Y-116732119D01*
X184102721Y-116744392D01*
X184106812Y-116732119D01*
X184102721Y-116705436D01*
X184091486Y-116645963D01*
X184077137Y-116591252D01*
X184061078Y-116538618D01*
X184044652Y-116484518D01*
X183981821Y-116434998D01*
X183908060Y-116383035D01*
X183831856Y-116342308D01*
X183794265Y-116329726D01*
X183761880Y-116325882D01*
X183739526Y-116328799D01*
X183726343Y-116336140D01*
X183718378Y-116348327D01*
X183715413Y-116366915D01*
X183594075Y-116366915D01*
X183593780Y-116361786D01*
X183595967Y-116332442D01*
X183602329Y-116305793D01*
X183613276Y-116281439D01*
X183628646Y-116261036D01*
X183648399Y-116244441D01*
X183673709Y-116231299D01*
X183702606Y-116223274D01*
X183738616Y-116220369D01*
X183773982Y-116222909D01*
X183809691Y-116230628D01*
X183878995Y-116258288D01*
X183943597Y-116298588D01*
X184000933Y-116346765D01*
X183948726Y-116154851D01*
X183897130Y-115965563D01*
X183890963Y-115933079D01*
X183888215Y-115897175D01*
X183891634Y-115862920D01*
X183903602Y-115833855D01*
X183926500Y-115813705D01*
X183941946Y-115808157D01*
X183961976Y-115806133D01*
X183981516Y-115810957D01*
G37*
G36*
X183015840Y-116869078D02*
G01*
X183053673Y-116863727D01*
X183073909Y-116850577D01*
X183085383Y-116829575D01*
X183089602Y-116799836D01*
X183086182Y-116762833D01*
X183077329Y-116721678D01*
X183055835Y-116649382D01*
X183031899Y-116576720D01*
X183008696Y-116503325D01*
X182988485Y-116429624D01*
X182987814Y-116420710D01*
X182992637Y-116405628D01*
X183006926Y-116400132D01*
X183039410Y-116406299D01*
X183068414Y-116419977D01*
X183148709Y-116480793D01*
X183211906Y-116543686D01*
X183266189Y-116613722D01*
X183319801Y-116695361D01*
X183355338Y-116770893D01*
X183376892Y-116821146D01*
X183387908Y-116838269D01*
X183399057Y-116848806D01*
X183413207Y-116854925D01*
X183435938Y-116857355D01*
X183460176Y-116853038D01*
X183474590Y-116841601D01*
X183482817Y-116824221D01*
X183485825Y-116800629D01*
X183479658Y-116756238D01*
X183254221Y-115852967D01*
X183247444Y-115835259D01*
X183234438Y-115817491D01*
X183214959Y-115803813D01*
X183189314Y-115798318D01*
X183166111Y-115799356D01*
X183143946Y-115803447D01*
X183127520Y-115813339D01*
X183121048Y-115831168D01*
X183122391Y-115842404D01*
X183126482Y-115861943D01*
X183205373Y-116171093D01*
X183290430Y-116495936D01*
X183247601Y-116446547D01*
X183203724Y-116402147D01*
X183157476Y-116362089D01*
X183111156Y-116328874D01*
X183062509Y-116301341D01*
X183012787Y-116280758D01*
X182961029Y-116267723D01*
X182907213Y-116263356D01*
X182875670Y-116269170D01*
X182853236Y-116285582D01*
X182839092Y-116310245D01*
X182834124Y-116342002D01*
X182838215Y-116372716D01*
X182856655Y-116434631D01*
X182877843Y-116495814D01*
X182899703Y-116558401D01*
X182918815Y-116623614D01*
X182933836Y-116705375D01*
X182939331Y-116767229D01*
X182945498Y-116805514D01*
X182959481Y-116837937D01*
X182982745Y-116860530D01*
X182997692Y-116866858D01*
X183015840Y-116869078D01*
G37*
G36*
X182404073Y-116200280D02*
G01*
X182439461Y-116211667D01*
X182476491Y-116232887D01*
X182535752Y-116279706D01*
X182587877Y-116332237D01*
X182633295Y-116390790D01*
X182671343Y-116454364D01*
X182700985Y-116521271D01*
X182722444Y-116591985D01*
X182731664Y-116634605D01*
X182734717Y-116670387D01*
X182730547Y-116707150D01*
X182718658Y-116737798D01*
X182698707Y-116765403D01*
X182666390Y-116795561D01*
X182635005Y-116812109D01*
X182596048Y-116818276D01*
X182570680Y-116814965D01*
X182541765Y-116804171D01*
X182483330Y-116769427D01*
X182426605Y-116726074D01*
X182376718Y-116686873D01*
X182381542Y-116755139D01*
X182386304Y-116802339D01*
X182384289Y-116819009D01*
X182375375Y-116831160D01*
X182355896Y-116838975D01*
X182322069Y-116841723D01*
X182295446Y-116835556D01*
X182278410Y-116820840D01*
X182268518Y-116803011D01*
X182263328Y-116787562D01*
X182255207Y-116741645D01*
X182250383Y-116687423D01*
X182160197Y-116326065D01*
X182157164Y-116316967D01*
X182283845Y-116316967D01*
X182287630Y-116363984D01*
X182296851Y-116410268D01*
X182308976Y-116444372D01*
X182327259Y-116479755D01*
X182375069Y-116547838D01*
X182432466Y-116611097D01*
X182492184Y-116665319D01*
X182539017Y-116696093D01*
X182564795Y-116705645D01*
X182592629Y-116708855D01*
X182608097Y-116704979D01*
X182616564Y-116694017D01*
X182621999Y-116660495D01*
X182618946Y-116624530D01*
X182613145Y-116596870D01*
X182587500Y-116526039D01*
X182547566Y-116455575D01*
X182495969Y-116391278D01*
X182466597Y-116362993D01*
X182436191Y-116339132D01*
X182403927Y-116319098D01*
X182370978Y-116303839D01*
X182336902Y-116293930D01*
X182303628Y-116290711D01*
X182293694Y-116292997D01*
X182287936Y-116299382D01*
X182283845Y-116316967D01*
X182157164Y-116316967D01*
X182149328Y-116293459D01*
X182143832Y-116259509D01*
X182147618Y-116234535D01*
X182159586Y-116213286D01*
X182181446Y-116198510D01*
X182215579Y-116193014D01*
X182236400Y-116194419D01*
X182261985Y-116199181D01*
X182297217Y-116195090D01*
X182332388Y-116193014D01*
X182404073Y-116200280D01*
G37*
G36*
X182039602Y-116783410D02*
G01*
X182000034Y-116634544D01*
X181962787Y-116502409D01*
X181927616Y-116379799D01*
X181894766Y-116258899D01*
X181887622Y-116212798D01*
X181881149Y-116166697D01*
X181871257Y-116152042D01*
X181855198Y-116140746D01*
X181836392Y-116133236D01*
X181817585Y-116130488D01*
X181785833Y-116134945D01*
X181765378Y-116146852D01*
X181754448Y-116164987D01*
X181751334Y-116188557D01*
X181758845Y-116235329D01*
X181777285Y-116286864D01*
X181711400Y-116239054D01*
X181641730Y-116199364D01*
X181568274Y-116172009D01*
X181530144Y-116164336D01*
X181490361Y-116161751D01*
X181453480Y-116167552D01*
X181420385Y-116185687D01*
X181407099Y-116199562D01*
X181395778Y-116217805D01*
X181388166Y-116239063D01*
X181384481Y-116266348D01*
X181323726Y-116226231D01*
X181259856Y-116189961D01*
X181194949Y-116163888D01*
X181162516Y-116156362D01*
X181131751Y-116153935D01*
X181088216Y-116157216D01*
X181056280Y-116165903D01*
X181029084Y-116180305D01*
X181009141Y-116198082D01*
X180994311Y-116219765D01*
X180984534Y-116244916D01*
X180977329Y-116301702D01*
X180983496Y-116369419D01*
X180997173Y-116435792D01*
X181041564Y-116585940D01*
X181094870Y-116729249D01*
X181109220Y-116765519D01*
X181126622Y-116800751D01*
X181149886Y-116827435D01*
X181164224Y-116835328D01*
X181180966Y-116837998D01*
X181217463Y-116833932D01*
X181236287Y-116824382D01*
X181247333Y-116808362D01*
X181251308Y-116785425D01*
X181250636Y-116769794D01*
X181247217Y-116752697D01*
X181234944Y-116723021D01*
X181214061Y-116681011D01*
X181191835Y-116635643D01*
X181175471Y-116595710D01*
X181154649Y-116527871D01*
X181131751Y-116450019D01*
X181113677Y-116375647D01*
X181106472Y-116318616D01*
X181108548Y-116298161D01*
X181115692Y-116280392D01*
X181130041Y-116268119D01*
X181153611Y-116263356D01*
X181174748Y-116265954D01*
X181202459Y-116274958D01*
X181261200Y-116305366D01*
X181320307Y-116347681D01*
X181369460Y-116394392D01*
X181396816Y-116421015D01*
X181422766Y-116436707D01*
X181429605Y-116454842D01*
X181442550Y-116491662D01*
X181458304Y-116538068D01*
X181473630Y-116584474D01*
X181485598Y-116620622D01*
X181490361Y-116636681D01*
X181498543Y-116675943D01*
X181504710Y-116714473D01*
X181509839Y-116753735D01*
X181519426Y-116792630D01*
X181528512Y-116809153D01*
X181541285Y-116822306D01*
X181557990Y-116830730D01*
X181582623Y-116833907D01*
X181607536Y-116827130D01*
X181627015Y-116809911D01*
X181640020Y-116786219D01*
X181645455Y-116759474D01*
X181614741Y-116649809D01*
X181584638Y-116556386D01*
X181555635Y-116466688D01*
X181527974Y-116367526D01*
X181522540Y-116342124D01*
X181520464Y-116320143D01*
X181522289Y-116304893D01*
X181527302Y-116293398D01*
X181536151Y-116285752D01*
X181551177Y-116282896D01*
X181578901Y-116285647D01*
X181606864Y-116294070D01*
X181634492Y-116307708D01*
X181666643Y-116328935D01*
X181738023Y-116389141D01*
X181828515Y-116476336D01*
X181842864Y-116514255D01*
X181860938Y-116573117D01*
X181877669Y-116630942D01*
X181887255Y-116666418D01*
X181897513Y-116714167D01*
X181902276Y-116748972D01*
X181906367Y-116775717D01*
X181916320Y-116813269D01*
X181936470Y-116846730D01*
X181951286Y-116857548D01*
X181970603Y-116861263D01*
X181999799Y-116856796D01*
X182022199Y-116844166D01*
X182037334Y-116824854D01*
X182042349Y-116801179D01*
X182041678Y-116792264D01*
X182039602Y-116783410D01*
G37*
G36*
X180103794Y-116524024D02*
G01*
X180086768Y-116461363D01*
X180064532Y-116393965D01*
X180013668Y-116255662D01*
X179961034Y-116112231D01*
X179916643Y-115966784D01*
X179908400Y-115933934D01*
X179901561Y-115901693D01*
X179891730Y-115885726D01*
X179879396Y-115874338D01*
X179864742Y-115867130D01*
X179848988Y-115864752D01*
X179820655Y-115869576D01*
X179797452Y-115884963D01*
X179781699Y-115912074D01*
X179775898Y-115951153D01*
X179783408Y-116007451D01*
X179837386Y-116141906D01*
X179890326Y-116270867D01*
X179937770Y-116395675D01*
X179975383Y-116517735D01*
X179980818Y-116538679D01*
X179989366Y-116577452D01*
X179997243Y-116625812D01*
X180000662Y-116675516D01*
X179998647Y-116706718D01*
X179991809Y-116732424D01*
X179978803Y-116749583D01*
X179958286Y-116755750D01*
X179931880Y-116749982D01*
X179894783Y-116728639D01*
X179857366Y-116698199D01*
X179813450Y-116654877D01*
X179770283Y-116605620D01*
X179723630Y-116545701D01*
X179633810Y-116411795D01*
X179552538Y-116264883D01*
X179517519Y-116189117D01*
X179488974Y-116115894D01*
X179481733Y-116104753D01*
X179473953Y-116099103D01*
X179450750Y-116095317D01*
X179425941Y-116099448D01*
X179405992Y-116111437D01*
X179392445Y-116129694D01*
X179387857Y-116152836D01*
X179389262Y-116164438D01*
X179393353Y-116177444D01*
X179402939Y-116205532D01*
X179423761Y-116264699D01*
X179439820Y-116315685D01*
X179454169Y-116378333D01*
X179462718Y-116431700D01*
X179466809Y-116480671D01*
X179467786Y-116529214D01*
X179466076Y-116557302D01*
X179460947Y-116598030D01*
X179451727Y-116643215D01*
X179438110Y-116685286D01*
X179419670Y-116716427D01*
X179408031Y-116725525D01*
X179395368Y-116728394D01*
X179374535Y-116724401D01*
X179350671Y-116710992D01*
X179327879Y-116691209D01*
X179303166Y-116663182D01*
X179254989Y-116591802D01*
X179207911Y-116503752D01*
X179164192Y-116406116D01*
X179125907Y-116306038D01*
X179095193Y-116210416D01*
X179073639Y-116126092D01*
X179060694Y-116055750D01*
X179049764Y-115987484D01*
X179037796Y-115918852D01*
X179021737Y-115848143D01*
X179011479Y-115821521D01*
X178994748Y-115796608D01*
X178973255Y-115778168D01*
X178949319Y-115770963D01*
X178922333Y-115775657D01*
X178907676Y-115787693D01*
X178899988Y-115807537D01*
X178896746Y-115843381D01*
X178901875Y-115910364D01*
X178914881Y-115990659D01*
X178932283Y-116075717D01*
X178951395Y-116156988D01*
X178973235Y-116235212D01*
X179001953Y-116318616D01*
X179035227Y-116401359D01*
X179071990Y-116481892D01*
X179112137Y-116559851D01*
X179153995Y-116631919D01*
X179198661Y-116699007D01*
X179241067Y-116752819D01*
X179276605Y-116789028D01*
X179320629Y-116822489D01*
X179368440Y-116847402D01*
X179392693Y-116854959D01*
X179415212Y-116857355D01*
X179459077Y-116850227D01*
X179494164Y-116829633D01*
X179522431Y-116798115D01*
X179546065Y-116755689D01*
X179563485Y-116707418D01*
X179576840Y-116650298D01*
X179592166Y-116528054D01*
X179662203Y-116629415D01*
X179726744Y-116711542D01*
X179782065Y-116772175D01*
X179847278Y-116832381D01*
X179882595Y-116858005D01*
X179917986Y-116878299D01*
X179954514Y-116892069D01*
X179989000Y-116896434D01*
X180027184Y-116892664D01*
X180056289Y-116882390D01*
X180080707Y-116865627D01*
X180099703Y-116843677D01*
X180113559Y-116817377D01*
X180123272Y-116785547D01*
X180128572Y-116751191D01*
X180130416Y-116712946D01*
X180122906Y-116619890D01*
X180103794Y-116524024D01*
G37*
G36*
X178546990Y-116200280D02*
G01*
X178582378Y-116211667D01*
X178619408Y-116232887D01*
X178678669Y-116279706D01*
X178730794Y-116332237D01*
X178776212Y-116390790D01*
X178814260Y-116454364D01*
X178843902Y-116521271D01*
X178865361Y-116591985D01*
X178874581Y-116634605D01*
X178877634Y-116670387D01*
X178873464Y-116707150D01*
X178861575Y-116737798D01*
X178841624Y-116765403D01*
X178809307Y-116795561D01*
X178777922Y-116812109D01*
X178738965Y-116818276D01*
X178713597Y-116814965D01*
X178684682Y-116804171D01*
X178626247Y-116769427D01*
X178569521Y-116726074D01*
X178519635Y-116686873D01*
X178524459Y-116755139D01*
X178529221Y-116802339D01*
X178527206Y-116819009D01*
X178518292Y-116831160D01*
X178498813Y-116838975D01*
X178464986Y-116841723D01*
X178438363Y-116835556D01*
X178421327Y-116820840D01*
X178411435Y-116803011D01*
X178406245Y-116787562D01*
X178398124Y-116741645D01*
X178393300Y-116687423D01*
X178303114Y-116326065D01*
X178300081Y-116316967D01*
X178426762Y-116316967D01*
X178430547Y-116363984D01*
X178439767Y-116410268D01*
X178451893Y-116444372D01*
X178470176Y-116479755D01*
X178517986Y-116547838D01*
X178575383Y-116611097D01*
X178635101Y-116665319D01*
X178681934Y-116696093D01*
X178707712Y-116705645D01*
X178735546Y-116708855D01*
X178751013Y-116704979D01*
X178759481Y-116694017D01*
X178764916Y-116660495D01*
X178761863Y-116624530D01*
X178756062Y-116596870D01*
X178730416Y-116526039D01*
X178690483Y-116455575D01*
X178638886Y-116391278D01*
X178609514Y-116362993D01*
X178579108Y-116339132D01*
X178546844Y-116319098D01*
X178513895Y-116303839D01*
X178479819Y-116293930D01*
X178446545Y-116290711D01*
X178436611Y-116292997D01*
X178430853Y-116299382D01*
X178426762Y-116316967D01*
X178300081Y-116316967D01*
X178292245Y-116293459D01*
X178286749Y-116259509D01*
X178290535Y-116234535D01*
X178302503Y-116213286D01*
X178324363Y-116198510D01*
X178358496Y-116193014D01*
X178379317Y-116194419D01*
X178404902Y-116199181D01*
X178440134Y-116195090D01*
X178475305Y-116193014D01*
X178546990Y-116200280D01*
G37*
G36*
X178166826Y-116700001D02*
G01*
X178156934Y-116701406D01*
X178147042Y-116704459D01*
X178134708Y-116707512D01*
X178116939Y-116708855D01*
X178045560Y-116702627D01*
X177971432Y-116686324D01*
X177911653Y-116663487D01*
X177890845Y-116649182D01*
X177883321Y-116636864D01*
X177881245Y-116623736D01*
X177883857Y-116612879D01*
X177892541Y-116601693D01*
X177920874Y-116581666D01*
X177957815Y-116564019D01*
X177994635Y-116549059D01*
X178017899Y-116539595D01*
X178052765Y-116522986D01*
X178084516Y-116500211D01*
X178110528Y-116470047D01*
X178127198Y-116430296D01*
X178131655Y-116411367D01*
X178133365Y-116390973D01*
X178130660Y-116373047D01*
X178121397Y-116350612D01*
X178089279Y-116305488D01*
X178043545Y-116262745D01*
X177989872Y-116228796D01*
X177950305Y-116202967D01*
X177911653Y-116183306D01*
X177872025Y-116170422D01*
X177829344Y-116165659D01*
X177784952Y-116167735D01*
X177741233Y-116177383D01*
X177722888Y-116186846D01*
X177708077Y-116199731D01*
X177698286Y-116216449D01*
X177694766Y-116239298D01*
X177696842Y-116259265D01*
X177703681Y-116283995D01*
X177715282Y-116305183D01*
X177722927Y-116311911D01*
X177731646Y-116314036D01*
X177757597Y-116307869D01*
X177776099Y-116294558D01*
X177793135Y-116281247D01*
X177814994Y-116275080D01*
X177851570Y-116280819D01*
X177894251Y-116296207D01*
X177936933Y-116318677D01*
X177974485Y-116344811D01*
X178001474Y-116371250D01*
X178009453Y-116384370D01*
X178011732Y-116395003D01*
X178009812Y-116405627D01*
X178004221Y-116413993D01*
X177985109Y-116426877D01*
X177950610Y-116443180D01*
X177911348Y-116459483D01*
X177872758Y-116475786D01*
X177840273Y-116490685D01*
X177807178Y-116509370D01*
X177782205Y-116529398D01*
X177766512Y-116553822D01*
X177761017Y-116585696D01*
X177762421Y-116603342D01*
X177766512Y-116623675D01*
X177773656Y-116647489D01*
X177784586Y-116674295D01*
X177796554Y-116698047D01*
X177806812Y-116711908D01*
X177835222Y-116735124D01*
X177869644Y-116757704D01*
X177945115Y-116795073D01*
X178023700Y-116820535D01*
X178062319Y-116827760D01*
X178095751Y-116830000D01*
X178132021Y-116823161D01*
X178168536Y-116805148D01*
X178196563Y-116779563D01*
X178205160Y-116764661D01*
X178207798Y-116750682D01*
X178203707Y-116734501D01*
X178193449Y-116717892D01*
X178180137Y-116705191D01*
X178166826Y-116700001D01*
G37*
G36*
X176942437Y-116810887D02*
G01*
X176940055Y-116790737D01*
X176934255Y-116764787D01*
X176927110Y-116739141D01*
X176921249Y-116719296D01*
X176644583Y-115810835D01*
X176637072Y-115802592D01*
X176627852Y-115796791D01*
X176613869Y-115794410D01*
X176602206Y-115794410D01*
X176576988Y-115799539D01*
X176560563Y-115813217D01*
X176552015Y-115833000D01*
X176549633Y-115857180D01*
X176551343Y-115880078D01*
X176555129Y-115903281D01*
X176559525Y-115924103D01*
X176563311Y-115939063D01*
X176705399Y-116423579D01*
X176640491Y-116417412D01*
X176418841Y-116367892D01*
X176197130Y-116318311D01*
X176186182Y-116309634D01*
X176175331Y-116293032D01*
X176156524Y-116243145D01*
X176136374Y-116171032D01*
X176109691Y-116079075D01*
X176095341Y-116031936D01*
X176079344Y-115961838D01*
X176061880Y-115896564D01*
X176049864Y-115869099D01*
X176035929Y-115848387D01*
X176018020Y-115834288D01*
X175995629Y-115829581D01*
X175964092Y-115835408D01*
X175941652Y-115851868D01*
X175927483Y-115876441D01*
X175922540Y-115907616D01*
X175925687Y-115932025D01*
X175938599Y-115978813D01*
X175978532Y-116100629D01*
X175997705Y-116155401D01*
X176016451Y-116209134D01*
X176030495Y-116256334D01*
X176035929Y-116290894D01*
X176032510Y-116315197D01*
X176029091Y-116340903D01*
X176033362Y-116369638D01*
X176045516Y-116392255D01*
X176064055Y-116412094D01*
X176090579Y-116433960D01*
X176094364Y-116451118D01*
X176100165Y-116475054D01*
X176109019Y-116509919D01*
X176125078Y-116585268D01*
X176136680Y-116659823D01*
X176147609Y-116733768D01*
X176162325Y-116806980D01*
X176174293Y-116831282D01*
X176194138Y-116849417D01*
X176217707Y-116861018D01*
X176240910Y-116865170D01*
X176256173Y-116863154D01*
X176267533Y-116857599D01*
X176283592Y-116839647D01*
X176291468Y-116818337D01*
X176293483Y-116799713D01*
X176291102Y-116772541D01*
X176284569Y-116728089D01*
X176275043Y-116672951D01*
X176264113Y-116612990D01*
X176234010Y-116460460D01*
X176238834Y-116460460D01*
X176277119Y-116464246D01*
X176326273Y-116474809D01*
X176364863Y-116485739D01*
X176423237Y-116501432D01*
X176493946Y-116520544D01*
X176569417Y-116541060D01*
X176754553Y-116591618D01*
X176778794Y-116649748D01*
X176799677Y-116713068D01*
X176817079Y-116776022D01*
X176831734Y-116834457D01*
X176840282Y-116850943D01*
X176855303Y-116867491D01*
X176873072Y-116879886D01*
X176890474Y-116884710D01*
X176915448Y-116878176D01*
X176931507Y-116861079D01*
X176940055Y-116837205D01*
X176942437Y-116810887D01*
G37*
G36*
X175554910Y-116224355D02*
G01*
X175597269Y-116236123D01*
X175637289Y-116254165D01*
X175674450Y-116276789D01*
X175708868Y-116303162D01*
X175740029Y-116332110D01*
X175792969Y-116392622D01*
X175831926Y-116448309D01*
X175855129Y-116488975D01*
X175878635Y-116499226D01*
X175896833Y-116516147D01*
X175908474Y-116538353D01*
X175912526Y-116565790D01*
X175910413Y-116579415D01*
X175904710Y-116588565D01*
X175887918Y-116597725D01*
X175894740Y-116636993D01*
X175896833Y-116670204D01*
X175893822Y-116708532D01*
X175885598Y-116738592D01*
X175872349Y-116765097D01*
X175856228Y-116786280D01*
X175836782Y-116803730D01*
X175814890Y-116817360D01*
X175767751Y-116835251D01*
X175721650Y-116843555D01*
X175682998Y-116845631D01*
X175600060Y-116839461D01*
X175523508Y-116821390D01*
X175450962Y-116789744D01*
X175377634Y-116740362D01*
X175351683Y-116709221D01*
X175338005Y-116673196D01*
X175337028Y-116664525D01*
X175336662Y-116653778D01*
X175341486Y-116635460D01*
X175348499Y-116629302D01*
X175363285Y-116626789D01*
X175380686Y-116629380D01*
X175402608Y-116638269D01*
X175449380Y-116666357D01*
X175491756Y-116693040D01*
X175541277Y-116718014D01*
X175596964Y-116736760D01*
X175658391Y-116744026D01*
X175709854Y-116737975D01*
X175745219Y-116721983D01*
X175762676Y-116705232D01*
X175773004Y-116684924D01*
X175776605Y-116659884D01*
X175772208Y-116623004D01*
X175761584Y-116591618D01*
X175695333Y-116583803D01*
X175615710Y-116569148D01*
X175533033Y-116545212D01*
X175492960Y-116528947D01*
X175456524Y-116509370D01*
X175423420Y-116485895D01*
X175395403Y-116459239D01*
X175373549Y-116428228D01*
X175359865Y-116392316D01*
X175355822Y-116363251D01*
X175483513Y-116363251D01*
X175483513Y-116369480D01*
X175484856Y-116375708D01*
X175493348Y-116394622D01*
X175509159Y-116413382D01*
X175529978Y-116429610D01*
X175558312Y-116445195D01*
X175590307Y-116457806D01*
X175629692Y-116468703D01*
X175719879Y-116482198D01*
X175689166Y-116432800D01*
X175643736Y-116381570D01*
X175617060Y-116359555D01*
X175589087Y-116341819D01*
X175559418Y-116329770D01*
X175529980Y-116325882D01*
X175511932Y-116328303D01*
X175497191Y-116335225D01*
X175487045Y-116346675D01*
X175483513Y-116363251D01*
X175355822Y-116363251D01*
X175353698Y-116347986D01*
X175356137Y-116321414D01*
X175363285Y-116297184D01*
X175375206Y-116275270D01*
X175391983Y-116256578D01*
X175413096Y-116241686D01*
X175440465Y-116229956D01*
X175471290Y-116222923D01*
X175509464Y-116220369D01*
X175554910Y-116224355D01*
G37*
G36*
X175197566Y-116758925D02*
G01*
X175177110Y-116653778D01*
X175153175Y-116537641D01*
X175129300Y-116422236D01*
X175109455Y-116318433D01*
X175110127Y-116306465D01*
X175110127Y-116295230D01*
X175107440Y-116252915D01*
X175099869Y-116213958D01*
X175091117Y-116190526D01*
X175083138Y-116178787D01*
X175071994Y-116172158D01*
X175053463Y-116169567D01*
X175034922Y-116171693D01*
X175021711Y-116177383D01*
X175002904Y-116198204D01*
X174994050Y-116227880D01*
X174991974Y-116262379D01*
X174992646Y-116283567D01*
X174993318Y-116302008D01*
X174952712Y-116261402D01*
X174906917Y-116223789D01*
X174855687Y-116196128D01*
X174828132Y-116187937D01*
X174799328Y-116185198D01*
X174776491Y-116187213D01*
X174753532Y-116192587D01*
X174725200Y-116201685D01*
X174696868Y-116217438D01*
X174676201Y-116236216D01*
X174658949Y-116259448D01*
X174647294Y-116285296D01*
X174643562Y-116310861D01*
X174647653Y-116332721D01*
X174658949Y-116354214D01*
X174675680Y-116370334D01*
X174696868Y-116376685D01*
X174725200Y-116371006D01*
X174752861Y-116355924D01*
X174762752Y-116344567D01*
X174772339Y-116329790D01*
X174780582Y-116316051D01*
X174786322Y-116307686D01*
X174793832Y-116306709D01*
X174801343Y-116306343D01*
X174835206Y-116310761D01*
X174867655Y-116324173D01*
X174897894Y-116343869D01*
X174926395Y-116367709D01*
X174976587Y-116422480D01*
X175016582Y-116474931D01*
X175046929Y-116593145D01*
X175080085Y-116724364D01*
X175080085Y-116741461D01*
X175081489Y-116783288D01*
X175089672Y-116820963D01*
X175111165Y-116838426D01*
X175125941Y-116843758D01*
X175143588Y-116845631D01*
X175169259Y-116840696D01*
X175186636Y-116826885D01*
X175197338Y-116806645D01*
X175200985Y-116782800D01*
X175197566Y-116758925D01*
G37*
G36*
X174267262Y-116224355D02*
G01*
X174309621Y-116236123D01*
X174349641Y-116254165D01*
X174386802Y-116276789D01*
X174421220Y-116303162D01*
X174452381Y-116332110D01*
X174505321Y-116392622D01*
X174544277Y-116448309D01*
X174567480Y-116488975D01*
X174590987Y-116499226D01*
X174609185Y-116516147D01*
X174620826Y-116538353D01*
X174624877Y-116565790D01*
X174622764Y-116579415D01*
X174617062Y-116588565D01*
X174600270Y-116597725D01*
X174607092Y-116636993D01*
X174609185Y-116670204D01*
X174606174Y-116708532D01*
X174597950Y-116738592D01*
X174584701Y-116765097D01*
X174568579Y-116786280D01*
X174549134Y-116803730D01*
X174527241Y-116817360D01*
X174480102Y-116835251D01*
X174434002Y-116843555D01*
X174395350Y-116845631D01*
X174312412Y-116839461D01*
X174235860Y-116821390D01*
X174163314Y-116789744D01*
X174089986Y-116740362D01*
X174064035Y-116709221D01*
X174050357Y-116673196D01*
X174049380Y-116664525D01*
X174049014Y-116653778D01*
X174053838Y-116635460D01*
X174060851Y-116629302D01*
X174075636Y-116626789D01*
X174093037Y-116629380D01*
X174114959Y-116638269D01*
X174161732Y-116666357D01*
X174204108Y-116693040D01*
X174253628Y-116718014D01*
X174309316Y-116736760D01*
X174370743Y-116744026D01*
X174422206Y-116737975D01*
X174457571Y-116721983D01*
X174475028Y-116705232D01*
X174485356Y-116684924D01*
X174488956Y-116659884D01*
X174484560Y-116623004D01*
X174473935Y-116591618D01*
X174407684Y-116583803D01*
X174328061Y-116569148D01*
X174245385Y-116545212D01*
X174205312Y-116528947D01*
X174168876Y-116509370D01*
X174135772Y-116485895D01*
X174107754Y-116459239D01*
X174085901Y-116428228D01*
X174072217Y-116392316D01*
X174068174Y-116363251D01*
X174195865Y-116363251D01*
X174195865Y-116369480D01*
X174197208Y-116375708D01*
X174205700Y-116394622D01*
X174221510Y-116413382D01*
X174242329Y-116429610D01*
X174270664Y-116445195D01*
X174302659Y-116457806D01*
X174342044Y-116468703D01*
X174432231Y-116482198D01*
X174401517Y-116432800D01*
X174356088Y-116381570D01*
X174329411Y-116359555D01*
X174301439Y-116341819D01*
X174271770Y-116329770D01*
X174242332Y-116325882D01*
X174224284Y-116328303D01*
X174209542Y-116335225D01*
X174199396Y-116346675D01*
X174195865Y-116363251D01*
X174068174Y-116363251D01*
X174066050Y-116347986D01*
X174068489Y-116321414D01*
X174075636Y-116297184D01*
X174087558Y-116275270D01*
X174104335Y-116256578D01*
X174125447Y-116241686D01*
X174152817Y-116229956D01*
X174183642Y-116222923D01*
X174221816Y-116220369D01*
X174267262Y-116224355D01*
G37*
X160334819Y-101571905D02*
X159334819Y-101571905D01*
X159334819Y-101571905D02*
X159334819Y-101810000D01*
X159334819Y-101810000D02*
X159382438Y-101952857D01*
X159382438Y-101952857D02*
X159477676Y-102048095D01*
X159477676Y-102048095D02*
X159572914Y-102095714D01*
X159572914Y-102095714D02*
X159763390Y-102143333D01*
X159763390Y-102143333D02*
X159906247Y-102143333D01*
X159906247Y-102143333D02*
X160096723Y-102095714D01*
X160096723Y-102095714D02*
X160191961Y-102048095D01*
X160191961Y-102048095D02*
X160287200Y-101952857D01*
X160287200Y-101952857D02*
X160334819Y-101810000D01*
X160334819Y-101810000D02*
X160334819Y-101571905D01*
X159334819Y-103000476D02*
X159334819Y-102810000D01*
X159334819Y-102810000D02*
X159382438Y-102714762D01*
X159382438Y-102714762D02*
X159430057Y-102667143D01*
X159430057Y-102667143D02*
X159572914Y-102571905D01*
X159572914Y-102571905D02*
X159763390Y-102524286D01*
X159763390Y-102524286D02*
X160144342Y-102524286D01*
X160144342Y-102524286D02*
X160239580Y-102571905D01*
X160239580Y-102571905D02*
X160287200Y-102619524D01*
X160287200Y-102619524D02*
X160334819Y-102714762D01*
X160334819Y-102714762D02*
X160334819Y-102905238D01*
X160334819Y-102905238D02*
X160287200Y-103000476D01*
X160287200Y-103000476D02*
X160239580Y-103048095D01*
X160239580Y-103048095D02*
X160144342Y-103095714D01*
X160144342Y-103095714D02*
X159906247Y-103095714D01*
X159906247Y-103095714D02*
X159811009Y-103048095D01*
X159811009Y-103048095D02*
X159763390Y-103000476D01*
X159763390Y-103000476D02*
X159715771Y-102905238D01*
X159715771Y-102905238D02*
X159715771Y-102714762D01*
X159715771Y-102714762D02*
X159763390Y-102619524D01*
X159763390Y-102619524D02*
X159811009Y-102571905D01*
X159811009Y-102571905D02*
X159906247Y-102524286D01*
X160654819Y-98238095D02*
X159654819Y-98238095D01*
X160654819Y-98809523D02*
X160083390Y-98380952D01*
X159654819Y-98809523D02*
X160226247Y-98238095D01*
X144359580Y-82857142D02*
X144407200Y-82809523D01*
X144407200Y-82809523D02*
X144454819Y-82666666D01*
X144454819Y-82666666D02*
X144454819Y-82571428D01*
X144454819Y-82571428D02*
X144407200Y-82428571D01*
X144407200Y-82428571D02*
X144311961Y-82333333D01*
X144311961Y-82333333D02*
X144216723Y-82285714D01*
X144216723Y-82285714D02*
X144026247Y-82238095D01*
X144026247Y-82238095D02*
X143883390Y-82238095D01*
X143883390Y-82238095D02*
X143692914Y-82285714D01*
X143692914Y-82285714D02*
X143597676Y-82333333D01*
X143597676Y-82333333D02*
X143502438Y-82428571D01*
X143502438Y-82428571D02*
X143454819Y-82571428D01*
X143454819Y-82571428D02*
X143454819Y-82666666D01*
X143454819Y-82666666D02*
X143502438Y-82809523D01*
X143502438Y-82809523D02*
X143550057Y-82857142D01*
X144454819Y-83809523D02*
X144454819Y-83238095D01*
X144454819Y-83523809D02*
X143454819Y-83523809D01*
X143454819Y-83523809D02*
X143597676Y-83428571D01*
X143597676Y-83428571D02*
X143692914Y-83333333D01*
X143692914Y-83333333D02*
X143740533Y-83238095D01*
X143454819Y-84428571D02*
X143454819Y-84523809D01*
X143454819Y-84523809D02*
X143502438Y-84619047D01*
X143502438Y-84619047D02*
X143550057Y-84666666D01*
X143550057Y-84666666D02*
X143645295Y-84714285D01*
X143645295Y-84714285D02*
X143835771Y-84761904D01*
X143835771Y-84761904D02*
X144073866Y-84761904D01*
X144073866Y-84761904D02*
X144264342Y-84714285D01*
X144264342Y-84714285D02*
X144359580Y-84666666D01*
X144359580Y-84666666D02*
X144407200Y-84619047D01*
X144407200Y-84619047D02*
X144454819Y-84523809D01*
X144454819Y-84523809D02*
X144454819Y-84428571D01*
X144454819Y-84428571D02*
X144407200Y-84333333D01*
X144407200Y-84333333D02*
X144359580Y-84285714D01*
X144359580Y-84285714D02*
X144264342Y-84238095D01*
X144264342Y-84238095D02*
X144073866Y-84190476D01*
X144073866Y-84190476D02*
X143835771Y-84190476D01*
X143835771Y-84190476D02*
X143645295Y-84238095D01*
X143645295Y-84238095D02*
X143550057Y-84285714D01*
X143550057Y-84285714D02*
X143502438Y-84333333D01*
X143502438Y-84333333D02*
X143454819Y-84428571D01*
X124359580Y-123333333D02*
X124407200Y-123285714D01*
X124407200Y-123285714D02*
X124454819Y-123142857D01*
X124454819Y-123142857D02*
X124454819Y-123047619D01*
X124454819Y-123047619D02*
X124407200Y-122904762D01*
X124407200Y-122904762D02*
X124311961Y-122809524D01*
X124311961Y-122809524D02*
X124216723Y-122761905D01*
X124216723Y-122761905D02*
X124026247Y-122714286D01*
X124026247Y-122714286D02*
X123883390Y-122714286D01*
X123883390Y-122714286D02*
X123692914Y-122761905D01*
X123692914Y-122761905D02*
X123597676Y-122809524D01*
X123597676Y-122809524D02*
X123502438Y-122904762D01*
X123502438Y-122904762D02*
X123454819Y-123047619D01*
X123454819Y-123047619D02*
X123454819Y-123142857D01*
X123454819Y-123142857D02*
X123502438Y-123285714D01*
X123502438Y-123285714D02*
X123550057Y-123333333D01*
X123454819Y-124238095D02*
X123454819Y-123761905D01*
X123454819Y-123761905D02*
X123931009Y-123714286D01*
X123931009Y-123714286D02*
X123883390Y-123761905D01*
X123883390Y-123761905D02*
X123835771Y-123857143D01*
X123835771Y-123857143D02*
X123835771Y-124095238D01*
X123835771Y-124095238D02*
X123883390Y-124190476D01*
X123883390Y-124190476D02*
X123931009Y-124238095D01*
X123931009Y-124238095D02*
X124026247Y-124285714D01*
X124026247Y-124285714D02*
X124264342Y-124285714D01*
X124264342Y-124285714D02*
X124359580Y-124238095D01*
X124359580Y-124238095D02*
X124407200Y-124190476D01*
X124407200Y-124190476D02*
X124454819Y-124095238D01*
X124454819Y-124095238D02*
X124454819Y-123857143D01*
X124454819Y-123857143D02*
X124407200Y-123761905D01*
X124407200Y-123761905D02*
X124359580Y-123714286D01*
X118651904Y-79744819D02*
X118651904Y-79221009D01*
X118651904Y-79221009D02*
X118699523Y-79125771D01*
X118699523Y-79125771D02*
X118794761Y-79078152D01*
X118794761Y-79078152D02*
X118985237Y-79078152D01*
X118985237Y-79078152D02*
X119080475Y-79125771D01*
X118651904Y-79697200D02*
X118747142Y-79744819D01*
X118747142Y-79744819D02*
X118985237Y-79744819D01*
X118985237Y-79744819D02*
X119080475Y-79697200D01*
X119080475Y-79697200D02*
X119128094Y-79601961D01*
X119128094Y-79601961D02*
X119128094Y-79506723D01*
X119128094Y-79506723D02*
X119080475Y-79411485D01*
X119080475Y-79411485D02*
X118985237Y-79363866D01*
X118985237Y-79363866D02*
X118747142Y-79363866D01*
X118747142Y-79363866D02*
X118651904Y-79316247D01*
X118032856Y-79173390D02*
X118128094Y-79125771D01*
X118128094Y-79125771D02*
X118175713Y-79078152D01*
X118175713Y-79078152D02*
X118223332Y-78982914D01*
X118223332Y-78982914D02*
X118223332Y-78935295D01*
X118223332Y-78935295D02*
X118175713Y-78840057D01*
X118175713Y-78840057D02*
X118128094Y-78792438D01*
X118128094Y-78792438D02*
X118032856Y-78744819D01*
X118032856Y-78744819D02*
X117842380Y-78744819D01*
X117842380Y-78744819D02*
X117747142Y-78792438D01*
X117747142Y-78792438D02*
X117699523Y-78840057D01*
X117699523Y-78840057D02*
X117651904Y-78935295D01*
X117651904Y-78935295D02*
X117651904Y-78982914D01*
X117651904Y-78982914D02*
X117699523Y-79078152D01*
X117699523Y-79078152D02*
X117747142Y-79125771D01*
X117747142Y-79125771D02*
X117842380Y-79173390D01*
X117842380Y-79173390D02*
X118032856Y-79173390D01*
X118032856Y-79173390D02*
X118128094Y-79221009D01*
X118128094Y-79221009D02*
X118175713Y-79268628D01*
X118175713Y-79268628D02*
X118223332Y-79363866D01*
X118223332Y-79363866D02*
X118223332Y-79554342D01*
X118223332Y-79554342D02*
X118175713Y-79649580D01*
X118175713Y-79649580D02*
X118128094Y-79697200D01*
X118128094Y-79697200D02*
X118032856Y-79744819D01*
X118032856Y-79744819D02*
X117842380Y-79744819D01*
X117842380Y-79744819D02*
X117747142Y-79697200D01*
X117747142Y-79697200D02*
X117699523Y-79649580D01*
X117699523Y-79649580D02*
X117651904Y-79554342D01*
X117651904Y-79554342D02*
X117651904Y-79363866D01*
X117651904Y-79363866D02*
X117699523Y-79268628D01*
X117699523Y-79268628D02*
X117747142Y-79221009D01*
X117747142Y-79221009D02*
X117842380Y-79173390D01*
X118651904Y-119744819D02*
X118651904Y-119221009D01*
X118651904Y-119221009D02*
X118699523Y-119125771D01*
X118699523Y-119125771D02*
X118794761Y-119078152D01*
X118794761Y-119078152D02*
X118985237Y-119078152D01*
X118985237Y-119078152D02*
X119080475Y-119125771D01*
X118651904Y-119697200D02*
X118747142Y-119744819D01*
X118747142Y-119744819D02*
X118985237Y-119744819D01*
X118985237Y-119744819D02*
X119080475Y-119697200D01*
X119080475Y-119697200D02*
X119128094Y-119601961D01*
X119128094Y-119601961D02*
X119128094Y-119506723D01*
X119128094Y-119506723D02*
X119080475Y-119411485D01*
X119080475Y-119411485D02*
X118985237Y-119363866D01*
X118985237Y-119363866D02*
X118747142Y-119363866D01*
X118747142Y-119363866D02*
X118651904Y-119316247D01*
X118270951Y-118744819D02*
X117604285Y-118744819D01*
X117604285Y-118744819D02*
X118032856Y-119744819D01*
X104359580Y-83333333D02*
X104407200Y-83285714D01*
X104407200Y-83285714D02*
X104454819Y-83142857D01*
X104454819Y-83142857D02*
X104454819Y-83047619D01*
X104454819Y-83047619D02*
X104407200Y-82904762D01*
X104407200Y-82904762D02*
X104311961Y-82809524D01*
X104311961Y-82809524D02*
X104216723Y-82761905D01*
X104216723Y-82761905D02*
X104026247Y-82714286D01*
X104026247Y-82714286D02*
X103883390Y-82714286D01*
X103883390Y-82714286D02*
X103692914Y-82761905D01*
X103692914Y-82761905D02*
X103597676Y-82809524D01*
X103597676Y-82809524D02*
X103502438Y-82904762D01*
X103502438Y-82904762D02*
X103454819Y-83047619D01*
X103454819Y-83047619D02*
X103454819Y-83142857D01*
X103454819Y-83142857D02*
X103502438Y-83285714D01*
X103502438Y-83285714D02*
X103550057Y-83333333D01*
X103788152Y-84190476D02*
X104454819Y-84190476D01*
X103407200Y-83952381D02*
X104121485Y-83714286D01*
X104121485Y-83714286D02*
X104121485Y-84333333D01*
X124359580Y-83333333D02*
X124407200Y-83285714D01*
X124407200Y-83285714D02*
X124454819Y-83142857D01*
X124454819Y-83142857D02*
X124454819Y-83047619D01*
X124454819Y-83047619D02*
X124407200Y-82904762D01*
X124407200Y-82904762D02*
X124311961Y-82809524D01*
X124311961Y-82809524D02*
X124216723Y-82761905D01*
X124216723Y-82761905D02*
X124026247Y-82714286D01*
X124026247Y-82714286D02*
X123883390Y-82714286D01*
X123883390Y-82714286D02*
X123692914Y-82761905D01*
X123692914Y-82761905D02*
X123597676Y-82809524D01*
X123597676Y-82809524D02*
X123502438Y-82904762D01*
X123502438Y-82904762D02*
X123454819Y-83047619D01*
X123454819Y-83047619D02*
X123454819Y-83142857D01*
X123454819Y-83142857D02*
X123502438Y-83285714D01*
X123502438Y-83285714D02*
X123550057Y-83333333D01*
X123454819Y-83666667D02*
X123454819Y-84333333D01*
X123454819Y-84333333D02*
X124454819Y-83904762D01*
X118651904Y-99744819D02*
X118651904Y-99221009D01*
X118651904Y-99221009D02*
X118699523Y-99125771D01*
X118699523Y-99125771D02*
X118794761Y-99078152D01*
X118794761Y-99078152D02*
X118985237Y-99078152D01*
X118985237Y-99078152D02*
X119080475Y-99125771D01*
X118651904Y-99697200D02*
X118747142Y-99744819D01*
X118747142Y-99744819D02*
X118985237Y-99744819D01*
X118985237Y-99744819D02*
X119080475Y-99697200D01*
X119080475Y-99697200D02*
X119128094Y-99601961D01*
X119128094Y-99601961D02*
X119128094Y-99506723D01*
X119128094Y-99506723D02*
X119080475Y-99411485D01*
X119080475Y-99411485D02*
X118985237Y-99363866D01*
X118985237Y-99363866D02*
X118747142Y-99363866D01*
X118747142Y-99363866D02*
X118651904Y-99316247D01*
X117747142Y-98744819D02*
X117937618Y-98744819D01*
X117937618Y-98744819D02*
X118032856Y-98792438D01*
X118032856Y-98792438D02*
X118080475Y-98840057D01*
X118080475Y-98840057D02*
X118175713Y-98982914D01*
X118175713Y-98982914D02*
X118223332Y-99173390D01*
X118223332Y-99173390D02*
X118223332Y-99554342D01*
X118223332Y-99554342D02*
X118175713Y-99649580D01*
X118175713Y-99649580D02*
X118128094Y-99697200D01*
X118128094Y-99697200D02*
X118032856Y-99744819D01*
X118032856Y-99744819D02*
X117842380Y-99744819D01*
X117842380Y-99744819D02*
X117747142Y-99697200D01*
X117747142Y-99697200D02*
X117699523Y-99649580D01*
X117699523Y-99649580D02*
X117651904Y-99554342D01*
X117651904Y-99554342D02*
X117651904Y-99316247D01*
X117651904Y-99316247D02*
X117699523Y-99221009D01*
X117699523Y-99221009D02*
X117747142Y-99173390D01*
X117747142Y-99173390D02*
X117842380Y-99125771D01*
X117842380Y-99125771D02*
X118032856Y-99125771D01*
X118032856Y-99125771D02*
X118128094Y-99173390D01*
X118128094Y-99173390D02*
X118175713Y-99221009D01*
X118175713Y-99221009D02*
X118223332Y-99316247D01*
X140334819Y-81761905D02*
X139334819Y-81761905D01*
X139334819Y-81761905D02*
X139334819Y-82000000D01*
X139334819Y-82000000D02*
X139382438Y-82142857D01*
X139382438Y-82142857D02*
X139477676Y-82238095D01*
X139477676Y-82238095D02*
X139572914Y-82285714D01*
X139572914Y-82285714D02*
X139763390Y-82333333D01*
X139763390Y-82333333D02*
X139906247Y-82333333D01*
X139906247Y-82333333D02*
X140096723Y-82285714D01*
X140096723Y-82285714D02*
X140191961Y-82238095D01*
X140191961Y-82238095D02*
X140287200Y-82142857D01*
X140287200Y-82142857D02*
X140334819Y-82000000D01*
X140334819Y-82000000D02*
X140334819Y-81761905D01*
X139430057Y-82714286D02*
X139382438Y-82761905D01*
X139382438Y-82761905D02*
X139334819Y-82857143D01*
X139334819Y-82857143D02*
X139334819Y-83095238D01*
X139334819Y-83095238D02*
X139382438Y-83190476D01*
X139382438Y-83190476D02*
X139430057Y-83238095D01*
X139430057Y-83238095D02*
X139525295Y-83285714D01*
X139525295Y-83285714D02*
X139620533Y-83285714D01*
X139620533Y-83285714D02*
X139763390Y-83238095D01*
X139763390Y-83238095D02*
X140334819Y-82666667D01*
X140334819Y-82666667D02*
X140334819Y-83285714D01*
X140654819Y-78428095D02*
X139654819Y-78428095D01*
X140654819Y-78999523D02*
X140083390Y-78570952D01*
X139654819Y-78999523D02*
X140226247Y-78428095D01*
X104359580Y-103333333D02*
X104407200Y-103285714D01*
X104407200Y-103285714D02*
X104454819Y-103142857D01*
X104454819Y-103142857D02*
X104454819Y-103047619D01*
X104454819Y-103047619D02*
X104407200Y-102904762D01*
X104407200Y-102904762D02*
X104311961Y-102809524D01*
X104311961Y-102809524D02*
X104216723Y-102761905D01*
X104216723Y-102761905D02*
X104026247Y-102714286D01*
X104026247Y-102714286D02*
X103883390Y-102714286D01*
X103883390Y-102714286D02*
X103692914Y-102761905D01*
X103692914Y-102761905D02*
X103597676Y-102809524D01*
X103597676Y-102809524D02*
X103502438Y-102904762D01*
X103502438Y-102904762D02*
X103454819Y-103047619D01*
X103454819Y-103047619D02*
X103454819Y-103142857D01*
X103454819Y-103142857D02*
X103502438Y-103285714D01*
X103502438Y-103285714D02*
X103550057Y-103333333D01*
X103454819Y-103666667D02*
X103454819Y-104285714D01*
X103454819Y-104285714D02*
X103835771Y-103952381D01*
X103835771Y-103952381D02*
X103835771Y-104095238D01*
X103835771Y-104095238D02*
X103883390Y-104190476D01*
X103883390Y-104190476D02*
X103931009Y-104238095D01*
X103931009Y-104238095D02*
X104026247Y-104285714D01*
X104026247Y-104285714D02*
X104264342Y-104285714D01*
X104264342Y-104285714D02*
X104359580Y-104238095D01*
X104359580Y-104238095D02*
X104407200Y-104190476D01*
X104407200Y-104190476D02*
X104454819Y-104095238D01*
X104454819Y-104095238D02*
X104454819Y-103809524D01*
X104454819Y-103809524D02*
X104407200Y-103714286D01*
X104407200Y-103714286D02*
X104359580Y-103666667D01*
X160334819Y-121571905D02*
X159334819Y-121571905D01*
X159334819Y-121571905D02*
X159334819Y-121810000D01*
X159334819Y-121810000D02*
X159382438Y-121952857D01*
X159382438Y-121952857D02*
X159477676Y-122048095D01*
X159477676Y-122048095D02*
X159572914Y-122095714D01*
X159572914Y-122095714D02*
X159763390Y-122143333D01*
X159763390Y-122143333D02*
X159906247Y-122143333D01*
X159906247Y-122143333D02*
X160096723Y-122095714D01*
X160096723Y-122095714D02*
X160191961Y-122048095D01*
X160191961Y-122048095D02*
X160287200Y-121952857D01*
X160287200Y-121952857D02*
X160334819Y-121810000D01*
X160334819Y-121810000D02*
X160334819Y-121571905D01*
X160334819Y-122619524D02*
X160334819Y-122810000D01*
X160334819Y-122810000D02*
X160287200Y-122905238D01*
X160287200Y-122905238D02*
X160239580Y-122952857D01*
X160239580Y-122952857D02*
X160096723Y-123048095D01*
X160096723Y-123048095D02*
X159906247Y-123095714D01*
X159906247Y-123095714D02*
X159525295Y-123095714D01*
X159525295Y-123095714D02*
X159430057Y-123048095D01*
X159430057Y-123048095D02*
X159382438Y-123000476D01*
X159382438Y-123000476D02*
X159334819Y-122905238D01*
X159334819Y-122905238D02*
X159334819Y-122714762D01*
X159334819Y-122714762D02*
X159382438Y-122619524D01*
X159382438Y-122619524D02*
X159430057Y-122571905D01*
X159430057Y-122571905D02*
X159525295Y-122524286D01*
X159525295Y-122524286D02*
X159763390Y-122524286D01*
X159763390Y-122524286D02*
X159858628Y-122571905D01*
X159858628Y-122571905D02*
X159906247Y-122619524D01*
X159906247Y-122619524D02*
X159953866Y-122714762D01*
X159953866Y-122714762D02*
X159953866Y-122905238D01*
X159953866Y-122905238D02*
X159906247Y-123000476D01*
X159906247Y-123000476D02*
X159858628Y-123048095D01*
X159858628Y-123048095D02*
X159763390Y-123095714D01*
X160654819Y-118238095D02*
X159654819Y-118238095D01*
X160654819Y-118809523D02*
X160083390Y-118380952D01*
X159654819Y-118809523D02*
X160226247Y-118238095D01*
X160654819Y-78238095D02*
X159654819Y-78238095D01*
X160654819Y-78809523D02*
X160083390Y-78380952D01*
X159654819Y-78809523D02*
X160226247Y-78238095D01*
X174880952Y-119231009D02*
X174738095Y-119278628D01*
X174738095Y-119278628D02*
X174690476Y-119326247D01*
X174690476Y-119326247D02*
X174642857Y-119421485D01*
X174642857Y-119421485D02*
X174642857Y-119564342D01*
X174642857Y-119564342D02*
X174690476Y-119659580D01*
X174690476Y-119659580D02*
X174738095Y-119707200D01*
X174738095Y-119707200D02*
X174833333Y-119754819D01*
X174833333Y-119754819D02*
X175214285Y-119754819D01*
X175214285Y-119754819D02*
X175214285Y-118754819D01*
X175214285Y-118754819D02*
X174880952Y-118754819D01*
X174880952Y-118754819D02*
X174785714Y-118802438D01*
X174785714Y-118802438D02*
X174738095Y-118850057D01*
X174738095Y-118850057D02*
X174690476Y-118945295D01*
X174690476Y-118945295D02*
X174690476Y-119040533D01*
X174690476Y-119040533D02*
X174738095Y-119135771D01*
X174738095Y-119135771D02*
X174785714Y-119183390D01*
X174785714Y-119183390D02*
X174880952Y-119231009D01*
X174880952Y-119231009D02*
X175214285Y-119231009D01*
X174309523Y-118754819D02*
X173642857Y-118754819D01*
X173642857Y-118754819D02*
X174309523Y-119754819D01*
X174309523Y-119754819D02*
X173642857Y-119754819D01*
X172738095Y-119754819D02*
X173309523Y-119754819D01*
X173023809Y-119754819D02*
X173023809Y-118754819D01*
X173023809Y-118754819D02*
X173119047Y-118897676D01*
X173119047Y-118897676D02*
X173214285Y-118992914D01*
X173214285Y-118992914D02*
X173309523Y-119040533D01*
X178190951Y-124033866D02*
X177429047Y-124033866D01*
X177809999Y-124414819D02*
X177809999Y-123652914D01*
X104359580Y-123333333D02*
X104407200Y-123285714D01*
X104407200Y-123285714D02*
X104454819Y-123142857D01*
X104454819Y-123142857D02*
X104454819Y-123047619D01*
X104454819Y-123047619D02*
X104407200Y-122904762D01*
X104407200Y-122904762D02*
X104311961Y-122809524D01*
X104311961Y-122809524D02*
X104216723Y-122761905D01*
X104216723Y-122761905D02*
X104026247Y-122714286D01*
X104026247Y-122714286D02*
X103883390Y-122714286D01*
X103883390Y-122714286D02*
X103692914Y-122761905D01*
X103692914Y-122761905D02*
X103597676Y-122809524D01*
X103597676Y-122809524D02*
X103502438Y-122904762D01*
X103502438Y-122904762D02*
X103454819Y-123047619D01*
X103454819Y-123047619D02*
X103454819Y-123142857D01*
X103454819Y-123142857D02*
X103502438Y-123285714D01*
X103502438Y-123285714D02*
X103550057Y-123333333D01*
X103550057Y-123714286D02*
X103502438Y-123761905D01*
X103502438Y-123761905D02*
X103454819Y-123857143D01*
X103454819Y-123857143D02*
X103454819Y-124095238D01*
X103454819Y-124095238D02*
X103502438Y-124190476D01*
X103502438Y-124190476D02*
X103550057Y-124238095D01*
X103550057Y-124238095D02*
X103645295Y-124285714D01*
X103645295Y-124285714D02*
X103740533Y-124285714D01*
X103740533Y-124285714D02*
X103883390Y-124238095D01*
X103883390Y-124238095D02*
X104454819Y-123666667D01*
X104454819Y-123666667D02*
X104454819Y-124285714D01*
X124359580Y-103333333D02*
X124407200Y-103285714D01*
X124407200Y-103285714D02*
X124454819Y-103142857D01*
X124454819Y-103142857D02*
X124454819Y-103047619D01*
X124454819Y-103047619D02*
X124407200Y-102904762D01*
X124407200Y-102904762D02*
X124311961Y-102809524D01*
X124311961Y-102809524D02*
X124216723Y-102761905D01*
X124216723Y-102761905D02*
X124026247Y-102714286D01*
X124026247Y-102714286D02*
X123883390Y-102714286D01*
X123883390Y-102714286D02*
X123692914Y-102761905D01*
X123692914Y-102761905D02*
X123597676Y-102809524D01*
X123597676Y-102809524D02*
X123502438Y-102904762D01*
X123502438Y-102904762D02*
X123454819Y-103047619D01*
X123454819Y-103047619D02*
X123454819Y-103142857D01*
X123454819Y-103142857D02*
X123502438Y-103285714D01*
X123502438Y-103285714D02*
X123550057Y-103333333D01*
X123454819Y-104190476D02*
X123454819Y-104000000D01*
X123454819Y-104000000D02*
X123502438Y-103904762D01*
X123502438Y-103904762D02*
X123550057Y-103857143D01*
X123550057Y-103857143D02*
X123692914Y-103761905D01*
X123692914Y-103761905D02*
X123883390Y-103714286D01*
X123883390Y-103714286D02*
X124264342Y-103714286D01*
X124264342Y-103714286D02*
X124359580Y-103761905D01*
X124359580Y-103761905D02*
X124407200Y-103809524D01*
X124407200Y-103809524D02*
X124454819Y-103904762D01*
X124454819Y-103904762D02*
X124454819Y-104095238D01*
X124454819Y-104095238D02*
X124407200Y-104190476D01*
X124407200Y-104190476D02*
X124359580Y-104238095D01*
X124359580Y-104238095D02*
X124264342Y-104285714D01*
X124264342Y-104285714D02*
X124026247Y-104285714D01*
X124026247Y-104285714D02*
X123931009Y-104238095D01*
X123931009Y-104238095D02*
X123883390Y-104190476D01*
X123883390Y-104190476D02*
X123835771Y-104095238D01*
X123835771Y-104095238D02*
X123835771Y-103904762D01*
X123835771Y-103904762D02*
X123883390Y-103809524D01*
X123883390Y-103809524D02*
X123931009Y-103761905D01*
X123931009Y-103761905D02*
X124026247Y-103714286D01*
X138651904Y-119744819D02*
X138651904Y-119221009D01*
X138651904Y-119221009D02*
X138699523Y-119125771D01*
X138699523Y-119125771D02*
X138794761Y-119078152D01*
X138794761Y-119078152D02*
X138985237Y-119078152D01*
X138985237Y-119078152D02*
X139080475Y-119125771D01*
X138651904Y-119697200D02*
X138747142Y-119744819D01*
X138747142Y-119744819D02*
X138985237Y-119744819D01*
X138985237Y-119744819D02*
X139080475Y-119697200D01*
X139080475Y-119697200D02*
X139128094Y-119601961D01*
X139128094Y-119601961D02*
X139128094Y-119506723D01*
X139128094Y-119506723D02*
X139080475Y-119411485D01*
X139080475Y-119411485D02*
X138985237Y-119363866D01*
X138985237Y-119363866D02*
X138747142Y-119363866D01*
X138747142Y-119363866D02*
X138651904Y-119316247D01*
X138223332Y-118840057D02*
X138175713Y-118792438D01*
X138175713Y-118792438D02*
X138080475Y-118744819D01*
X138080475Y-118744819D02*
X137842380Y-118744819D01*
X137842380Y-118744819D02*
X137747142Y-118792438D01*
X137747142Y-118792438D02*
X137699523Y-118840057D01*
X137699523Y-118840057D02*
X137651904Y-118935295D01*
X137651904Y-118935295D02*
X137651904Y-119030533D01*
X137651904Y-119030533D02*
X137699523Y-119173390D01*
X137699523Y-119173390D02*
X138270951Y-119744819D01*
X138270951Y-119744819D02*
X137651904Y-119744819D01*
X140334819Y-121761905D02*
X139334819Y-121761905D01*
X139334819Y-121761905D02*
X139334819Y-122000000D01*
X139334819Y-122000000D02*
X139382438Y-122142857D01*
X139382438Y-122142857D02*
X139477676Y-122238095D01*
X139477676Y-122238095D02*
X139572914Y-122285714D01*
X139572914Y-122285714D02*
X139763390Y-122333333D01*
X139763390Y-122333333D02*
X139906247Y-122333333D01*
X139906247Y-122333333D02*
X140096723Y-122285714D01*
X140096723Y-122285714D02*
X140191961Y-122238095D01*
X140191961Y-122238095D02*
X140287200Y-122142857D01*
X140287200Y-122142857D02*
X140334819Y-122000000D01*
X140334819Y-122000000D02*
X140334819Y-121761905D01*
X139763390Y-122904762D02*
X139715771Y-122809524D01*
X139715771Y-122809524D02*
X139668152Y-122761905D01*
X139668152Y-122761905D02*
X139572914Y-122714286D01*
X139572914Y-122714286D02*
X139525295Y-122714286D01*
X139525295Y-122714286D02*
X139430057Y-122761905D01*
X139430057Y-122761905D02*
X139382438Y-122809524D01*
X139382438Y-122809524D02*
X139334819Y-122904762D01*
X139334819Y-122904762D02*
X139334819Y-123095238D01*
X139334819Y-123095238D02*
X139382438Y-123190476D01*
X139382438Y-123190476D02*
X139430057Y-123238095D01*
X139430057Y-123238095D02*
X139525295Y-123285714D01*
X139525295Y-123285714D02*
X139572914Y-123285714D01*
X139572914Y-123285714D02*
X139668152Y-123238095D01*
X139668152Y-123238095D02*
X139715771Y-123190476D01*
X139715771Y-123190476D02*
X139763390Y-123095238D01*
X139763390Y-123095238D02*
X139763390Y-122904762D01*
X139763390Y-122904762D02*
X139811009Y-122809524D01*
X139811009Y-122809524D02*
X139858628Y-122761905D01*
X139858628Y-122761905D02*
X139953866Y-122714286D01*
X139953866Y-122714286D02*
X140144342Y-122714286D01*
X140144342Y-122714286D02*
X140239580Y-122761905D01*
X140239580Y-122761905D02*
X140287200Y-122809524D01*
X140287200Y-122809524D02*
X140334819Y-122904762D01*
X140334819Y-122904762D02*
X140334819Y-123095238D01*
X140334819Y-123095238D02*
X140287200Y-123190476D01*
X140287200Y-123190476D02*
X140239580Y-123238095D01*
X140239580Y-123238095D02*
X140144342Y-123285714D01*
X140144342Y-123285714D02*
X139953866Y-123285714D01*
X139953866Y-123285714D02*
X139858628Y-123238095D01*
X139858628Y-123238095D02*
X139811009Y-123190476D01*
X139811009Y-123190476D02*
X139763390Y-123095238D01*
X140654819Y-118428095D02*
X139654819Y-118428095D01*
X140654819Y-118999523D02*
X140083390Y-118570952D01*
X139654819Y-118999523D02*
X140226247Y-118428095D01*
D11*
X180693798Y-96999999D02*
X179693798Y-96999999D01*
X179193798Y-96999999D02*
X179265227Y-96999523D01*
X179265227Y-96999523D02*
X179336655Y-96999999D01*
X179336655Y-96999999D02*
X179265227Y-97000476D01*
X179265227Y-97000476D02*
X179193798Y-96999999D01*
X179193798Y-96999999D02*
X179336655Y-96999999D01*
D10*
X158651904Y-99744819D02*
X158651904Y-99221009D01*
X158651904Y-99221009D02*
X158699523Y-99125771D01*
X158699523Y-99125771D02*
X158794761Y-99078152D01*
X158794761Y-99078152D02*
X158985237Y-99078152D01*
X158985237Y-99078152D02*
X159080475Y-99125771D01*
X158651904Y-99697200D02*
X158747142Y-99744819D01*
X158747142Y-99744819D02*
X158985237Y-99744819D01*
X158985237Y-99744819D02*
X159080475Y-99697200D01*
X159080475Y-99697200D02*
X159128094Y-99601961D01*
X159128094Y-99601961D02*
X159128094Y-99506723D01*
X159128094Y-99506723D02*
X159080475Y-99411485D01*
X159080475Y-99411485D02*
X158985237Y-99363866D01*
X158985237Y-99363866D02*
X158747142Y-99363866D01*
X158747142Y-99363866D02*
X158651904Y-99316247D01*
X157747142Y-99078152D02*
X157747142Y-99744819D01*
X157985237Y-98697200D02*
X158223332Y-99411485D01*
X158223332Y-99411485D02*
X157604285Y-99411485D01*
X138651904Y-99744819D02*
X138651904Y-99221009D01*
X138651904Y-99221009D02*
X138699523Y-99125771D01*
X138699523Y-99125771D02*
X138794761Y-99078152D01*
X138794761Y-99078152D02*
X138985237Y-99078152D01*
X138985237Y-99078152D02*
X139080475Y-99125771D01*
X138651904Y-99697200D02*
X138747142Y-99744819D01*
X138747142Y-99744819D02*
X138985237Y-99744819D01*
X138985237Y-99744819D02*
X139080475Y-99697200D01*
X139080475Y-99697200D02*
X139128094Y-99601961D01*
X139128094Y-99601961D02*
X139128094Y-99506723D01*
X139128094Y-99506723D02*
X139080475Y-99411485D01*
X139080475Y-99411485D02*
X138985237Y-99363866D01*
X138985237Y-99363866D02*
X138747142Y-99363866D01*
X138747142Y-99363866D02*
X138651904Y-99316247D01*
X138270951Y-98744819D02*
X137651904Y-98744819D01*
X137651904Y-98744819D02*
X137985237Y-99125771D01*
X137985237Y-99125771D02*
X137842380Y-99125771D01*
X137842380Y-99125771D02*
X137747142Y-99173390D01*
X137747142Y-99173390D02*
X137699523Y-99221009D01*
X137699523Y-99221009D02*
X137651904Y-99316247D01*
X137651904Y-99316247D02*
X137651904Y-99554342D01*
X137651904Y-99554342D02*
X137699523Y-99649580D01*
X137699523Y-99649580D02*
X137747142Y-99697200D01*
X137747142Y-99697200D02*
X137842380Y-99744819D01*
X137842380Y-99744819D02*
X138128094Y-99744819D01*
X138128094Y-99744819D02*
X138223332Y-99697200D01*
X138223332Y-99697200D02*
X138270951Y-99649580D01*
X120334819Y-101451905D02*
X119334819Y-101451905D01*
X119334819Y-101451905D02*
X119334819Y-101690000D01*
X119334819Y-101690000D02*
X119382438Y-101832857D01*
X119382438Y-101832857D02*
X119477676Y-101928095D01*
X119477676Y-101928095D02*
X119572914Y-101975714D01*
X119572914Y-101975714D02*
X119763390Y-102023333D01*
X119763390Y-102023333D02*
X119906247Y-102023333D01*
X119906247Y-102023333D02*
X120096723Y-101975714D01*
X120096723Y-101975714D02*
X120191961Y-101928095D01*
X120191961Y-101928095D02*
X120287200Y-101832857D01*
X120287200Y-101832857D02*
X120334819Y-101690000D01*
X120334819Y-101690000D02*
X120334819Y-101451905D01*
X119668152Y-102880476D02*
X120334819Y-102880476D01*
X119287200Y-102642381D02*
X120001485Y-102404286D01*
X120001485Y-102404286D02*
X120001485Y-103023333D01*
X120654819Y-98118095D02*
X119654819Y-98118095D01*
X120654819Y-98689523D02*
X120083390Y-98260952D01*
X119654819Y-98689523D02*
X120226247Y-98118095D01*
D12*
X125499785Y-58193915D02*
X125499785Y-59408201D01*
X125499785Y-59408201D02*
X125499832Y-59551058D01*
X125499832Y-59551058D02*
X125499880Y-59622487D01*
X125499880Y-59622487D02*
X125499975Y-59693915D01*
X125499975Y-59693915D02*
X125500118Y-59693915D01*
X125500118Y-59693915D02*
X125500213Y-59622487D01*
X125499785Y-59122487D02*
X125499880Y-59193915D01*
X125499880Y-59193915D02*
X125500071Y-59193915D01*
X125500071Y-59193915D02*
X125500166Y-59122487D01*
X125500166Y-59122487D02*
X125500213Y-59051058D01*
X125500213Y-59051058D02*
X125500261Y-58908201D01*
X125500261Y-58908201D02*
X125500261Y-58479629D01*
X125500261Y-58479629D02*
X125500213Y-58336772D01*
X125500213Y-58336772D02*
X125500166Y-58265344D01*
X125500166Y-58265344D02*
X125500071Y-58193915D01*
X125500071Y-58193915D02*
X125499880Y-58193915D01*
X125499880Y-58193915D02*
X125499785Y-58265344D01*
D10*
X159128095Y-79744819D02*
X159128095Y-79221009D01*
X159128095Y-79221009D02*
X159175714Y-79125771D01*
X159175714Y-79125771D02*
X159270952Y-79078152D01*
X159270952Y-79078152D02*
X159461428Y-79078152D01*
X159461428Y-79078152D02*
X159556666Y-79125771D01*
X159128095Y-79697200D02*
X159223333Y-79744819D01*
X159223333Y-79744819D02*
X159461428Y-79744819D01*
X159461428Y-79744819D02*
X159556666Y-79697200D01*
X159556666Y-79697200D02*
X159604285Y-79601961D01*
X159604285Y-79601961D02*
X159604285Y-79506723D01*
X159604285Y-79506723D02*
X159556666Y-79411485D01*
X159556666Y-79411485D02*
X159461428Y-79363866D01*
X159461428Y-79363866D02*
X159223333Y-79363866D01*
X159223333Y-79363866D02*
X159128095Y-79316247D01*
X158128095Y-79744819D02*
X158699523Y-79744819D01*
X158413809Y-79744819D02*
X158413809Y-78744819D01*
X158413809Y-78744819D02*
X158509047Y-78887676D01*
X158509047Y-78887676D02*
X158604285Y-78982914D01*
X158604285Y-78982914D02*
X158699523Y-79030533D01*
X157509047Y-78744819D02*
X157413809Y-78744819D01*
X157413809Y-78744819D02*
X157318571Y-78792438D01*
X157318571Y-78792438D02*
X157270952Y-78840057D01*
X157270952Y-78840057D02*
X157223333Y-78935295D01*
X157223333Y-78935295D02*
X157175714Y-79125771D01*
X157175714Y-79125771D02*
X157175714Y-79363866D01*
X157175714Y-79363866D02*
X157223333Y-79554342D01*
X157223333Y-79554342D02*
X157270952Y-79649580D01*
X157270952Y-79649580D02*
X157318571Y-79697200D01*
X157318571Y-79697200D02*
X157413809Y-79744819D01*
X157413809Y-79744819D02*
X157509047Y-79744819D01*
X157509047Y-79744819D02*
X157604285Y-79697200D01*
X157604285Y-79697200D02*
X157651904Y-79649580D01*
X157651904Y-79649580D02*
X157699523Y-79554342D01*
X157699523Y-79554342D02*
X157747142Y-79363866D01*
X157747142Y-79363866D02*
X157747142Y-79125771D01*
X157747142Y-79125771D02*
X157699523Y-78935295D01*
X157699523Y-78935295D02*
X157651904Y-78840057D01*
X157651904Y-78840057D02*
X157604285Y-78792438D01*
X157604285Y-78792438D02*
X157509047Y-78744819D01*
X120334819Y-121451905D02*
X119334819Y-121451905D01*
X119334819Y-121451905D02*
X119334819Y-121690000D01*
X119334819Y-121690000D02*
X119382438Y-121832857D01*
X119382438Y-121832857D02*
X119477676Y-121928095D01*
X119477676Y-121928095D02*
X119572914Y-121975714D01*
X119572914Y-121975714D02*
X119763390Y-122023333D01*
X119763390Y-122023333D02*
X119906247Y-122023333D01*
X119906247Y-122023333D02*
X120096723Y-121975714D01*
X120096723Y-121975714D02*
X120191961Y-121928095D01*
X120191961Y-121928095D02*
X120287200Y-121832857D01*
X120287200Y-121832857D02*
X120334819Y-121690000D01*
X120334819Y-121690000D02*
X120334819Y-121451905D01*
X119334819Y-122356667D02*
X119334819Y-123023333D01*
X119334819Y-123023333D02*
X120334819Y-122594762D01*
X120654819Y-118118095D02*
X119654819Y-118118095D01*
X120654819Y-118689523D02*
X120083390Y-118260952D01*
X119654819Y-118689523D02*
X120226247Y-118118095D01*
X124574819Y-81451905D02*
X123574819Y-81451905D01*
X123574819Y-81451905D02*
X123574819Y-81690000D01*
X123574819Y-81690000D02*
X123622438Y-81832857D01*
X123622438Y-81832857D02*
X123717676Y-81928095D01*
X123717676Y-81928095D02*
X123812914Y-81975714D01*
X123812914Y-81975714D02*
X124003390Y-82023333D01*
X124003390Y-82023333D02*
X124146247Y-82023333D01*
X124146247Y-82023333D02*
X124336723Y-81975714D01*
X124336723Y-81975714D02*
X124431961Y-81928095D01*
X124431961Y-81928095D02*
X124527200Y-81832857D01*
X124527200Y-81832857D02*
X124574819Y-81690000D01*
X124574819Y-81690000D02*
X124574819Y-81451905D01*
X124574819Y-82975714D02*
X124574819Y-82404286D01*
X124574819Y-82690000D02*
X123574819Y-82690000D01*
X123574819Y-82690000D02*
X123717676Y-82594762D01*
X123717676Y-82594762D02*
X123812914Y-82499524D01*
X123812914Y-82499524D02*
X123860533Y-82404286D01*
X124254819Y-85738095D02*
X123254819Y-85738095D01*
X124254819Y-86309523D02*
X123683390Y-85880952D01*
X123254819Y-86309523D02*
X123826247Y-85738095D01*
X149359580Y-123333333D02*
X149407200Y-123285714D01*
X149407200Y-123285714D02*
X149454819Y-123142857D01*
X149454819Y-123142857D02*
X149454819Y-123047619D01*
X149454819Y-123047619D02*
X149407200Y-122904762D01*
X149407200Y-122904762D02*
X149311961Y-122809524D01*
X149311961Y-122809524D02*
X149216723Y-122761905D01*
X149216723Y-122761905D02*
X149026247Y-122714286D01*
X149026247Y-122714286D02*
X148883390Y-122714286D01*
X148883390Y-122714286D02*
X148692914Y-122761905D01*
X148692914Y-122761905D02*
X148597676Y-122809524D01*
X148597676Y-122809524D02*
X148502438Y-122904762D01*
X148502438Y-122904762D02*
X148454819Y-123047619D01*
X148454819Y-123047619D02*
X148454819Y-123142857D01*
X148454819Y-123142857D02*
X148502438Y-123285714D01*
X148502438Y-123285714D02*
X148550057Y-123333333D01*
X149454819Y-123809524D02*
X149454819Y-124000000D01*
X149454819Y-124000000D02*
X149407200Y-124095238D01*
X149407200Y-124095238D02*
X149359580Y-124142857D01*
X149359580Y-124142857D02*
X149216723Y-124238095D01*
X149216723Y-124238095D02*
X149026247Y-124285714D01*
X149026247Y-124285714D02*
X148645295Y-124285714D01*
X148645295Y-124285714D02*
X148550057Y-124238095D01*
X148550057Y-124238095D02*
X148502438Y-124190476D01*
X148502438Y-124190476D02*
X148454819Y-124095238D01*
X148454819Y-124095238D02*
X148454819Y-123904762D01*
X148454819Y-123904762D02*
X148502438Y-123809524D01*
X148502438Y-123809524D02*
X148550057Y-123761905D01*
X148550057Y-123761905D02*
X148645295Y-123714286D01*
X148645295Y-123714286D02*
X148883390Y-123714286D01*
X148883390Y-123714286D02*
X148978628Y-123761905D01*
X148978628Y-123761905D02*
X149026247Y-123809524D01*
X149026247Y-123809524D02*
X149073866Y-123904762D01*
X149073866Y-123904762D02*
X149073866Y-124095238D01*
X149073866Y-124095238D02*
X149026247Y-124190476D01*
X149026247Y-124190476D02*
X148978628Y-124238095D01*
X148978628Y-124238095D02*
X148883390Y-124285714D01*
X143859580Y-103333333D02*
X143907200Y-103285714D01*
X143907200Y-103285714D02*
X143954819Y-103142857D01*
X143954819Y-103142857D02*
X143954819Y-103047619D01*
X143954819Y-103047619D02*
X143907200Y-102904762D01*
X143907200Y-102904762D02*
X143811961Y-102809524D01*
X143811961Y-102809524D02*
X143716723Y-102761905D01*
X143716723Y-102761905D02*
X143526247Y-102714286D01*
X143526247Y-102714286D02*
X143383390Y-102714286D01*
X143383390Y-102714286D02*
X143192914Y-102761905D01*
X143192914Y-102761905D02*
X143097676Y-102809524D01*
X143097676Y-102809524D02*
X143002438Y-102904762D01*
X143002438Y-102904762D02*
X142954819Y-103047619D01*
X142954819Y-103047619D02*
X142954819Y-103142857D01*
X142954819Y-103142857D02*
X143002438Y-103285714D01*
X143002438Y-103285714D02*
X143050057Y-103333333D01*
X143383390Y-103904762D02*
X143335771Y-103809524D01*
X143335771Y-103809524D02*
X143288152Y-103761905D01*
X143288152Y-103761905D02*
X143192914Y-103714286D01*
X143192914Y-103714286D02*
X143145295Y-103714286D01*
X143145295Y-103714286D02*
X143050057Y-103761905D01*
X143050057Y-103761905D02*
X143002438Y-103809524D01*
X143002438Y-103809524D02*
X142954819Y-103904762D01*
X142954819Y-103904762D02*
X142954819Y-104095238D01*
X142954819Y-104095238D02*
X143002438Y-104190476D01*
X143002438Y-104190476D02*
X143050057Y-104238095D01*
X143050057Y-104238095D02*
X143145295Y-104285714D01*
X143145295Y-104285714D02*
X143192914Y-104285714D01*
X143192914Y-104285714D02*
X143288152Y-104238095D01*
X143288152Y-104238095D02*
X143335771Y-104190476D01*
X143335771Y-104190476D02*
X143383390Y-104095238D01*
X143383390Y-104095238D02*
X143383390Y-103904762D01*
X143383390Y-103904762D02*
X143431009Y-103809524D01*
X143431009Y-103809524D02*
X143478628Y-103761905D01*
X143478628Y-103761905D02*
X143573866Y-103714286D01*
X143573866Y-103714286D02*
X143764342Y-103714286D01*
X143764342Y-103714286D02*
X143859580Y-103761905D01*
X143859580Y-103761905D02*
X143907200Y-103809524D01*
X143907200Y-103809524D02*
X143954819Y-103904762D01*
X143954819Y-103904762D02*
X143954819Y-104095238D01*
X143954819Y-104095238D02*
X143907200Y-104190476D01*
X143907200Y-104190476D02*
X143859580Y-104238095D01*
X143859580Y-104238095D02*
X143764342Y-104285714D01*
X143764342Y-104285714D02*
X143573866Y-104285714D01*
X143573866Y-104285714D02*
X143478628Y-104238095D01*
X143478628Y-104238095D02*
X143431009Y-104190476D01*
X143431009Y-104190476D02*
X143383390Y-104095238D01*
X140334819Y-101761905D02*
X139334819Y-101761905D01*
X139334819Y-101761905D02*
X139334819Y-102000000D01*
X139334819Y-102000000D02*
X139382438Y-102142857D01*
X139382438Y-102142857D02*
X139477676Y-102238095D01*
X139477676Y-102238095D02*
X139572914Y-102285714D01*
X139572914Y-102285714D02*
X139763390Y-102333333D01*
X139763390Y-102333333D02*
X139906247Y-102333333D01*
X139906247Y-102333333D02*
X140096723Y-102285714D01*
X140096723Y-102285714D02*
X140191961Y-102238095D01*
X140191961Y-102238095D02*
X140287200Y-102142857D01*
X140287200Y-102142857D02*
X140334819Y-102000000D01*
X140334819Y-102000000D02*
X140334819Y-101761905D01*
X139334819Y-103238095D02*
X139334819Y-102761905D01*
X139334819Y-102761905D02*
X139811009Y-102714286D01*
X139811009Y-102714286D02*
X139763390Y-102761905D01*
X139763390Y-102761905D02*
X139715771Y-102857143D01*
X139715771Y-102857143D02*
X139715771Y-103095238D01*
X139715771Y-103095238D02*
X139763390Y-103190476D01*
X139763390Y-103190476D02*
X139811009Y-103238095D01*
X139811009Y-103238095D02*
X139906247Y-103285714D01*
X139906247Y-103285714D02*
X140144342Y-103285714D01*
X140144342Y-103285714D02*
X140239580Y-103238095D01*
X140239580Y-103238095D02*
X140287200Y-103190476D01*
X140287200Y-103190476D02*
X140334819Y-103095238D01*
X140334819Y-103095238D02*
X140334819Y-102857143D01*
X140334819Y-102857143D02*
X140287200Y-102761905D01*
X140287200Y-102761905D02*
X140239580Y-102714286D01*
X140654819Y-98428095D02*
X139654819Y-98428095D01*
X140654819Y-98999523D02*
X140083390Y-98570952D01*
X139654819Y-98999523D02*
X140226247Y-98428095D01*
X158651904Y-119744819D02*
X158651904Y-119221009D01*
X158651904Y-119221009D02*
X158699523Y-119125771D01*
X158699523Y-119125771D02*
X158794761Y-119078152D01*
X158794761Y-119078152D02*
X158985237Y-119078152D01*
X158985237Y-119078152D02*
X159080475Y-119125771D01*
X158651904Y-119697200D02*
X158747142Y-119744819D01*
X158747142Y-119744819D02*
X158985237Y-119744819D01*
X158985237Y-119744819D02*
X159080475Y-119697200D01*
X159080475Y-119697200D02*
X159128094Y-119601961D01*
X159128094Y-119601961D02*
X159128094Y-119506723D01*
X159128094Y-119506723D02*
X159080475Y-119411485D01*
X159080475Y-119411485D02*
X158985237Y-119363866D01*
X158985237Y-119363866D02*
X158747142Y-119363866D01*
X158747142Y-119363866D02*
X158651904Y-119316247D01*
X157699523Y-118744819D02*
X158175713Y-118744819D01*
X158175713Y-118744819D02*
X158223332Y-119221009D01*
X158223332Y-119221009D02*
X158175713Y-119173390D01*
X158175713Y-119173390D02*
X158080475Y-119125771D01*
X158080475Y-119125771D02*
X157842380Y-119125771D01*
X157842380Y-119125771D02*
X157747142Y-119173390D01*
X157747142Y-119173390D02*
X157699523Y-119221009D01*
X157699523Y-119221009D02*
X157651904Y-119316247D01*
X157651904Y-119316247D02*
X157651904Y-119554342D01*
X157651904Y-119554342D02*
X157699523Y-119649580D01*
X157699523Y-119649580D02*
X157747142Y-119697200D01*
X157747142Y-119697200D02*
X157842380Y-119744819D01*
X157842380Y-119744819D02*
X158080475Y-119744819D01*
X158080475Y-119744819D02*
X158175713Y-119697200D01*
X158175713Y-119697200D02*
X158223332Y-119649580D01*
X138651904Y-79744819D02*
X138651904Y-79221009D01*
X138651904Y-79221009D02*
X138699523Y-79125771D01*
X138699523Y-79125771D02*
X138794761Y-79078152D01*
X138794761Y-79078152D02*
X138985237Y-79078152D01*
X138985237Y-79078152D02*
X139080475Y-79125771D01*
X138651904Y-79697200D02*
X138747142Y-79744819D01*
X138747142Y-79744819D02*
X138985237Y-79744819D01*
X138985237Y-79744819D02*
X139080475Y-79697200D01*
X139080475Y-79697200D02*
X139128094Y-79601961D01*
X139128094Y-79601961D02*
X139128094Y-79506723D01*
X139128094Y-79506723D02*
X139080475Y-79411485D01*
X139080475Y-79411485D02*
X138985237Y-79363866D01*
X138985237Y-79363866D02*
X138747142Y-79363866D01*
X138747142Y-79363866D02*
X138651904Y-79316247D01*
X138128094Y-79744819D02*
X137937618Y-79744819D01*
X137937618Y-79744819D02*
X137842380Y-79697200D01*
X137842380Y-79697200D02*
X137794761Y-79649580D01*
X137794761Y-79649580D02*
X137699523Y-79506723D01*
X137699523Y-79506723D02*
X137651904Y-79316247D01*
X137651904Y-79316247D02*
X137651904Y-78935295D01*
X137651904Y-78935295D02*
X137699523Y-78840057D01*
X137699523Y-78840057D02*
X137747142Y-78792438D01*
X137747142Y-78792438D02*
X137842380Y-78744819D01*
X137842380Y-78744819D02*
X138032856Y-78744819D01*
X138032856Y-78744819D02*
X138128094Y-78792438D01*
X138128094Y-78792438D02*
X138175713Y-78840057D01*
X138175713Y-78840057D02*
X138223332Y-78935295D01*
X138223332Y-78935295D02*
X138223332Y-79173390D01*
X138223332Y-79173390D02*
X138175713Y-79268628D01*
X138175713Y-79268628D02*
X138128094Y-79316247D01*
X138128094Y-79316247D02*
X138032856Y-79363866D01*
X138032856Y-79363866D02*
X137842380Y-79363866D01*
X137842380Y-79363866D02*
X137747142Y-79316247D01*
X137747142Y-79316247D02*
X137699523Y-79268628D01*
X137699523Y-79268628D02*
X137651904Y-79173390D01*
%TO.C,D6*%
D13*
X160880000Y-100790000D02*
X163120000Y-100790000D01*
X160880000Y-100910000D02*
X163120000Y-100910000D01*
X160880000Y-101030000D02*
X163120000Y-101030000D01*
X162000000Y-99540000D02*
X162000000Y-100190000D01*
X162000000Y-105080000D02*
X162000000Y-104430000D01*
X160880000Y-100190000D02*
X163120000Y-100190000D01*
X163120000Y-104430000D01*
X160880000Y-104430000D01*
X160880000Y-100190000D01*
%TO.C,C10*%
X145130000Y-80880000D02*
X145130000Y-86120000D01*
X145130000Y-86120000D02*
X145467000Y-86120000D01*
X145467000Y-80880000D02*
X145130000Y-80880000D01*
X147533000Y-86120000D02*
X147870000Y-86120000D01*
X147870000Y-80880000D02*
X147533000Y-80880000D01*
X147870000Y-86120000D02*
X147870000Y-80880000D01*
%TO.C,C5*%
X125130000Y-120880000D02*
X125130000Y-126120000D01*
X125130000Y-126120000D02*
X125467000Y-126120000D01*
X125467000Y-120880000D02*
X125130000Y-120880000D01*
X127533000Y-126120000D02*
X127870000Y-126120000D01*
X127870000Y-120880000D02*
X127533000Y-120880000D01*
X127870000Y-126120000D02*
X127870000Y-120880000D01*
%TO.C,a8*%
D10*
X108054824Y-77089780D02*
X108054824Y-76289780D01*
X108054824Y-79939780D02*
X108054824Y-80179780D01*
X110054824Y-74289780D02*
X115954824Y-74289780D01*
X117454824Y-74289780D02*
X119004824Y-74289780D01*
X118504824Y-78339780D02*
X113940000Y-78339780D01*
X119004824Y-74289780D02*
X119004824Y-74519780D01*
X119004824Y-77369780D02*
X119004824Y-77839780D01*
X108054824Y-76289780D02*
G75*
G02*
X110054824Y-74289780I2000004J-4D01*
G01*
X111645678Y-80179780D02*
G75*
G02*
X113940000Y-78339780I2293456J-509332D01*
G01*
X119004824Y-77839780D02*
G75*
G02*
X118504824Y-78339780I-500001J1D01*
G01*
%TO.C,a7*%
X108054824Y-117089780D02*
X108054824Y-116289780D01*
X108054824Y-119939780D02*
X108054824Y-120179780D01*
X110054824Y-114289780D02*
X115954824Y-114289780D01*
X117454824Y-114289780D02*
X119004824Y-114289780D01*
X118504824Y-118339780D02*
X113940000Y-118339780D01*
X119004824Y-114289780D02*
X119004824Y-114519780D01*
X119004824Y-117369780D02*
X119004824Y-117839780D01*
X108054824Y-116289780D02*
G75*
G02*
X110054824Y-114289780I2000004J-4D01*
G01*
X111645678Y-120179780D02*
G75*
G02*
X113940000Y-118339780I2293456J-509332D01*
G01*
X119004824Y-117839780D02*
G75*
G02*
X118504824Y-118339780I-500001J1D01*
G01*
%TO.C,C4*%
D13*
X105130000Y-80880000D02*
X105130000Y-86120000D01*
X105130000Y-86120000D02*
X105467000Y-86120000D01*
X105467000Y-80880000D02*
X105130000Y-80880000D01*
X107533000Y-86120000D02*
X107870000Y-86120000D01*
X107870000Y-80880000D02*
X107533000Y-80880000D01*
X107870000Y-86120000D02*
X107870000Y-80880000D01*
%TO.C,C7*%
X125130000Y-80880000D02*
X125130000Y-86120000D01*
X125130000Y-86120000D02*
X125467000Y-86120000D01*
X125467000Y-80880000D02*
X125130000Y-80880000D01*
X127533000Y-86120000D02*
X127870000Y-86120000D01*
X127870000Y-80880000D02*
X127533000Y-80880000D01*
X127870000Y-86120000D02*
X127870000Y-80880000D01*
%TO.C,a6*%
D10*
X108054824Y-97089780D02*
X108054824Y-96289780D01*
X108054824Y-99939780D02*
X108054824Y-100179780D01*
X110054824Y-94289780D02*
X115954824Y-94289780D01*
X117454824Y-94289780D02*
X119004824Y-94289780D01*
X118504824Y-98339780D02*
X113940000Y-98339780D01*
X119004824Y-94289780D02*
X119004824Y-94519780D01*
X119004824Y-97369780D02*
X119004824Y-97839780D01*
X108054824Y-96289780D02*
G75*
G02*
X110054824Y-94289780I2000004J-4D01*
G01*
X111645678Y-100179780D02*
G75*
G02*
X113940000Y-98339780I2293456J-509332D01*
G01*
X119004824Y-97839780D02*
G75*
G02*
X118504824Y-98339780I-500001J1D01*
G01*
%TO.C,D2*%
D13*
X140880000Y-80980000D02*
X143120000Y-80980000D01*
X140880000Y-81100000D02*
X143120000Y-81100000D01*
X140880000Y-81220000D02*
X143120000Y-81220000D01*
X142000000Y-79730000D02*
X142000000Y-80380000D01*
X142000000Y-85270000D02*
X142000000Y-84620000D01*
X140880000Y-80380000D02*
X143120000Y-80380000D01*
X143120000Y-84620000D01*
X140880000Y-84620000D01*
X140880000Y-80380000D01*
%TO.C,C3*%
X105130000Y-100880000D02*
X105130000Y-106120000D01*
X105130000Y-106120000D02*
X105467000Y-106120000D01*
X105467000Y-100880000D02*
X105130000Y-100880000D01*
X107533000Y-106120000D02*
X107870000Y-106120000D01*
X107870000Y-100880000D02*
X107533000Y-100880000D01*
X107870000Y-106120000D02*
X107870000Y-100880000D01*
%TO.C,D9*%
X160880000Y-120790000D02*
X163120000Y-120790000D01*
X160880000Y-120910000D02*
X163120000Y-120910000D01*
X160880000Y-121030000D02*
X163120000Y-121030000D01*
X162000000Y-119540000D02*
X162000000Y-120190000D01*
X162000000Y-125080000D02*
X162000000Y-124430000D01*
X160880000Y-120190000D02*
X163120000Y-120190000D01*
X163120000Y-124430000D01*
X160880000Y-124430000D01*
X160880000Y-120190000D01*
%TO.C,D3*%
X160880000Y-80790000D02*
X163120000Y-80790000D01*
X160880000Y-80910000D02*
X163120000Y-80910000D01*
X160880000Y-81030000D02*
X163120000Y-81030000D01*
X162000000Y-79540000D02*
X162000000Y-80190000D01*
X162000000Y-85080000D02*
X162000000Y-84430000D01*
X160880000Y-80190000D02*
X163120000Y-80190000D01*
X163120000Y-84430000D01*
X160880000Y-84430000D01*
X160880000Y-80190000D01*
%TO.C,BZ1*%
X180100000Y-126500000D02*
G75*
G02*
X167900000Y-126500000I-6100000J0D01*
G01*
X167900000Y-126500000D02*
G75*
G02*
X180100000Y-126500000I6100000J0D01*
G01*
%TO.C,C2*%
X105130000Y-120880000D02*
X105130000Y-126120000D01*
X105130000Y-126120000D02*
X105467000Y-126120000D01*
X105467000Y-120880000D02*
X105130000Y-120880000D01*
X107533000Y-126120000D02*
X107870000Y-126120000D01*
X107870000Y-120880000D02*
X107533000Y-120880000D01*
X107870000Y-126120000D02*
X107870000Y-120880000D01*
%TO.C,C6*%
X125130000Y-100880000D02*
X125130000Y-106120000D01*
X125130000Y-106120000D02*
X125467000Y-106120000D01*
X125467000Y-100880000D02*
X125130000Y-100880000D01*
X127533000Y-106120000D02*
X127870000Y-106120000D01*
X127870000Y-100880000D02*
X127533000Y-100880000D01*
X127870000Y-106120000D02*
X127870000Y-100880000D01*
%TO.C,a2*%
D10*
X128054824Y-117089780D02*
X128054824Y-116289780D01*
X128054824Y-119939780D02*
X128054824Y-120179780D01*
X130054824Y-114289780D02*
X135954824Y-114289780D01*
X137454824Y-114289780D02*
X139004824Y-114289780D01*
X138504824Y-118339780D02*
X133940000Y-118339780D01*
X139004824Y-114289780D02*
X139004824Y-114519780D01*
X139004824Y-117369780D02*
X139004824Y-117839780D01*
X128054824Y-116289780D02*
G75*
G02*
X130054824Y-114289780I2000004J-4D01*
G01*
X131645678Y-120179780D02*
G75*
G02*
X133940000Y-118339780I2293456J-509332D01*
G01*
X139004824Y-117839780D02*
G75*
G02*
X138504824Y-118339780I-500001J1D01*
G01*
%TO.C,D8*%
D13*
X140880000Y-120980000D02*
X143120000Y-120980000D01*
X140880000Y-121100000D02*
X143120000Y-121100000D01*
X140880000Y-121220000D02*
X143120000Y-121220000D01*
X142000000Y-119730000D02*
X142000000Y-120380000D01*
X142000000Y-125270000D02*
X142000000Y-124620000D01*
X140880000Y-120380000D02*
X143120000Y-120380000D01*
X143120000Y-124620000D01*
X140880000Y-124620000D01*
X140880000Y-120380000D01*
D14*
%TO.C,i*%
G36*
X177959610Y-93643844D02*
G01*
X177959610Y-94006156D01*
X177578229Y-94006156D01*
X177196848Y-94006156D01*
X177196848Y-93643844D01*
X177196848Y-93281532D01*
X177578229Y-93281532D01*
X177959610Y-93281532D01*
X177959610Y-93643844D01*
G37*
G36*
X178684235Y-85406006D02*
G01*
X178684235Y-85768318D01*
X178321923Y-85768318D01*
X177959610Y-85768318D01*
X177959610Y-85406006D01*
X177959610Y-85043694D01*
X178321923Y-85043694D01*
X178684235Y-85043694D01*
X178684235Y-85406006D01*
G37*
G36*
X178684235Y-90287688D02*
G01*
X178684235Y-91031381D01*
X178321923Y-91031381D01*
X177959610Y-91031381D01*
X177959610Y-90287688D01*
X177959610Y-89543994D01*
X178321923Y-89543994D01*
X178684235Y-89543994D01*
X178684235Y-90287688D01*
G37*
G36*
X178684235Y-107163814D02*
G01*
X178684235Y-107545195D01*
X178321923Y-107545195D01*
X177959610Y-107545195D01*
X177959610Y-107163814D01*
X177959610Y-106782433D01*
X178321923Y-106782433D01*
X178684235Y-106782433D01*
X178684235Y-107163814D01*
G37*
G36*
X179446998Y-86893393D02*
G01*
X179446998Y-87255706D01*
X178703304Y-87255706D01*
X177959610Y-87255706D01*
X177959610Y-86893393D01*
X177959610Y-86531081D01*
X178703304Y-86531081D01*
X179446998Y-86531081D01*
X179446998Y-86893393D01*
G37*
G36*
X179446998Y-98906907D02*
G01*
X179446998Y-99269219D01*
X178703304Y-99269219D01*
X177959610Y-99269219D01*
X177959610Y-98906907D01*
X177959610Y-98544595D01*
X178703304Y-98544595D01*
X179446998Y-98544595D01*
X179446998Y-98906907D01*
G37*
G36*
X180934385Y-95893994D02*
G01*
X180934385Y-96256306D01*
X179828379Y-96256306D01*
X178722373Y-96256306D01*
X178722373Y-95893994D01*
X178722373Y-95531682D01*
X179828379Y-95531682D01*
X180934385Y-95531682D01*
X180934385Y-95893994D01*
G37*
G36*
X181697148Y-101919820D02*
G01*
X181697148Y-102282132D01*
X179828379Y-102282132D01*
X177959610Y-102282132D01*
X177959610Y-101919820D01*
X177959610Y-101557508D01*
X179828379Y-101557508D01*
X181697148Y-101557508D01*
X181697148Y-101919820D01*
G37*
G36*
X181697148Y-106420120D02*
G01*
X181697148Y-106782433D01*
X180209761Y-106782433D01*
X178722373Y-106782433D01*
X178722373Y-106420120D01*
X178722373Y-106057808D01*
X180209761Y-106057808D01*
X181697148Y-106057808D01*
X181697148Y-106420120D01*
G37*
G36*
X181697148Y-107907508D02*
G01*
X181697148Y-108269820D01*
X180209761Y-108269820D01*
X178722373Y-108269820D01*
X178722373Y-107907508D01*
X178722373Y-107545195D01*
X180209761Y-107545195D01*
X181697148Y-107545195D01*
X181697148Y-107907508D01*
G37*
G36*
X181697148Y-85406006D02*
G01*
X181697148Y-85768318D01*
X180572073Y-85768318D01*
X179446998Y-85768318D01*
X179446998Y-85406006D01*
X179446998Y-85043694D01*
X180572073Y-85043694D01*
X181697148Y-85043694D01*
X181697148Y-85406006D01*
G37*
G36*
X180934385Y-86893393D02*
G01*
X180934385Y-87255706D01*
X180572073Y-87255706D01*
X180209761Y-87255706D01*
X180209761Y-86893393D01*
X180209761Y-86531081D01*
X180572073Y-86531081D01*
X180934385Y-86531081D01*
X180934385Y-86893393D01*
G37*
G36*
X180934385Y-93643844D02*
G01*
X180934385Y-94006156D01*
X180572073Y-94006156D01*
X180209761Y-94006156D01*
X180209761Y-93643844D01*
X180209761Y-93281532D01*
X180572073Y-93281532D01*
X180934385Y-93281532D01*
X180934385Y-93643844D01*
G37*
G36*
X180934385Y-98906907D02*
G01*
X180934385Y-99269219D01*
X180572073Y-99269219D01*
X180209761Y-99269219D01*
X180209761Y-98906907D01*
X180209761Y-98544595D01*
X180572073Y-98544595D01*
X180934385Y-98544595D01*
X180934385Y-98906907D01*
G37*
G36*
X180934385Y-90287688D02*
G01*
X180934385Y-91031381D01*
X180572073Y-91031381D01*
X180209761Y-91031381D01*
X180209761Y-91393694D01*
X180209761Y-91756006D01*
X179466067Y-91756006D01*
X178722373Y-91756006D01*
X178722373Y-91393694D01*
X178722373Y-91031381D01*
X179466067Y-91031381D01*
X180209761Y-91031381D01*
X180209761Y-90287688D01*
X180209761Y-89543994D01*
X180572073Y-89543994D01*
X180934385Y-89543994D01*
X180934385Y-90287688D01*
G37*
G36*
X180209761Y-87656156D02*
G01*
X180209761Y-88018469D01*
X180953454Y-88018469D01*
X181697148Y-88018469D01*
X181697148Y-88399850D01*
X181697148Y-88781231D01*
X179828379Y-88781231D01*
X177959610Y-88781231D01*
X177959610Y-88399850D01*
X177959610Y-88018469D01*
X178703304Y-88018469D01*
X179446998Y-88018469D01*
X179446998Y-87656156D01*
X179446998Y-87293844D01*
X179828379Y-87293844D01*
X180209761Y-87293844D01*
X180209761Y-87656156D01*
G37*
G36*
X180201607Y-99660135D02*
G01*
X180212523Y-100031982D01*
X180954835Y-100031982D01*
X181697148Y-100031982D01*
X181697148Y-100394294D01*
X181697148Y-100756607D01*
X179828379Y-100756607D01*
X177959610Y-100756607D01*
X177959610Y-100394294D01*
X177959610Y-100031982D01*
X178701923Y-100031982D01*
X179444236Y-100031982D01*
X179455151Y-99660135D01*
X179466067Y-99288288D01*
X179828379Y-99288288D01*
X180190691Y-99288288D01*
X180201607Y-99660135D01*
G37*
G36*
X178684235Y-96656757D02*
G01*
X178684235Y-97019069D01*
X179828379Y-97019069D01*
X180972523Y-97019069D01*
X180972523Y-96656757D01*
X180972523Y-96294445D01*
X181334836Y-96294445D01*
X181697148Y-96294445D01*
X181697148Y-97038138D01*
X181697148Y-97781832D01*
X179828379Y-97781832D01*
X177959610Y-97781832D01*
X177959610Y-97038138D01*
X177959610Y-96294445D01*
X178321923Y-96294445D01*
X178684235Y-96294445D01*
X178684235Y-96656757D01*
G37*
G36*
X180209761Y-92900150D02*
G01*
X180209761Y-93281532D01*
X179828379Y-93281532D01*
X179446998Y-93281532D01*
X179446998Y-93662913D01*
X179446998Y-94044294D01*
X179828379Y-94044294D01*
X180209761Y-94044294D01*
X180209761Y-94406607D01*
X180209761Y-94768919D01*
X179084685Y-94768919D01*
X177959610Y-94768919D01*
X177959610Y-94407988D01*
X177959610Y-94047056D01*
X178331457Y-94036141D01*
X178703304Y-94025225D01*
X178713645Y-93271997D01*
X178723986Y-92518769D01*
X179466873Y-92518769D01*
X180209761Y-92518769D01*
X180209761Y-92900150D01*
G37*
G36*
X180934385Y-103788589D02*
G01*
X180934385Y-104532282D01*
X180573454Y-104532282D01*
X180212523Y-104532282D01*
X180201607Y-104904129D01*
X180190691Y-105275976D01*
X179456532Y-105286334D01*
X178722373Y-105296692D01*
X178722373Y-104914487D01*
X178722373Y-104532282D01*
X179466067Y-104532282D01*
X180209761Y-104532282D01*
X180209761Y-104150901D01*
X180209761Y-103769520D01*
X179446998Y-103769520D01*
X178684235Y-103769520D01*
X178684235Y-104150901D01*
X178684235Y-104532282D01*
X178321923Y-104532282D01*
X177959610Y-104532282D01*
X177959610Y-103788589D01*
X177959610Y-103044895D01*
X179446998Y-103044895D01*
X180934385Y-103044895D01*
X180934385Y-103788589D01*
G37*
%TO.C,a4*%
D10*
X148054824Y-97089780D02*
X148054824Y-96289780D01*
X148054824Y-99939780D02*
X148054824Y-100179780D01*
X150054824Y-94289780D02*
X155954824Y-94289780D01*
X157454824Y-94289780D02*
X159004824Y-94289780D01*
X158504824Y-98339780D02*
X153940000Y-98339780D01*
X159004824Y-94289780D02*
X159004824Y-94519780D01*
X159004824Y-97369780D02*
X159004824Y-97839780D01*
X148054824Y-96289780D02*
G75*
G02*
X150054824Y-94289780I2000004J-4D01*
G01*
X151645678Y-100179780D02*
G75*
G02*
X153940000Y-98339780I2293456J-509332D01*
G01*
X159004824Y-97839780D02*
G75*
G02*
X158504824Y-98339780I-500001J1D01*
G01*
%TO.C,a3*%
X128054824Y-97089780D02*
X128054824Y-96289780D01*
X128054824Y-99939780D02*
X128054824Y-100179780D01*
X130054824Y-94289780D02*
X135954824Y-94289780D01*
X137454824Y-94289780D02*
X139004824Y-94289780D01*
X138504824Y-98339780D02*
X133940000Y-98339780D01*
X139004824Y-94289780D02*
X139004824Y-94519780D01*
X139004824Y-97369780D02*
X139004824Y-97839780D01*
X128054824Y-96289780D02*
G75*
G02*
X130054824Y-94289780I2000004J-4D01*
G01*
X131645678Y-100179780D02*
G75*
G02*
X133940000Y-98339780I2293456J-509332D01*
G01*
X139004824Y-97839780D02*
G75*
G02*
X138504824Y-98339780I-500001J1D01*
G01*
%TO.C,D4*%
D13*
X120880000Y-100670000D02*
X123120000Y-100670000D01*
X120880000Y-100790000D02*
X123120000Y-100790000D01*
X120880000Y-100910000D02*
X123120000Y-100910000D01*
X122000000Y-99420000D02*
X122000000Y-100070000D01*
X122000000Y-104960000D02*
X122000000Y-104310000D01*
X120880000Y-100070000D02*
X123120000Y-100070000D01*
X123120000Y-104310000D01*
X120880000Y-104310000D01*
X120880000Y-100070000D01*
D14*
%TO.C,g*%
G36*
X116029023Y-61074384D02*
G01*
X116087288Y-61144407D01*
X116139728Y-61283574D01*
X116157308Y-61349225D01*
X116181435Y-61507296D01*
X116176509Y-61627779D01*
X116160426Y-61678467D01*
X116101549Y-61754720D01*
X116026887Y-61745381D01*
X115944945Y-61654328D01*
X115864229Y-61485438D01*
X115805471Y-61297117D01*
X115792790Y-61146500D01*
X115839882Y-61064846D01*
X115947325Y-61049108D01*
X116029023Y-61074384D01*
G37*
G36*
X123416189Y-56533349D02*
G01*
X123450541Y-56600958D01*
X123478808Y-56739985D01*
X123498084Y-56932053D01*
X123505459Y-57158785D01*
X123504593Y-57253643D01*
X123494578Y-57367074D01*
X123467676Y-57419217D01*
X123416841Y-57431775D01*
X123384202Y-57429414D01*
X123284795Y-57373816D01*
X123227882Y-57240728D01*
X123211005Y-57025293D01*
X123227660Y-56849811D01*
X123271961Y-56687863D01*
X123334501Y-56573225D01*
X123405911Y-56529719D01*
X123416189Y-56533349D01*
G37*
G36*
X123525277Y-57783802D02*
G01*
X123544991Y-57873918D01*
X123554140Y-58012125D01*
X123553175Y-58170746D01*
X123542549Y-58322101D01*
X123522710Y-58438510D01*
X123494112Y-58492295D01*
X123454825Y-58506650D01*
X123393905Y-58511235D01*
X123353130Y-58468526D01*
X123322363Y-58362821D01*
X123291468Y-58178421D01*
X123278159Y-58039468D01*
X123297275Y-57943969D01*
X123358864Y-57863753D01*
X123441104Y-57794797D01*
X123505981Y-57764112D01*
X123525277Y-57783802D01*
G37*
G36*
X134947863Y-55722616D02*
G01*
X134956938Y-55737281D01*
X135016443Y-55884900D01*
X135070901Y-56105945D01*
X135115551Y-56381702D01*
X135148395Y-56637236D01*
X134965039Y-56603753D01*
X134849672Y-56578718D01*
X134743115Y-56531436D01*
X134694463Y-56452610D01*
X134694306Y-56322690D01*
X134733234Y-56122124D01*
X134733736Y-56119927D01*
X134777667Y-55945669D01*
X134820946Y-55803000D01*
X134854274Y-55722616D01*
X134860739Y-55712789D01*
X134902743Y-55675282D01*
X134947863Y-55722616D01*
G37*
G36*
X119535429Y-59629317D02*
G01*
X119648538Y-59702724D01*
X119715558Y-59856581D01*
X119735837Y-60088368D01*
X119708721Y-60395564D01*
X119705620Y-60416032D01*
X119667770Y-60624018D01*
X119622974Y-60816234D01*
X119580271Y-60953415D01*
X119559130Y-61000641D01*
X119473811Y-61110589D01*
X119377446Y-61131783D01*
X119278464Y-61061211D01*
X119276860Y-61059249D01*
X119217724Y-60929388D01*
X119182156Y-60728201D01*
X119172266Y-60476395D01*
X119190165Y-60194681D01*
X119194898Y-60154453D01*
X119240224Y-59900638D01*
X119305026Y-59732505D01*
X119393301Y-59642908D01*
X119509048Y-59624703D01*
X119535429Y-59629317D01*
G37*
G36*
X138496058Y-59810397D02*
G01*
X138371767Y-59786761D01*
X138282589Y-59772826D01*
X138121363Y-59752344D01*
X137938879Y-59732513D01*
X137850746Y-59720886D01*
X137666715Y-59691423D01*
X137413250Y-59647628D01*
X137103528Y-59591879D01*
X136750727Y-59526556D01*
X136368024Y-59454040D01*
X135968598Y-59376710D01*
X135336643Y-59253953D01*
X134738107Y-59140134D01*
X134207808Y-59042549D01*
X133733047Y-58959192D01*
X133301125Y-58888057D01*
X132899343Y-58827139D01*
X132515001Y-58774430D01*
X132135400Y-58727926D01*
X131747842Y-58685619D01*
X131339626Y-58645505D01*
X130534029Y-58581700D01*
X129671362Y-58545595D01*
X128863940Y-58551246D01*
X128094895Y-58600317D01*
X128004314Y-58611726D01*
X127347364Y-58694471D01*
X126604481Y-58835369D01*
X125849380Y-59024675D01*
X125065197Y-59264051D01*
X124559178Y-59430742D01*
X124546994Y-60244160D01*
X124539126Y-60769483D01*
X124538916Y-60783507D01*
X124532836Y-61172836D01*
X124526873Y-61480349D01*
X124519897Y-61718768D01*
X124510782Y-61900812D01*
X124498399Y-62039203D01*
X124481621Y-62146660D01*
X124459321Y-62235904D01*
X124430370Y-62319655D01*
X124393642Y-62410635D01*
X124357575Y-62494660D01*
X124209643Y-62775752D01*
X124044272Y-62981215D01*
X123846470Y-63126496D01*
X123601242Y-63227042D01*
X123585332Y-63231739D01*
X123421772Y-63264291D01*
X123233942Y-63271998D01*
X123011232Y-63253023D01*
X122743036Y-63205531D01*
X122418743Y-63127684D01*
X122027747Y-63017647D01*
X121559439Y-62873583D01*
X121085243Y-62726177D01*
X120545884Y-62568950D01*
X120070263Y-62446509D01*
X119644837Y-62358161D01*
X119256065Y-62303207D01*
X118890405Y-62280951D01*
X118534316Y-62290698D01*
X118174255Y-62331751D01*
X117796682Y-62403414D01*
X117388053Y-62504990D01*
X116934829Y-62635783D01*
X116900928Y-62646018D01*
X116184581Y-62853131D01*
X115549398Y-63017909D01*
X114992003Y-63140927D01*
X114509020Y-63222764D01*
X114097073Y-63263994D01*
X113752785Y-63265195D01*
X113472781Y-63226944D01*
X113438854Y-63218706D01*
X113323642Y-63184687D01*
X113263213Y-63156982D01*
X113269088Y-63139086D01*
X113326356Y-63062714D01*
X113433674Y-62938518D01*
X113580448Y-62778579D01*
X113756081Y-62594980D01*
X113888108Y-62457571D01*
X114116487Y-62209477D01*
X114307794Y-61987615D01*
X114454094Y-61801787D01*
X114547453Y-61661790D01*
X114579937Y-61577427D01*
X114565474Y-61560761D01*
X114482601Y-61508283D01*
X114342645Y-61434413D01*
X114164516Y-61349524D01*
X113998954Y-61265504D01*
X113792297Y-61139471D01*
X113601859Y-61002701D01*
X113444705Y-60868718D01*
X113337899Y-60751045D01*
X113298505Y-60663207D01*
X113300974Y-60657222D01*
X113357371Y-60604120D01*
X113479320Y-60510440D01*
X113654981Y-60384204D01*
X113872513Y-60233437D01*
X113911017Y-60207420D01*
X115112512Y-60207420D01*
X115118970Y-60235586D01*
X115156563Y-60281532D01*
X115244182Y-60309494D01*
X115404288Y-60328817D01*
X115439200Y-60332111D01*
X115601324Y-60358048D01*
X115708777Y-60404669D01*
X115795971Y-60485764D01*
X115835431Y-60533439D01*
X115899248Y-60635654D01*
X115888315Y-60691362D01*
X115802897Y-60709173D01*
X115705567Y-60727708D01*
X115567908Y-60820201D01*
X115471362Y-60969890D01*
X115434953Y-61153789D01*
X115441596Y-61228893D01*
X115491620Y-61421514D01*
X115577514Y-61634636D01*
X115683517Y-61832079D01*
X115793867Y-61977663D01*
X115863119Y-62041548D01*
X115986005Y-62112794D01*
X116131791Y-62131962D01*
X116187317Y-62129507D01*
X116385187Y-62070505D01*
X116533275Y-61939442D01*
X116628525Y-61745175D01*
X116667881Y-61496559D01*
X116664514Y-61446023D01*
X116979335Y-61446023D01*
X117006329Y-61496559D01*
X117040159Y-61559893D01*
X117094190Y-61624664D01*
X117179542Y-61679706D01*
X117289253Y-61679177D01*
X117452710Y-61627921D01*
X117573583Y-61592744D01*
X117766538Y-61554311D01*
X117967354Y-61528513D01*
X118112924Y-61511145D01*
X118254628Y-61478243D01*
X118315888Y-61438265D01*
X118316338Y-61437066D01*
X118316091Y-61323654D01*
X118260967Y-61151131D01*
X118156585Y-60933290D01*
X118008566Y-60683925D01*
X117971846Y-60626462D01*
X117958253Y-60603564D01*
X118722460Y-60603564D01*
X118755763Y-60894737D01*
X118828008Y-61143817D01*
X118940537Y-61329181D01*
X119086135Y-61437066D01*
X119088255Y-61438637D01*
X119294793Y-61508547D01*
X119519561Y-61525775D01*
X119556866Y-61519173D01*
X120190842Y-61519173D01*
X120197671Y-61555285D01*
X120221001Y-61606884D01*
X120272326Y-61650801D01*
X120367454Y-61695548D01*
X120522189Y-61749638D01*
X120752337Y-61821583D01*
X120804117Y-61837617D01*
X121020678Y-61907627D01*
X121221755Y-61976686D01*
X121369533Y-62031909D01*
X121518720Y-62084806D01*
X121627143Y-62093042D01*
X121695947Y-62041489D01*
X121747561Y-61923727D01*
X121755609Y-61896844D01*
X121770188Y-61775256D01*
X121747180Y-61636712D01*
X121681298Y-61466800D01*
X121567259Y-61251103D01*
X121399776Y-60975209D01*
X121249357Y-60719479D01*
X121137306Y-60481546D01*
X121089206Y-60303256D01*
X121106507Y-60188501D01*
X121126625Y-60163504D01*
X121209786Y-60141552D01*
X121315071Y-60199719D01*
X121430616Y-60332726D01*
X121488852Y-60410602D01*
X121580511Y-60493258D01*
X121667999Y-60508962D01*
X121728387Y-60489207D01*
X121768922Y-60426202D01*
X121787537Y-60295239D01*
X121790273Y-60244160D01*
X121779706Y-60129366D01*
X121729832Y-60027523D01*
X121624936Y-59900483D01*
X121556857Y-59828403D01*
X121365819Y-59668787D01*
X121186845Y-59591386D01*
X121007503Y-59589947D01*
X120908850Y-59617514D01*
X120749718Y-59723839D01*
X120656438Y-59891624D01*
X120629210Y-60115963D01*
X120631970Y-60135483D01*
X120668239Y-60391951D01*
X120773728Y-60714682D01*
X120945879Y-61079252D01*
X120976257Y-61136190D01*
X121055844Y-61287623D01*
X121111318Y-61396618D01*
X121132150Y-61442635D01*
X121112153Y-61441253D01*
X121025758Y-61415135D01*
X120894257Y-61367775D01*
X120657327Y-61297595D01*
X120452568Y-61277960D01*
X120299409Y-61309886D01*
X120208588Y-61391060D01*
X120190842Y-61519173D01*
X119556866Y-61519173D01*
X119731664Y-61488238D01*
X119900208Y-61393856D01*
X119979861Y-61287658D01*
X120063910Y-61090280D01*
X120131234Y-60834838D01*
X120176783Y-60541242D01*
X120195510Y-60229401D01*
X120196208Y-60135483D01*
X120192029Y-59935478D01*
X120175246Y-59789888D01*
X120141110Y-59669285D01*
X120084867Y-59544239D01*
X120060417Y-59498495D01*
X119900051Y-59298503D01*
X119691289Y-59179990D01*
X119430853Y-59140934D01*
X119308920Y-59148939D01*
X119189200Y-59194016D01*
X119066790Y-59297733D01*
X118951783Y-59450442D01*
X118842760Y-59693738D01*
X118767302Y-59981440D01*
X118726755Y-60291923D01*
X118722460Y-60603564D01*
X117958253Y-60603564D01*
X117780044Y-60303375D01*
X117651215Y-60040042D01*
X117586092Y-59838614D01*
X117585406Y-59701242D01*
X117649890Y-59630078D01*
X117686460Y-59626523D01*
X117777189Y-59675408D01*
X117901549Y-59803040D01*
X117929139Y-59834491D01*
X118064033Y-59956281D01*
X118168480Y-59991750D01*
X118239453Y-59940891D01*
X118273931Y-59803701D01*
X118256554Y-59634635D01*
X118169454Y-59453302D01*
X118028527Y-59296805D01*
X117852484Y-59177426D01*
X117660032Y-59107447D01*
X117469880Y-59099151D01*
X117300739Y-59164820D01*
X117255266Y-59204768D01*
X117162823Y-59358043D01*
X117113900Y-59559435D01*
X117117453Y-59778938D01*
X117146998Y-59902309D01*
X117222574Y-60114199D01*
X117329055Y-60358536D01*
X117454584Y-60608602D01*
X117587302Y-60837677D01*
X117595082Y-60850051D01*
X117656673Y-60960802D01*
X117668849Y-61037957D01*
X117620862Y-61095379D01*
X117501966Y-61146931D01*
X117301413Y-61206477D01*
X117271654Y-61214949D01*
X117088669Y-61282227D01*
X116993368Y-61356360D01*
X116979335Y-61446023D01*
X116664514Y-61446023D01*
X116648286Y-61202449D01*
X116566687Y-60871701D01*
X116559811Y-60850972D01*
X116406715Y-60478944D01*
X116226339Y-60192903D01*
X116020412Y-59994538D01*
X115790662Y-59885539D01*
X115538820Y-59867595D01*
X115390752Y-59902354D01*
X115239676Y-59983426D01*
X115139677Y-60090895D01*
X115112512Y-60207420D01*
X113911017Y-60207420D01*
X114120076Y-60066161D01*
X114385829Y-59890400D01*
X114657933Y-59714177D01*
X114924548Y-59545515D01*
X115173832Y-59392437D01*
X115270498Y-59334481D01*
X115598218Y-59144305D01*
X115880957Y-58993431D01*
X116144470Y-58869522D01*
X116414507Y-58760242D01*
X116716823Y-58653254D01*
X117245493Y-58499575D01*
X117864050Y-58383724D01*
X118489994Y-58338260D01*
X119134008Y-58363692D01*
X119806778Y-58460528D01*
X120518986Y-58629277D01*
X121281316Y-58870446D01*
X122023941Y-59131036D01*
X122043815Y-57747293D01*
X122044172Y-57722449D01*
X122050732Y-57296608D01*
X122056889Y-57028224D01*
X122870435Y-57028224D01*
X122881520Y-57204956D01*
X122909629Y-57393597D01*
X122947865Y-57530864D01*
X122950872Y-57538038D01*
X122992287Y-57683928D01*
X122972031Y-57786719D01*
X122945533Y-57857557D01*
X122928365Y-58035217D01*
X122946539Y-58250303D01*
X122994596Y-58472614D01*
X123067075Y-58671950D01*
X123158515Y-58818110D01*
X123244024Y-58871227D01*
X123403924Y-58898596D01*
X123595940Y-58882896D01*
X123790841Y-58823861D01*
X123821048Y-58810708D01*
X123921139Y-58765838D01*
X123966088Y-58743484D01*
X123968912Y-58718397D01*
X123969369Y-58611726D01*
X123966015Y-58435164D01*
X123959460Y-58203511D01*
X123950312Y-57931571D01*
X123939178Y-57634146D01*
X123926667Y-57326037D01*
X123913387Y-57022046D01*
X123899946Y-56736977D01*
X123886952Y-56485630D01*
X123875014Y-56282808D01*
X123867861Y-56185694D01*
X124144596Y-56185694D01*
X124150618Y-56469797D01*
X124177833Y-56838317D01*
X124216819Y-57197732D01*
X124279741Y-57580885D01*
X124358098Y-57878007D01*
X124453144Y-58093604D01*
X124566134Y-58232179D01*
X124691795Y-58304756D01*
X124897680Y-58342916D01*
X125121344Y-58314905D01*
X125338128Y-58224734D01*
X125523375Y-58076417D01*
X125610081Y-57975336D01*
X125677951Y-57874445D01*
X125728428Y-57761175D01*
X125733136Y-57742747D01*
X126028412Y-57742747D01*
X126079215Y-57849570D01*
X126096991Y-57866165D01*
X126137908Y-57889907D01*
X126198690Y-57897682D01*
X126297565Y-57888438D01*
X126452763Y-57861118D01*
X126682515Y-57814668D01*
X126934917Y-57752070D01*
X127105227Y-57679413D01*
X127204279Y-57585663D01*
X127243937Y-57459575D01*
X127236065Y-57289901D01*
X127228136Y-57221431D01*
X127213045Y-57051353D01*
X127195826Y-56821634D01*
X127178044Y-56553606D01*
X127161259Y-56268598D01*
X127160749Y-56259336D01*
X127138105Y-55867851D01*
X127117508Y-55560014D01*
X127097668Y-55324812D01*
X127086130Y-55226486D01*
X127561587Y-55226486D01*
X127576013Y-55270345D01*
X127660201Y-55378001D01*
X127779702Y-55420324D01*
X127910621Y-55399474D01*
X128029064Y-55317605D01*
X128111135Y-55176877D01*
X128136125Y-55109911D01*
X128190791Y-55032113D01*
X128265565Y-55019633D01*
X128322997Y-55040504D01*
X128392186Y-55118070D01*
X128443690Y-55258347D01*
X128479237Y-55469243D01*
X128500558Y-55758666D01*
X128509382Y-56134522D01*
X128509693Y-56177784D01*
X128510396Y-56445885D01*
X128506985Y-56638274D01*
X128497583Y-56771871D01*
X128480316Y-56863595D01*
X128453310Y-56930366D01*
X128414689Y-56989101D01*
X128309110Y-57095549D01*
X128196562Y-57127131D01*
X128095910Y-57065593D01*
X128012131Y-56911889D01*
X127936425Y-56756308D01*
X127837245Y-56655325D01*
X127732341Y-56640597D01*
X127629677Y-56716198D01*
X127567549Y-56847497D01*
X127566910Y-57021905D01*
X127631920Y-57202272D01*
X127754028Y-57366139D01*
X127881685Y-57459575D01*
X127924683Y-57491047D01*
X127982678Y-57516308D01*
X128204616Y-57564373D01*
X128445294Y-57561681D01*
X128657196Y-57507185D01*
X128768826Y-57446673D01*
X128902533Y-57326814D01*
X128999804Y-57162742D01*
X129063062Y-56944944D01*
X129094729Y-56663904D01*
X129097227Y-56310108D01*
X129072979Y-55874042D01*
X129055593Y-55671037D01*
X129017633Y-55363745D01*
X128967282Y-55125584D01*
X128899284Y-54939916D01*
X128808384Y-54790102D01*
X128689326Y-54659505D01*
X128572429Y-54575523D01*
X128552166Y-54568630D01*
X129971593Y-54568630D01*
X129979152Y-54677193D01*
X130016159Y-54818357D01*
X130086829Y-55004696D01*
X130195374Y-55248784D01*
X130346008Y-55563198D01*
X130674503Y-56234620D01*
X130638202Y-56310108D01*
X130438028Y-56726375D01*
X130359070Y-56892609D01*
X130271845Y-57088566D01*
X130222976Y-57225355D01*
X130208891Y-57318029D01*
X130226018Y-57381647D01*
X130270785Y-57431264D01*
X130270933Y-57431386D01*
X130386752Y-57474406D01*
X130516790Y-57427404D01*
X130657604Y-57293651D01*
X130805749Y-57076417D01*
X130957781Y-56778972D01*
X131011376Y-56672753D01*
X131078469Y-56569604D01*
X131126739Y-56529719D01*
X131190210Y-56546374D01*
X131273490Y-56642119D01*
X131336830Y-56825439D01*
X131381522Y-57099223D01*
X131389037Y-57163064D01*
X131421479Y-57365985D01*
X131460582Y-57493139D01*
X131510653Y-57559890D01*
X131603429Y-57605303D01*
X131741097Y-57616478D01*
X131850122Y-57566962D01*
X131868029Y-57501737D01*
X131880385Y-57356033D01*
X131887475Y-57144503D01*
X131888962Y-56970737D01*
X132199909Y-56970737D01*
X132214271Y-57115233D01*
X132216049Y-57126500D01*
X132298537Y-57366933D01*
X132450210Y-57565736D01*
X132653361Y-57699352D01*
X132723883Y-57721852D01*
X132892792Y-57752212D01*
X133074651Y-57764112D01*
X133135992Y-57763525D01*
X133280349Y-57750314D01*
X133380778Y-57709922D01*
X133424628Y-57672715D01*
X133855888Y-57672715D01*
X133859959Y-57723079D01*
X133915915Y-57849303D01*
X134019361Y-57919095D01*
X134146985Y-57913196D01*
X134150830Y-57911706D01*
X134243966Y-57852649D01*
X134322778Y-57746469D01*
X134396023Y-57577475D01*
X134472458Y-57329973D01*
X134488975Y-57270833D01*
X134531963Y-57133975D01*
X134571986Y-57062567D01*
X134625115Y-57036469D01*
X134707422Y-57035541D01*
X134751695Y-57038159D01*
X134933223Y-57068247D01*
X135055365Y-57139454D01*
X135138218Y-57269723D01*
X135201880Y-57476998D01*
X135240997Y-57651668D01*
X135269360Y-57802850D01*
X135280187Y-57895063D01*
X135280199Y-57896543D01*
X135309602Y-57999063D01*
X135378586Y-58113784D01*
X135439466Y-58176386D01*
X135562999Y-58235723D01*
X135678442Y-58217509D01*
X135763084Y-58121302D01*
X135777819Y-58056658D01*
X135781330Y-57895257D01*
X135765849Y-57669131D01*
X135734213Y-57394460D01*
X135689257Y-57087421D01*
X135633817Y-56764194D01*
X135570729Y-56440957D01*
X135502829Y-56133887D01*
X135433479Y-55861235D01*
X135996888Y-55861235D01*
X135999072Y-56129075D01*
X136009795Y-56480601D01*
X136018150Y-56708676D01*
X136035825Y-57152129D01*
X136053575Y-57512932D01*
X136073093Y-57799558D01*
X136083048Y-57895257D01*
X136096073Y-58020479D01*
X136124206Y-58184167D01*
X136159186Y-58299095D01*
X136202706Y-58373736D01*
X136256459Y-58416561D01*
X136322137Y-58436043D01*
X136401434Y-58440654D01*
X136466391Y-58435325D01*
X136538069Y-58399246D01*
X136581354Y-58315556D01*
X136602761Y-58168610D01*
X136608806Y-57942766D01*
X136609533Y-57575439D01*
X136818101Y-57676769D01*
X136888331Y-57714394D01*
X136986977Y-57795173D01*
X137046326Y-57905569D01*
X137075540Y-58067116D01*
X137083777Y-58301345D01*
X137084112Y-58321200D01*
X137100394Y-58465906D01*
X137133446Y-58574336D01*
X137208038Y-58642378D01*
X137332532Y-58663215D01*
X137463556Y-58620040D01*
X137478627Y-58604350D01*
X137504287Y-58534258D01*
X137522825Y-58407990D01*
X137534414Y-58219116D01*
X137539226Y-57961205D01*
X137537433Y-57627826D01*
X137529207Y-57212551D01*
X137514721Y-56708948D01*
X137507301Y-56486837D01*
X137497091Y-56240530D01*
X137485516Y-56064196D01*
X137470566Y-55943158D01*
X137450229Y-55862739D01*
X137422494Y-55808263D01*
X137385348Y-55765053D01*
X137327383Y-55720666D01*
X137200161Y-55687760D01*
X137083933Y-55724892D01*
X137010129Y-55826882D01*
X137007832Y-55835728D01*
X136996487Y-55935450D01*
X136988223Y-56104957D01*
X136983793Y-56322922D01*
X136983950Y-56568017D01*
X136985808Y-56799625D01*
X136984414Y-56983371D01*
X136977612Y-57098468D01*
X136963625Y-57158845D01*
X136940676Y-57178431D01*
X136906986Y-57171155D01*
X136823583Y-57138626D01*
X136697477Y-57091633D01*
X136571777Y-57046062D01*
X136537144Y-56307090D01*
X136526483Y-56101820D01*
X136506107Y-55834307D01*
X136478388Y-55642395D01*
X136439004Y-55514059D01*
X136383634Y-55437277D01*
X136307957Y-55400025D01*
X136207652Y-55390280D01*
X136184183Y-55390888D01*
X136113617Y-55405916D01*
X136061608Y-55449423D01*
X136026153Y-55532451D01*
X136005247Y-55666041D01*
X135996888Y-55861235D01*
X135433479Y-55861235D01*
X135432952Y-55859164D01*
X135363934Y-55632965D01*
X135298611Y-55471469D01*
X135186378Y-55288514D01*
X135045236Y-55152044D01*
X134899456Y-55105420D01*
X134838838Y-55111875D01*
X134747590Y-55153634D01*
X134660183Y-55242059D01*
X134571373Y-55386272D01*
X134475911Y-55595396D01*
X134368550Y-55878551D01*
X134244044Y-56244859D01*
X134143868Y-56557163D01*
X134117771Y-56638521D01*
X134005398Y-57010762D01*
X133923315Y-57310806D01*
X133872989Y-57533256D01*
X133855888Y-57672715D01*
X133424628Y-57672715D01*
X133475568Y-57629493D01*
X133525506Y-57569010D01*
X133616711Y-57413414D01*
X133685561Y-57241063D01*
X133707965Y-57150688D01*
X133744667Y-56882376D01*
X133759217Y-56557163D01*
X133752481Y-56199734D01*
X133725326Y-55834774D01*
X133678619Y-55486969D01*
X133613226Y-55181002D01*
X133603418Y-55147982D01*
X133492964Y-54939335D01*
X133324026Y-54782488D01*
X133118086Y-54698377D01*
X133046650Y-54690864D01*
X132844182Y-54722405D01*
X132648302Y-54816839D01*
X132481071Y-54957277D01*
X132364552Y-55126833D01*
X132320810Y-55308619D01*
X132320903Y-55317853D01*
X132354701Y-55459212D01*
X132436275Y-55532976D01*
X132546474Y-55537956D01*
X132666149Y-55472968D01*
X132776150Y-55336825D01*
X132792582Y-55309861D01*
X132882661Y-55218328D01*
X132971226Y-55217832D01*
X133054800Y-55305095D01*
X133129905Y-55476839D01*
X133193061Y-55729784D01*
X133197197Y-55752453D01*
X133223210Y-55966628D01*
X133237433Y-56223093D01*
X133240102Y-56494520D01*
X133231450Y-56753577D01*
X133211710Y-56972936D01*
X133181117Y-57125267D01*
X133133059Y-57244562D01*
X133074427Y-57300222D01*
X132979254Y-57313084D01*
X132923948Y-57308924D01*
X132825982Y-57262546D01*
X132734554Y-57146915D01*
X132668813Y-57048208D01*
X132558191Y-56904945D01*
X132461109Y-56804790D01*
X132394883Y-56767102D01*
X132353327Y-56779893D01*
X132267947Y-56830599D01*
X132220435Y-56881662D01*
X132216315Y-56886090D01*
X132199909Y-56970737D01*
X131888962Y-56970737D01*
X131889725Y-56881662D01*
X131887565Y-56582024D01*
X131881421Y-56260103D01*
X131871721Y-55930413D01*
X131858893Y-55607470D01*
X131843363Y-55305787D01*
X131825560Y-55039877D01*
X131805911Y-54824257D01*
X131784844Y-54673439D01*
X131762786Y-54601939D01*
X131741366Y-54580026D01*
X131629475Y-54536042D01*
X131505405Y-54565923D01*
X131400067Y-54664348D01*
X131393099Y-54675353D01*
X131360311Y-54744843D01*
X131338667Y-54837781D01*
X131326376Y-54972024D01*
X131321648Y-55165427D01*
X131322691Y-55435844D01*
X131329495Y-56078691D01*
X131132785Y-55860535D01*
X131122092Y-55848335D01*
X131021029Y-55713012D01*
X130895539Y-55519400D01*
X130760562Y-55291529D01*
X130631036Y-55053432D01*
X130595741Y-54985705D01*
X130484154Y-54777105D01*
X130387239Y-54603927D01*
X130314380Y-54482613D01*
X130274961Y-54429605D01*
X130162653Y-54392861D01*
X130052482Y-54415326D01*
X129986204Y-54489291D01*
X129971593Y-54568630D01*
X128552166Y-54568630D01*
X128360885Y-54503561D01*
X128138304Y-54503069D01*
X127936923Y-54577559D01*
X127865692Y-54631306D01*
X127737906Y-54770881D01*
X127633598Y-54935671D01*
X127569311Y-55097073D01*
X127561587Y-55226486D01*
X127086130Y-55226486D01*
X127077299Y-55151231D01*
X127055115Y-55028258D01*
X127029827Y-54944880D01*
X127000148Y-54890084D01*
X126908185Y-54834093D01*
X126773491Y-54848478D01*
X126615701Y-54933392D01*
X126615094Y-54933837D01*
X126577574Y-54967447D01*
X126552476Y-55014200D01*
X126538188Y-55090436D01*
X126533097Y-55212499D01*
X126535591Y-55396730D01*
X126544056Y-55659472D01*
X126552649Y-55937235D01*
X126560393Y-56263577D01*
X126564879Y-56527603D01*
X126565716Y-56576839D01*
X126567795Y-56836129D01*
X126568224Y-57356184D01*
X126361269Y-57416204D01*
X126307217Y-57433023D01*
X126173109Y-57484473D01*
X126088278Y-57531027D01*
X126035427Y-57616861D01*
X126028412Y-57742747D01*
X125733136Y-57742747D01*
X125764046Y-57621767D01*
X125787338Y-57442465D01*
X125800838Y-57209508D01*
X125807081Y-56909140D01*
X125808598Y-56527603D01*
X125807918Y-56204590D01*
X125805069Y-55937120D01*
X125799083Y-55739054D01*
X125788992Y-55597165D01*
X125773829Y-55498227D01*
X125752628Y-55429012D01*
X125724420Y-55376294D01*
X125673492Y-55316709D01*
X125560163Y-55254945D01*
X125447083Y-55258413D01*
X125364565Y-55330934D01*
X125363598Y-55332986D01*
X125349602Y-55410663D01*
X125336680Y-55565983D01*
X125325668Y-55782734D01*
X125317403Y-56044705D01*
X125312721Y-56335685D01*
X125311365Y-56463679D01*
X125302787Y-56863526D01*
X125287496Y-57180957D01*
X125264340Y-57425653D01*
X125232168Y-57607297D01*
X125189829Y-57735571D01*
X125136171Y-57820157D01*
X125106596Y-57850105D01*
X124994966Y-57910321D01*
X124892925Y-57879953D01*
X124801828Y-57762227D01*
X124723030Y-57560367D01*
X124657886Y-57277600D01*
X124607752Y-56917150D01*
X124573983Y-56482243D01*
X124564545Y-56309941D01*
X124549264Y-56073718D01*
X124532824Y-55910994D01*
X124511912Y-55808144D01*
X124483215Y-55751547D01*
X124443418Y-55727578D01*
X124389208Y-55722616D01*
X124364609Y-55723591D01*
X124269772Y-55754959D01*
X124202563Y-55836769D01*
X124161374Y-55977516D01*
X124144596Y-56185694D01*
X123867861Y-56185694D01*
X123864739Y-56143313D01*
X123856736Y-56081948D01*
X123817071Y-56034643D01*
X123714030Y-56016622D01*
X123572571Y-56049630D01*
X123410372Y-56124929D01*
X123245116Y-56233780D01*
X123094483Y-56367445D01*
X122976154Y-56517183D01*
X122948322Y-56564482D01*
X122897453Y-56685210D01*
X122873985Y-56827734D01*
X122870435Y-57028224D01*
X122056889Y-57028224D01*
X122058604Y-56953453D01*
X122070376Y-56681339D01*
X122088638Y-56468622D01*
X122115977Y-56303656D01*
X122154982Y-56174796D01*
X122208241Y-56070396D01*
X122278343Y-55978812D01*
X122367877Y-55888399D01*
X122479430Y-55787510D01*
X122647265Y-55647862D01*
X123040424Y-55372187D01*
X123508173Y-55098334D01*
X124037220Y-54832321D01*
X124614272Y-54580166D01*
X125226037Y-54347886D01*
X125859224Y-54141500D01*
X126500540Y-53967024D01*
X126949611Y-53865957D01*
X127476266Y-53764620D01*
X128022711Y-53674818D01*
X128566766Y-53599595D01*
X129086253Y-53541994D01*
X129558992Y-53505061D01*
X129962804Y-53491838D01*
X130417179Y-53501401D01*
X131094182Y-53544462D01*
X131835762Y-53620029D01*
X132628706Y-53725769D01*
X133459805Y-53859348D01*
X134315847Y-54018431D01*
X135183622Y-54200686D01*
X136049918Y-54403778D01*
X136901526Y-54625373D01*
X137725234Y-54863138D01*
X137756189Y-54872554D01*
X138053573Y-54963013D01*
X138272831Y-55031614D01*
X138425354Y-55084556D01*
X138522530Y-55128038D01*
X138575751Y-55168257D01*
X138596406Y-55211412D01*
X138595885Y-55263700D01*
X138585578Y-55331321D01*
X138581097Y-55385487D01*
X138574284Y-55533219D01*
X138566764Y-55757520D01*
X138558801Y-56047879D01*
X138550653Y-56393786D01*
X138542584Y-56784730D01*
X138534854Y-57210200D01*
X138527724Y-57659684D01*
X138523285Y-57961205D01*
X138496058Y-59810397D01*
G37*
%TO.C,a10*%
D10*
X148054824Y-77089780D02*
X148054824Y-76289780D01*
X148054824Y-79939780D02*
X148054824Y-80179780D01*
X150054824Y-74289780D02*
X155954824Y-74289780D01*
X157454824Y-74289780D02*
X159004824Y-74289780D01*
X158504824Y-78339780D02*
X153940000Y-78339780D01*
X159004824Y-74289780D02*
X159004824Y-74519780D01*
X159004824Y-77369780D02*
X159004824Y-77839780D01*
X148054824Y-76289780D02*
G75*
G02*
X150054824Y-74289780I2000004J-4D01*
G01*
X151645678Y-80179780D02*
G75*
G02*
X153940000Y-78339780I2293456J-509332D01*
G01*
X159004824Y-77839780D02*
G75*
G02*
X158504824Y-78339780I-500001J1D01*
G01*
%TO.C,D7*%
D13*
X120880000Y-120670000D02*
X123120000Y-120670000D01*
X120880000Y-120790000D02*
X123120000Y-120790000D01*
X120880000Y-120910000D02*
X123120000Y-120910000D01*
X122000000Y-119420000D02*
X122000000Y-120070000D01*
X122000000Y-124960000D02*
X122000000Y-124310000D01*
X120880000Y-120070000D02*
X123120000Y-120070000D01*
X123120000Y-124310000D01*
X120880000Y-124310000D01*
X120880000Y-120070000D01*
%TO.C,D1*%
X122000000Y-79420000D02*
X122000000Y-80070000D01*
X122000000Y-84960000D02*
X122000000Y-84310000D01*
X123120000Y-83470000D02*
X120880000Y-83470000D01*
X123120000Y-83590000D02*
X120880000Y-83590000D01*
X123120000Y-83710000D02*
X120880000Y-83710000D01*
X120880000Y-80070000D02*
X123120000Y-80070000D01*
X123120000Y-84310000D01*
X120880000Y-84310000D01*
X120880000Y-80070000D01*
%TO.C,C9*%
X145130000Y-120880000D02*
X145130000Y-126120000D01*
X145130000Y-126120000D02*
X145467000Y-126120000D01*
X145467000Y-120880000D02*
X145130000Y-120880000D01*
X147533000Y-126120000D02*
X147870000Y-126120000D01*
X147870000Y-120880000D02*
X147533000Y-120880000D01*
X147870000Y-126120000D02*
X147870000Y-120880000D01*
%TO.C,C8*%
X144630000Y-100880000D02*
X144630000Y-106120000D01*
X144630000Y-106120000D02*
X144967000Y-106120000D01*
X144967000Y-100880000D02*
X144630000Y-100880000D01*
X147033000Y-106120000D02*
X147370000Y-106120000D01*
X147370000Y-100880000D02*
X147033000Y-100880000D01*
X147370000Y-106120000D02*
X147370000Y-100880000D01*
%TO.C,D5*%
X140880000Y-100980000D02*
X143120000Y-100980000D01*
X140880000Y-101100000D02*
X143120000Y-101100000D01*
X140880000Y-101220000D02*
X143120000Y-101220000D01*
X142000000Y-99730000D02*
X142000000Y-100380000D01*
X142000000Y-105270000D02*
X142000000Y-104620000D01*
X140880000Y-100380000D02*
X143120000Y-100380000D01*
X143120000Y-104620000D01*
X140880000Y-104620000D01*
X140880000Y-100380000D01*
%TO.C,a5*%
D10*
X148054824Y-117089780D02*
X148054824Y-116289780D01*
X148054824Y-119939780D02*
X148054824Y-120179780D01*
X150054824Y-114289780D02*
X155954824Y-114289780D01*
X157454824Y-114289780D02*
X159004824Y-114289780D01*
X158504824Y-118339780D02*
X153940000Y-118339780D01*
X159004824Y-114289780D02*
X159004824Y-114519780D01*
X159004824Y-117369780D02*
X159004824Y-117839780D01*
X148054824Y-116289780D02*
G75*
G02*
X150054824Y-114289780I2000004J-4D01*
G01*
X151645678Y-120179780D02*
G75*
G02*
X153940000Y-118339780I2293456J-509332D01*
G01*
X159004824Y-117839780D02*
G75*
G02*
X158504824Y-118339780I-500001J1D01*
G01*
%TO.C,a9*%
X128054824Y-77089780D02*
X128054824Y-76289780D01*
X128054824Y-79939780D02*
X128054824Y-80179780D01*
X130054824Y-74289780D02*
X135954824Y-74289780D01*
X137454824Y-74289780D02*
X139004824Y-74289780D01*
X138504824Y-78339780D02*
X133940000Y-78339780D01*
X139004824Y-74289780D02*
X139004824Y-74519780D01*
X139004824Y-77369780D02*
X139004824Y-77839780D01*
X128054824Y-76289780D02*
G75*
G02*
X130054824Y-74289780I2000004J-4D01*
G01*
X131645678Y-80179780D02*
G75*
G02*
X133940000Y-78339780I2293456J-509332D01*
G01*
X139004824Y-77839780D02*
G75*
G02*
X138504824Y-78339780I-500001J1D01*
G01*
%TD*%
M02*
