M48
; DRILL file KiCad 10.0.1 date 2026-05-09T19:58:30
; FORMAT={-:-/ absolute / metric / decimal}
; #@! TF.CreationDate,2026-05-09T19:58:30+05:30
; #@! TF.GenerationSoftware,Kicad,Pcbnew,10.0.1
; #@! TF.FileFunction,Plated,1,2,PTH
FMAT,2
METRIC
; #@! TA.AperFunction,Plated,PTH,ViaDrill
T1C0.300
; #@! TA.AperFunction,Plated,PTH,ComponentDrill
T2C0.800
; #@! TA.AperFunction,Plated,PTH,ComponentDrill
T3C1.000
; #@! TA.AperFunction,Plated,PTH,ComponentDrill
T4C1.500
; #@! TA.AperFunction,Plated,PTH,ComponentDrill
T5C3.000
%
G90
G05
T1
X116.038Y-78.834
X123.774Y-117.266
X132.957Y-109.741
X140.669Y-71.342
X154.456Y-86.428
X155.254Y-104.493
T2
X106.5Y-81.0
X106.5Y-86.0
X106.5Y-101.0
X106.5Y-106.0
X106.5Y-121.0
X106.5Y-126.0
X122.0Y-78.38
X122.0Y-86.0
X122.0Y-98.38
X122.0Y-106.0
X122.0Y-118.38
X122.0Y-126.0
X126.5Y-81.0
X126.5Y-86.0
X126.5Y-101.0
X126.5Y-106.0
X126.5Y-121.0
X126.5Y-126.0
X142.0Y-78.69
X142.0Y-86.31
X142.0Y-98.69
X142.0Y-106.31
X142.0Y-118.69
X142.0Y-126.31
X146.0Y-101.0
X146.0Y-106.0
X146.5Y-81.0
X146.5Y-86.0
X146.5Y-121.0
X146.5Y-126.0
X162.0Y-78.5
X162.0Y-86.12
X162.0Y-98.5
X162.0Y-106.12
X162.0Y-118.5
X162.0Y-126.12
T3
X143.225Y-54.965
X143.225Y-57.505
X143.225Y-60.045
X143.225Y-62.585
X148.5Y-56.5
X148.5Y-59.0
X148.5Y-61.5
X163.0Y-56.5
X163.0Y-61.5
X169.0Y-58.225
X169.0Y-60.765
X170.2Y-126.5
X171.0Y-71.98
X171.0Y-74.52
X171.0Y-77.06
X171.0Y-79.6
X171.0Y-82.14
X171.0Y-84.68
X171.0Y-87.22
X171.0Y-89.76
X171.0Y-92.3
X171.0Y-94.84
X171.0Y-97.38
X171.0Y-99.92
X171.0Y-102.46
X171.0Y-105.0
X171.0Y-107.54
X171.0Y-110.08
X171.0Y-112.62
X171.0Y-115.16
X171.0Y-117.7
X171.0Y-120.24
X177.8Y-126.5
X188.78Y-71.98
X188.78Y-74.52
X188.78Y-77.06
X188.78Y-79.6
X188.78Y-82.14
X188.78Y-84.68
X188.78Y-87.22
X188.78Y-89.76
X188.78Y-92.3
X188.78Y-94.84
X188.78Y-97.38
X188.78Y-99.92
X188.78Y-102.46
X188.78Y-105.0
X188.78Y-107.54
X188.78Y-110.08
X188.78Y-112.62
X188.78Y-115.16
X188.78Y-117.7
X188.78Y-120.24
T5
X110.33Y-78.5
X110.33Y-98.5
X110.33Y-118.5
X116.68Y-75.96
X116.68Y-95.96
X116.68Y-115.96
X130.33Y-78.5
X130.33Y-98.5
X130.33Y-118.5
X136.68Y-75.96
X136.68Y-95.96
X136.68Y-115.96
X150.33Y-78.5
X150.33Y-98.5
X150.33Y-118.5
X156.68Y-75.96
X156.68Y-95.96
X156.68Y-115.96
T4
G00X155.35Y-53.4
M15
G01X156.65Y-53.4
M16
G05
G00X155.35Y-64.6
M15
G01X156.65Y-64.6
M16
G05
M30
