M48
; DRILL file KiCad 10.0.1 date 2026-05-09T19:58:30
; FORMAT={-:-/ absolute / metric / decimal}
; #@! TF.CreationDate,2026-05-09T19:58:30+05:30
; #@! TF.GenerationSoftware,Kicad,Pcbnew,10.0.1
; #@! TF.FileFunction,NonPlated,1,2,NPTH
FMAT,2
METRIC
; #@! TA.AperFunction,NonPlated,NPTH,ComponentDrill
T1C1.750
; #@! TA.AperFunction,NonPlated,NPTH,ComponentDrill
T2C1.850
; #@! TA.AperFunction,NonPlated,NPTH,ComponentDrill
T3C2.200
; #@! TA.AperFunction,NonPlated,NPTH,ComponentDrill
T4C3.988
%
G90
G05
T1
X109.06Y-81.04
X109.06Y-101.04
X109.06Y-121.04
X119.22Y-81.04
X119.22Y-101.04
X119.22Y-121.04
X129.06Y-81.04
X129.06Y-101.04
X129.06Y-121.04
X139.22Y-81.04
X139.22Y-101.04
X139.22Y-121.04
X149.06Y-81.04
X149.06Y-101.04
X149.06Y-121.04
X159.22Y-81.04
X159.22Y-101.04
X159.22Y-121.04
T2
X177.465Y-75.14
X182.315Y-75.14
T3
X177.165Y-72.11
X182.615Y-72.11
T4
X114.14Y-81.04
X114.14Y-101.04
X114.14Y-121.04
X134.14Y-81.04
X134.14Y-101.04
X134.14Y-121.04
X154.14Y-81.04
X154.14Y-101.04
X154.14Y-121.04
M30
