%TF.GenerationSoftware,KiCad,Pcbnew,10.0.1*%
%TF.CreationDate,2026-05-09T19:58:26+05:30*%
%TF.ProjectId,ValkDeck,56616c6b-4465-4636-9b2e-6b696361645f,rev?*%
%TF.SameCoordinates,Original*%
%TF.FileFunction,Copper,L1,Top*%
%TF.FilePolarity,Positive*%
%FSLAX46Y46*%
G04 Gerber Fmt 4.6, Leading zero omitted, Abs format (unit mm)*
G04 Created by KiCad (PCBNEW 10.0.1) date 2026-05-09 19:58:26*
%MOMM*%
%LPD*%
G01*
G04 APERTURE LIST*
G04 Aperture macros list*
%AMRoundRect*
0 Rectangle with rounded corners*
0 $1 Rounding radius*
0 $2 $3 $4 $5 $6 $7 $8 $9 X,Y pos of 4 corners*
0 Add a 4 corners polygon primitive as box body*
4,1,4,$2,$3,$4,$5,$6,$7,$8,$9,$2,$3,0*
0 Add four circle primitives for the rounded corners*
1,1,$1+$1,$2,$3*
1,1,$1+$1,$4,$5*
1,1,$1+$1,$6,$7*
1,1,$1+$1,$8,$9*
0 Add four rect primitives between the rounded corners*
20,1,$1+$1,$2,$3,$4,$5,0*
20,1,$1+$1,$4,$5,$6,$7,0*
20,1,$1+$1,$6,$7,$8,$9,0*
20,1,$1+$1,$8,$9,$2,$3,0*%
%AMFreePoly0*
4,1,37,0.800000,0.796148,0.878414,0.796148,1.032228,0.765552,1.177117,0.705537,1.307515,0.618408,1.418408,0.507515,1.505537,0.377117,1.565552,0.232228,1.596148,0.078414,1.596148,-0.078414,1.565552,-0.232228,1.505537,-0.377117,1.418408,-0.507515,1.307515,-0.618408,1.177117,-0.705537,1.032228,-0.765552,0.878414,-0.796148,0.800000,-0.796148,0.800000,-0.800000,-1.400000,-0.800000,
-1.403843,-0.796157,-1.439018,-0.796157,-1.511114,-0.766294,-1.566294,-0.711114,-1.596157,-0.639018,-1.596157,-0.603843,-1.600000,-0.600000,-1.600000,0.600000,-1.596157,0.603843,-1.596157,0.639018,-1.566294,0.711114,-1.511114,0.766294,-1.439018,0.796157,-1.403843,0.796157,-1.400000,0.800000,0.800000,0.800000,0.800000,0.796148,0.800000,0.796148,$1*%
%AMFreePoly1*
4,1,37,1.403843,0.796157,1.439018,0.796157,1.511114,0.766294,1.566294,0.711114,1.596157,0.639018,1.596157,0.603843,1.600000,0.600000,1.600000,-0.600000,1.596157,-0.603843,1.596157,-0.639018,1.566294,-0.711114,1.511114,-0.766294,1.439018,-0.796157,1.403843,-0.796157,1.400000,-0.800000,-0.800000,-0.800000,-0.800000,-0.796148,-0.878414,-0.796148,-1.032228,-0.765552,-1.177117,-0.705537,
-1.307515,-0.618408,-1.418408,-0.507515,-1.505537,-0.377117,-1.565552,-0.232228,-1.596148,-0.078414,-1.596148,0.078414,-1.565552,0.232228,-1.505537,0.377117,-1.418408,0.507515,-1.307515,0.618408,-1.177117,0.705537,-1.032228,0.765552,-0.878414,0.796148,-0.800000,0.796148,-0.800000,0.800000,1.400000,0.800000,1.403843,0.796157,1.403843,0.796157,$1*%
%AMFreePoly2*
4,1,37,0.603843,0.796157,0.639018,0.796157,0.711114,0.766294,0.766294,0.711114,0.796157,0.639018,0.796157,0.603843,0.800000,0.600000,0.800000,-0.600000,0.796157,-0.603843,0.796157,-0.639018,0.766294,-0.711114,0.711114,-0.766294,0.639018,-0.796157,0.603843,-0.796157,0.600000,-0.800000,0.000000,-0.800000,0.000000,-0.796148,-0.078414,-0.796148,-0.232228,-0.765552,-0.377117,-0.705537,
-0.507515,-0.618408,-0.618408,-0.507515,-0.705537,-0.377117,-0.765552,-0.232228,-0.796148,-0.078414,-0.796148,0.078414,-0.765552,0.232228,-0.705537,0.377117,-0.618408,0.507515,-0.507515,0.618408,-0.377117,0.705537,-0.232228,0.765552,-0.078414,0.796148,0.000000,0.796148,0.000000,0.800000,0.600000,0.800000,0.603843,0.796157,0.603843,0.796157,$1*%
%AMFreePoly3*
4,1,37,0.000000,0.796148,0.078414,0.796148,0.232228,0.765552,0.377117,0.705537,0.507515,0.618408,0.618408,0.507515,0.705537,0.377117,0.765552,0.232228,0.796148,0.078414,0.796148,-0.078414,0.765552,-0.232228,0.705537,-0.377117,0.618408,-0.507515,0.507515,-0.618408,0.377117,-0.705537,0.232228,-0.765552,0.078414,-0.796148,0.000000,-0.796148,0.000000,-0.800000,-0.600000,-0.800000,
-0.603843,-0.796157,-0.639018,-0.796157,-0.711114,-0.766294,-0.766294,-0.711114,-0.796157,-0.639018,-0.796157,-0.603843,-0.800000,-0.600000,-0.800000,0.600000,-0.796157,0.603843,-0.796157,0.639018,-0.766294,0.711114,-0.711114,0.766294,-0.639018,0.796157,-0.603843,0.796157,-0.600000,0.800000,0.000000,0.800000,0.000000,0.796148,0.000000,0.796148,$1*%
G04 Aperture macros list end*
%TA.AperFunction,SMDPad,CuDef*%
%ADD10RoundRect,0.090000X-0.660000X-0.360000X0.660000X-0.360000X0.660000X0.360000X-0.660000X0.360000X0*%
%TD*%
%TA.AperFunction,ComponentPad*%
%ADD11R,1.700000X1.700000*%
%TD*%
%TA.AperFunction,ComponentPad*%
%ADD12C,1.700000*%
%TD*%
%TA.AperFunction,ComponentPad*%
%ADD13RoundRect,0.170000X-0.680000X0.680000X-0.680000X-0.680000X0.680000X-0.680000X0.680000X0.680000X0*%
%TD*%
%TA.AperFunction,SMDPad,CuDef*%
%ADD14FreePoly0,0.000000*%
%TD*%
%TA.AperFunction,ComponentPad*%
%ADD15RoundRect,0.200000X-0.600000X-0.600000X0.600000X-0.600000X0.600000X0.600000X-0.600000X0.600000X0*%
%TD*%
%TA.AperFunction,SMDPad,CuDef*%
%ADD16RoundRect,0.800000X-0.800000X-0.000010X0.800000X-0.000010X0.800000X0.000010X-0.800000X0.000010X0*%
%TD*%
%TA.AperFunction,ComponentPad*%
%ADD17C,1.600000*%
%TD*%
%TA.AperFunction,SMDPad,CuDef*%
%ADD18FreePoly1,0.000000*%
%TD*%
%TA.AperFunction,ComponentPad*%
%ADD19FreePoly2,0.000000*%
%TD*%
%TA.AperFunction,ComponentPad*%
%ADD20FreePoly3,0.000000*%
%TD*%
%TA.AperFunction,ComponentPad*%
%ADD21R,2.000000X2.000000*%
%TD*%
%TA.AperFunction,ComponentPad*%
%ADD22C,2.000000*%
%TD*%
%TA.AperFunction,ComponentPad*%
%ADD23R,3.200000X2.000000*%
%TD*%
%TA.AperFunction,ComponentPad*%
%ADD24RoundRect,0.250000X-0.550000X0.550000X-0.550000X-0.550000X0.550000X-0.550000X0.550000X0.550000X0*%
%TD*%
%TA.AperFunction,ComponentPad*%
%ADD25C,3.300000*%
%TD*%
%TA.AperFunction,ComponentPad*%
%ADD26RoundRect,0.250000X0.550000X-0.550000X0.550000X0.550000X-0.550000X0.550000X-0.550000X-0.550000X0*%
%TD*%
%TA.AperFunction,ViaPad*%
%ADD27C,0.600000*%
%TD*%
%TA.AperFunction,Conductor*%
%ADD28C,0.200000*%
%TD*%
G04 APERTURE END LIST*
D10*
%TO.P,D12,1,VDD_1*%
%TO.N,Net-(D12-VDD)*%
X111690000Y-69200000D03*
%TO.P,D12,2,DOUT_2*%
%TO.N,Net-(D12-DOUT)*%
X111690000Y-72500000D03*
%TO.P,D12,3,VSS_3*%
%TO.N,GND*%
X116590000Y-72500000D03*
%TO.P,D12,4,DIN_4*%
%TO.N,Net-(D11-DOUT)*%
X116590000Y-69200000D03*
%TD*%
D11*
%TO.P,J1,1,Pin_1_1*%
%TO.N,Net-(A1-GPIO18)*%
X169000000Y-58225000D03*
D12*
%TO.P,J1,2,Pin_2_2*%
%TO.N,GND*%
X169000000Y-60765000D03*
%TD*%
D13*
%TO.P,U1,1,GND_1*%
%TO.N,GND*%
X143225000Y-54965000D03*
D12*
%TO.P,U1,2,VCC_2*%
%TO.N,+3.3V*%
X143225000Y-57505000D03*
%TO.P,U1,3,SCL_3*%
%TO.N,/OLED_SCL*%
X143225000Y-60045000D03*
%TO.P,U1,4,SDA_4*%
%TO.N,/OLED_SDA*%
X143225000Y-62585000D03*
%TD*%
D10*
%TO.P,D10,1,VDD_1*%
%TO.N,Net-(D10-VDD)*%
X111690000Y-109200000D03*
%TO.P,D10,2,DOUT_2*%
%TO.N,Net-(D10-DOUT)*%
X111690000Y-112500000D03*
%TO.P,D10,3,VSS_3*%
%TO.N,GND*%
X116590000Y-112500000D03*
%TO.P,D10,4,DIN_4*%
%TO.N,Net-(A1-GPIO15)*%
X116590000Y-109200000D03*
%TD*%
D14*
%TO.P,A1,1,GPIO0_1*%
%TO.N,Net-(A1-GPIO0)*%
X170200000Y-71980000D03*
D15*
X171000000Y-71980000D03*
D16*
%TO.P,A1,2,GPIO1_2*%
%TO.N,Net-(A1-GPIO1)*%
X170200000Y-74520000D03*
D17*
X171000000Y-74520000D03*
D18*
%TO.P,A1,3,GND_3*%
%TO.N,GND*%
X170200000Y-77060000D03*
D19*
X171000000Y-77060000D03*
D16*
%TO.P,A1,4,GPIO2_4*%
%TO.N,Net-(A1-GPIO2)*%
X170200000Y-79600000D03*
D17*
X171000000Y-79600000D03*
D16*
%TO.P,A1,5,GPIO3_5*%
%TO.N,Net-(A1-GPIO3)*%
X170200000Y-82140000D03*
D17*
X171000000Y-82140000D03*
D16*
%TO.P,A1,6,GPIO4_6*%
%TO.N,Net-(A1-GPIO4)*%
X170200000Y-84680000D03*
D17*
X171000000Y-84680000D03*
D16*
%TO.P,A1,7,GPIO5_7*%
%TO.N,Net-(A1-GPIO5)*%
X170200000Y-87220000D03*
D17*
X171000000Y-87220000D03*
D18*
%TO.P,A1,8,GND_8*%
%TO.N,GND*%
X170200000Y-89760000D03*
D19*
X171000000Y-89760000D03*
D16*
%TO.P,A1,9,GPIO6_9*%
%TO.N,unconnected-(A1-GPIO6-Pad9)_1*%
X170200000Y-92300000D03*
D17*
%TO.N,unconnected-(A1-GPIO6-Pad9)*%
X171000000Y-92300000D03*
D16*
%TO.P,A1,10,GPIO7_10*%
%TO.N,unconnected-(A1-GPIO7-Pad10)*%
X170200000Y-94840000D03*
D17*
%TO.N,unconnected-(A1-GPIO7-Pad10)_1*%
X171000000Y-94840000D03*
D16*
%TO.P,A1,11,GPIO8_11*%
%TO.N,unconnected-(A1-GPIO8-Pad11)*%
X170200000Y-97380000D03*
D17*
%TO.N,unconnected-(A1-GPIO8-Pad11)_1*%
X171000000Y-97380000D03*
D16*
%TO.P,A1,12,GPIO9_12*%
%TO.N,Net-(A1-GPIO9)*%
X170200000Y-99920000D03*
D17*
X171000000Y-99920000D03*
D18*
%TO.P,A1,13,GND_13*%
%TO.N,GND*%
X170200000Y-102460000D03*
D19*
X171000000Y-102460000D03*
D16*
%TO.P,A1,14,GPIO10_14*%
%TO.N,Net-(A1-GPIO10)*%
X170200000Y-105000000D03*
D17*
X171000000Y-105000000D03*
D16*
%TO.P,A1,15,GPIO11_15*%
%TO.N,Net-(A1-GPIO11)*%
X170200000Y-107540000D03*
D17*
X171000000Y-107540000D03*
D16*
%TO.P,A1,16,GPIO12_16*%
%TO.N,unconnected-(A1-GPIO12-Pad16)_1*%
X170200000Y-110080000D03*
D17*
%TO.N,unconnected-(A1-GPIO12-Pad16)*%
X171000000Y-110080000D03*
D16*
%TO.P,A1,17,GPIO13_17*%
%TO.N,unconnected-(A1-GPIO13-Pad17)*%
X170200000Y-112620000D03*
D17*
%TO.N,unconnected-(A1-GPIO13-Pad17)_1*%
X171000000Y-112620000D03*
D18*
%TO.P,A1,18,GND_18*%
%TO.N,GND*%
X170200000Y-115160000D03*
D19*
X171000000Y-115160000D03*
D16*
%TO.P,A1,19,GPIO14_19*%
%TO.N,unconnected-(A1-GPIO14-Pad19)*%
X170200000Y-117700000D03*
D17*
%TO.N,unconnected-(A1-GPIO14-Pad19)_1*%
X171000000Y-117700000D03*
D16*
%TO.P,A1,20,GPIO15_20*%
%TO.N,Net-(A1-GPIO15)*%
X170200000Y-120240000D03*
D17*
X171000000Y-120240000D03*
%TO.P,A1,21,GPIO16_21*%
%TO.N,/OLED_SCL*%
X188780000Y-120240000D03*
D16*
X189580000Y-120240000D03*
D17*
%TO.P,A1,22,GPIO17_22*%
%TO.N,/OLED_SDA*%
X188780000Y-117700000D03*
D16*
X189580000Y-117700000D03*
D20*
%TO.P,A1,23,GND_23*%
%TO.N,GND*%
X188780000Y-115160000D03*
D14*
X189580000Y-115160000D03*
D17*
%TO.P,A1,24,GPIO18_24*%
%TO.N,Net-(A1-GPIO18)*%
X188780000Y-112620000D03*
D16*
X189580000Y-112620000D03*
D17*
%TO.P,A1,25,GPIO19_25*%
%TO.N,Net-(A1-GPIO19)*%
X188780000Y-110080000D03*
D16*
X189580000Y-110080000D03*
D17*
%TO.P,A1,26,GPIO20_26*%
%TO.N,unconnected-(A1-GPIO20-Pad26)_1*%
X188780000Y-107540000D03*
D16*
%TO.N,unconnected-(A1-GPIO20-Pad26)*%
X189580000Y-107540000D03*
D17*
%TO.P,A1,27,GPIO21_27*%
%TO.N,unconnected-(A1-GPIO21-Pad27)*%
X188780000Y-105000000D03*
D16*
%TO.N,unconnected-(A1-GPIO21-Pad27)_1*%
X189580000Y-105000000D03*
D20*
%TO.P,A1,28,GND_28*%
%TO.N,GND*%
X188780000Y-102460000D03*
D14*
X189580000Y-102460000D03*
D17*
%TO.P,A1,29,GPIO22_29*%
%TO.N,unconnected-(A1-GPIO22-Pad29)_1*%
X188780000Y-99920000D03*
D16*
%TO.N,unconnected-(A1-GPIO22-Pad29)*%
X189580000Y-99920000D03*
D17*
%TO.P,A1,30,RUN_30*%
%TO.N,unconnected-(A1-RUN-Pad30)_1*%
X188780000Y-97380000D03*
D16*
%TO.N,unconnected-(A1-RUN-Pad30)*%
X189580000Y-97380000D03*
D17*
%TO.P,A1,31,GPIO26_ADC0_31*%
%TO.N,unconnected-(A1-GPIO26_ADC0-Pad31)*%
X188780000Y-94840000D03*
D16*
%TO.N,unconnected-(A1-GPIO26_ADC0-Pad31)_1*%
X189580000Y-94840000D03*
D17*
%TO.P,A1,32,GPIO27_ADC1_32*%
%TO.N,unconnected-(A1-GPIO27_ADC1-Pad32)_1*%
X188780000Y-92300000D03*
D16*
%TO.N,unconnected-(A1-GPIO27_ADC1-Pad32)*%
X189580000Y-92300000D03*
D20*
%TO.P,A1,33,AGND_33*%
%TO.N,unconnected-(A1-AGND-Pad33)*%
X188780000Y-89760000D03*
D14*
%TO.N,unconnected-(A1-AGND-Pad33)_1*%
X189580000Y-89760000D03*
D17*
%TO.P,A1,34,GPIO28_ADC2_34*%
%TO.N,unconnected-(A1-GPIO28_ADC2-Pad34)_1*%
X188780000Y-87220000D03*
D16*
%TO.N,unconnected-(A1-GPIO28_ADC2-Pad34)*%
X189580000Y-87220000D03*
D17*
%TO.P,A1,35,ADC_VREF_35*%
%TO.N,unconnected-(A1-ADC_VREF-Pad35)*%
X188780000Y-84680000D03*
D16*
%TO.N,unconnected-(A1-ADC_VREF-Pad35)_1*%
X189580000Y-84680000D03*
D17*
%TO.P,A1,36,3V3_36*%
%TO.N,+3.3V*%
X188780000Y-82140000D03*
D16*
X189580000Y-82140000D03*
D17*
%TO.P,A1,37,3V3_EN_37*%
%TO.N,unconnected-(A1-3V3_EN-Pad37)*%
X188780000Y-79600000D03*
D16*
%TO.N,unconnected-(A1-3V3_EN-Pad37)_1*%
X189580000Y-79600000D03*
D20*
%TO.P,A1,38,GND_38*%
%TO.N,GND*%
X188780000Y-77060000D03*
D14*
X189580000Y-77060000D03*
D17*
%TO.P,A1,39,VSYS_39*%
%TO.N,unconnected-(A1-VSYS-Pad39)_1*%
X188780000Y-74520000D03*
D16*
%TO.N,unconnected-(A1-VSYS-Pad39)*%
X189580000Y-74520000D03*
D17*
%TO.P,A1,40,VBUS_40*%
%TO.N,+5V*%
X188780000Y-71980000D03*
D16*
X189580000Y-71980000D03*
%TD*%
D10*
%TO.P,D11,1,VDD_1*%
%TO.N,Net-(D11-VDD)*%
X111690000Y-89200000D03*
%TO.P,D11,2,DOUT_2*%
%TO.N,Net-(D11-DOUT)*%
X111690000Y-92500000D03*
%TO.P,D11,3,VSS_3*%
%TO.N,GND*%
X116590000Y-92500000D03*
%TO.P,D11,4,DIN_4*%
%TO.N,Net-(D10-DOUT)*%
X116590000Y-89200000D03*
%TD*%
D21*
%TO.P,SW1,A,A_A*%
%TO.N,Net-(A1-GPIO4)*%
X148500000Y-56500000D03*
D22*
%TO.P,SW1,B,B_B*%
%TO.N,Net-(A1-GPIO3)*%
X148500000Y-61500000D03*
%TO.P,SW1,C,C_C*%
%TO.N,GND*%
X148500000Y-59000000D03*
D23*
%TO.P,SW1,MP*%
%TO.N,N/C*%
X156000000Y-53400000D03*
X156000000Y-64600000D03*
D22*
%TO.P,SW1,S1,S1_S1*%
%TO.N,Net-(A1-GPIO5)*%
X163000000Y-61500000D03*
%TO.P,SW1,S2,S2_S2*%
%TO.N,GND*%
X163000000Y-56500000D03*
%TD*%
D10*
%TO.P,D18,1,VDD_1*%
%TO.N,Net-(D18-VDD)*%
X151550000Y-69350000D03*
%TO.P,D18,2,DOUT_2*%
%TO.N,unconnected-(D18-DOUT-Pad2)*%
X151550000Y-72650000D03*
%TO.P,D18,3,VSS_3*%
%TO.N,GND*%
X156450000Y-72650000D03*
%TO.P,D18,4,DIN_4*%
%TO.N,Net-(D17-DOUT)*%
X156450000Y-69350000D03*
%TD*%
%TO.P,D14,1,VDD_1*%
%TO.N,Net-(D14-VDD)*%
X131690000Y-89350000D03*
%TO.P,D14,2,DOUT_2*%
%TO.N,Net-(D14-DOUT)*%
X131690000Y-92650000D03*
%TO.P,D14,3,VSS_3*%
%TO.N,GND*%
X136590000Y-92650000D03*
%TO.P,D14,4,DIN_4*%
%TO.N,Net-(D13-DOUT)*%
X136590000Y-89350000D03*
%TD*%
%TO.P,D16,1,VDD_1*%
%TO.N,Net-(D16-VDD)*%
X151550000Y-89350000D03*
%TO.P,D16,2,DOUT_2*%
%TO.N,Net-(D16-DOUT)*%
X151550000Y-92650000D03*
%TO.P,D16,3,VSS_3*%
%TO.N,GND*%
X156450000Y-92650000D03*
%TO.P,D16,4,DIN_4*%
%TO.N,Net-(D15-DOUT)*%
X156450000Y-89350000D03*
%TD*%
%TO.P,D13,1,VDD_1*%
%TO.N,Net-(D13-VDD)*%
X131690000Y-109350000D03*
%TO.P,D13,2,DOUT_2*%
%TO.N,Net-(D13-DOUT)*%
X131690000Y-112650000D03*
%TO.P,D13,3,VSS_3*%
%TO.N,GND*%
X136590000Y-112650000D03*
%TO.P,D13,4,DIN_4*%
%TO.N,Net-(D12-DOUT)*%
X136590000Y-109350000D03*
%TD*%
%TO.P,D17,1,VDD_1*%
%TO.N,Net-(D17-VDD)*%
X151550000Y-109350000D03*
%TO.P,D17,2,DOUT_2*%
%TO.N,Net-(D17-DOUT)*%
X151550000Y-112650000D03*
%TO.P,D17,3,VSS_3*%
%TO.N,GND*%
X156450000Y-112650000D03*
%TO.P,D17,4,DIN_4*%
%TO.N,Net-(D16-DOUT)*%
X156450000Y-109350000D03*
%TD*%
%TO.P,D15,1,VDD_1*%
%TO.N,Net-(D15-VDD)*%
X131550000Y-69350000D03*
%TO.P,D15,2,DOUT_2*%
%TO.N,Net-(D15-DOUT)*%
X131550000Y-72650000D03*
%TO.P,D15,3,VSS_3*%
%TO.N,GND*%
X136450000Y-72650000D03*
%TO.P,D15,4,DIN_4*%
%TO.N,Net-(D14-DOUT)*%
X136450000Y-69350000D03*
%TD*%
D24*
%TO.P,D6,1,K_1*%
%TO.N,Net-(A1-GPIO10)*%
X162000000Y-98500000D03*
D17*
%TO.P,D6,2,A_2*%
%TO.N,Net-(D6-A)*%
X162000000Y-106120000D03*
%TD*%
%TO.P,C10,1*%
%TO.N,+5V*%
X146500000Y-81000000D03*
%TO.P,C10,2*%
%TO.N,Net-(D18-VDD)*%
X146500000Y-86000000D03*
%TD*%
%TO.P,C5,1*%
%TO.N,+5V*%
X126500000Y-121000000D03*
%TO.P,C5,2*%
%TO.N,Net-(D13-VDD)*%
X126500000Y-126000000D03*
%TD*%
D25*
%TO.P,a8,1,1_1*%
%TO.N,Net-(A1-GPIO0)*%
X110330000Y-78500000D03*
%TO.P,a8,2,2_2*%
%TO.N,Net-(D1-A)*%
X116680000Y-75960000D03*
%TD*%
%TO.P,a7,1,1_1*%
%TO.N,Net-(A1-GPIO0)*%
X110330000Y-118500000D03*
%TO.P,a7,2,2_2*%
%TO.N,Net-(D7-A)*%
X116680000Y-115960000D03*
%TD*%
D17*
%TO.P,C4,1*%
%TO.N,+5V*%
X106500000Y-81000000D03*
%TO.P,C4,2*%
%TO.N,Net-(D12-VDD)*%
X106500000Y-86000000D03*
%TD*%
%TO.P,C7,1*%
%TO.N,+5V*%
X126500000Y-81000000D03*
%TO.P,C7,2*%
%TO.N,Net-(D15-VDD)*%
X126500000Y-86000000D03*
%TD*%
D25*
%TO.P,a6,1,1_1*%
%TO.N,Net-(A1-GPIO0)*%
X110330000Y-98500000D03*
%TO.P,a6,2,2_2*%
%TO.N,Net-(D4-A)*%
X116680000Y-95960000D03*
%TD*%
D24*
%TO.P,D2,1,K_1*%
%TO.N,Net-(A1-GPIO9)*%
X142000000Y-78690000D03*
D17*
%TO.P,D2,2,A_2*%
%TO.N,Net-(D2-A)*%
X142000000Y-86310000D03*
%TD*%
%TO.P,C3,1*%
%TO.N,+5V*%
X106500000Y-101000000D03*
%TO.P,C3,2*%
%TO.N,Net-(D11-VDD)*%
X106500000Y-106000000D03*
%TD*%
D24*
%TO.P,D9,1,K_1*%
%TO.N,Net-(A1-GPIO11)*%
X162000000Y-118500000D03*
D17*
%TO.P,D9,2,A_2*%
%TO.N,Net-(D9-A)*%
X162000000Y-126120000D03*
%TD*%
D24*
%TO.P,D3,1,K_1*%
%TO.N,Net-(A1-GPIO9)*%
X162000000Y-78500000D03*
D17*
%TO.P,D3,2,A_2*%
%TO.N,Net-(D3-A)*%
X162000000Y-86120000D03*
%TD*%
D21*
%TO.P,BZ1,1,+_1*%
%TO.N,Net-(A1-GPIO19)*%
X177800000Y-126500000D03*
D22*
%TO.P,BZ1,2,-_2*%
%TO.N,GND*%
X170200000Y-126500000D03*
%TD*%
D17*
%TO.P,C2,1*%
%TO.N,+5V*%
X106500000Y-121000000D03*
%TO.P,C2,2*%
%TO.N,Net-(D10-VDD)*%
X106500000Y-126000000D03*
%TD*%
%TO.P,C6,1*%
%TO.N,+5V*%
X126500000Y-101000000D03*
%TO.P,C6,2*%
%TO.N,Net-(D14-VDD)*%
X126500000Y-106000000D03*
%TD*%
D25*
%TO.P,a2,1,1_1*%
%TO.N,Net-(A1-GPIO1)*%
X130330000Y-118500000D03*
%TO.P,a2,2,2_2*%
%TO.N,Net-(D5-A)*%
X136680000Y-115960000D03*
%TD*%
D24*
%TO.P,D8,1,K_1*%
%TO.N,Net-(A1-GPIO11)*%
X142000000Y-118690000D03*
D17*
%TO.P,D8,2,A_2*%
%TO.N,Net-(D8-A)*%
X142000000Y-126310000D03*
%TD*%
D25*
%TO.P,a4,1,1_1*%
%TO.N,Net-(A1-GPIO2)*%
X150330000Y-98500000D03*
%TO.P,a4,2,2_2*%
%TO.N,Net-(D6-A)*%
X156680000Y-95960000D03*
%TD*%
%TO.P,a3,1,1_1*%
%TO.N,Net-(A1-GPIO1)*%
X130330000Y-98500000D03*
%TO.P,a3,2,2_2*%
%TO.N,Net-(D8-A)*%
X136680000Y-95960000D03*
%TD*%
D24*
%TO.P,D4,1,K_1*%
%TO.N,Net-(A1-GPIO10)*%
X122000000Y-98380000D03*
D17*
%TO.P,D4,2,A_2*%
%TO.N,Net-(D4-A)*%
X122000000Y-106000000D03*
%TD*%
D25*
%TO.P,a10,1,1_1*%
%TO.N,Net-(A1-GPIO2)*%
X150330000Y-78500000D03*
%TO.P,a10,2,2_2*%
%TO.N,Net-(D3-A)*%
X156680000Y-75960000D03*
%TD*%
D24*
%TO.P,D7,1,K_1*%
%TO.N,Net-(A1-GPIO11)*%
X122000000Y-118380000D03*
D17*
%TO.P,D7,2,A_2*%
%TO.N,Net-(D7-A)*%
X122000000Y-126000000D03*
%TD*%
D26*
%TO.P,D1,1,K_1*%
%TO.N,Net-(A1-GPIO9)*%
X122000000Y-86000000D03*
D17*
%TO.P,D1,2,A_2*%
%TO.N,Net-(D1-A)*%
X122000000Y-78380000D03*
%TD*%
%TO.P,C9,1*%
%TO.N,+5V*%
X146500000Y-126000000D03*
%TO.P,C9,2*%
%TO.N,Net-(D17-VDD)*%
X146500000Y-121000000D03*
%TD*%
%TO.P,C8,1*%
%TO.N,+5V*%
X146000000Y-101000000D03*
%TO.P,C8,2*%
%TO.N,Net-(D16-VDD)*%
X146000000Y-106000000D03*
%TD*%
D24*
%TO.P,D5,1,K_1*%
%TO.N,Net-(A1-GPIO10)*%
X142000000Y-98690000D03*
D17*
%TO.P,D5,2,A_2*%
%TO.N,Net-(D5-A)*%
X142000000Y-106310000D03*
%TD*%
D25*
%TO.P,a5,1,1_1*%
%TO.N,Net-(A1-GPIO2)*%
X150330000Y-118500000D03*
%TO.P,a5,2,2_2*%
%TO.N,Net-(D9-A)*%
X156680000Y-115960000D03*
%TD*%
%TO.P,a9,1,1_1*%
%TO.N,Net-(A1-GPIO1)*%
X130330000Y-78500000D03*
%TO.P,a9,2,2_2*%
%TO.N,Net-(D2-A)*%
X136680000Y-75960000D03*
%TD*%
D27*
%TO.N,Net-(D17-DOUT)*%
X154456000Y-86427800D03*
X155254500Y-104493100D03*
%TO.N,Net-(A1-GPIO0)*%
X140669000Y-71342400D03*
%TO.N,Net-(A1-GPIO15)*%
X123774100Y-117265900D03*
%TO.N,Net-(D12-DOUT)*%
X132957400Y-109740800D03*
X116037600Y-78833900D03*
%TD*%
%TO.N,Net-(D5-A)*%
D28*
X142000000Y-110640000D02*
X142000000Y-106310000D01*
X136680000Y-115960000D02*
X142000000Y-110640000D01*
%TO.N,Net-(D9-A)*%
X162000000Y-121280000D02*
X162000000Y-126120000D01*
X156680000Y-115960000D02*
X162000000Y-121280000D01*
%TO.N,Net-(D2-A)*%
X142000000Y-81280000D02*
X142000000Y-86310000D01*
X136680000Y-75960000D02*
X142000000Y-81280000D01*
%TO.N,Net-(D15-VDD)*%
X124929100Y-84429100D02*
X126500000Y-86000000D01*
X124929100Y-75970900D02*
X124929100Y-84429100D01*
X131550000Y-69350000D02*
X124929100Y-75970900D01*
%TO.N,Net-(D17-VDD)*%
X146500000Y-114400000D02*
X151550000Y-109350000D01*
X146500000Y-121000000D02*
X146500000Y-114400000D01*
%TO.N,Net-(D13-VDD)*%
X132829700Y-126000000D02*
X126500000Y-126000000D01*
X136734400Y-122095300D02*
X132829700Y-126000000D01*
X136734400Y-118939800D02*
X136734400Y-122095300D01*
X134640800Y-116846200D02*
X136734400Y-118939800D01*
X134640800Y-112300800D02*
X134640800Y-116846200D01*
X131690000Y-109350000D02*
X134640800Y-112300800D01*
%TO.N,Net-(D15-DOUT)*%
X154964500Y-87864500D02*
X156450000Y-89350000D01*
X133812900Y-87864500D02*
X154964500Y-87864500D01*
X127601700Y-81653300D02*
X133812900Y-87864500D01*
X127601700Y-76598300D02*
X127601700Y-81653300D01*
X131550000Y-72650000D02*
X127601700Y-76598300D01*
%TO.N,Net-(D16-DOUT)*%
X156710200Y-109089800D02*
X156450000Y-109350000D01*
X156710200Y-99536000D02*
X156710200Y-109089800D01*
X151550000Y-94375800D02*
X156710200Y-99536000D01*
X151550000Y-92650000D02*
X151550000Y-94375800D01*
%TO.N,Net-(D16-VDD)*%
X147600200Y-93299800D02*
X151550000Y-89350000D01*
X147600200Y-104399800D02*
X147600200Y-93299800D01*
X146000000Y-106000000D02*
X147600200Y-104399800D01*
%TO.N,Net-(D13-DOUT)*%
X130604100Y-111564100D02*
X131690000Y-112650000D01*
X130604100Y-108802200D02*
X130604100Y-111564100D01*
X136710100Y-102696200D02*
X130604100Y-108802200D01*
X136710100Y-99483400D02*
X136710100Y-102696200D01*
X134673300Y-97446600D02*
X136710100Y-99483400D01*
X134673300Y-91266700D02*
X134673300Y-97446600D01*
X136590000Y-89350000D02*
X134673300Y-91266700D01*
%TO.N,Net-(D14-DOUT)*%
X132796100Y-91543900D02*
X131690000Y-92650000D01*
X132796100Y-88866800D02*
X132796100Y-91543900D01*
X125382700Y-81453400D02*
X132796100Y-88866800D01*
X125382700Y-77240400D02*
X125382700Y-81453400D01*
X133273100Y-69350000D02*
X125382700Y-77240400D01*
X136450000Y-69350000D02*
X133273100Y-69350000D01*
%TO.N,Net-(D14-VDD)*%
X127617400Y-93422600D02*
X131690000Y-89350000D01*
X127617400Y-104882600D02*
X127617400Y-93422600D01*
X126500000Y-106000000D02*
X127617400Y-104882600D01*
%TO.N,Net-(D17-DOUT)*%
X155254500Y-108945500D02*
X151550000Y-112650000D01*
X155254500Y-104493100D02*
X155254500Y-108945500D01*
X150359700Y-86427800D02*
X154456000Y-86427800D01*
X145336500Y-81404600D02*
X150359700Y-86427800D01*
X145336500Y-80463500D02*
X145336500Y-81404600D01*
X156450000Y-69350000D02*
X145336500Y-80463500D01*
%TO.N,Net-(D18-VDD)*%
X144934800Y-84434800D02*
X146500000Y-86000000D01*
X144934800Y-75965200D02*
X144934800Y-84434800D01*
X151550000Y-69350000D02*
X144934800Y-75965200D01*
%TO.N,Net-(D11-VDD)*%
X105382400Y-95507600D02*
X111690000Y-89200000D01*
X105382400Y-104882400D02*
X105382400Y-95507600D01*
X106500000Y-106000000D02*
X105382400Y-104882400D01*
%TO.N,+5V*%
X123887300Y-123612700D02*
X126500000Y-121000000D01*
X109112700Y-123612700D02*
X123887300Y-123612700D01*
X106500000Y-121000000D02*
X109112700Y-123612700D01*
X189580000Y-71980000D02*
X188780000Y-71980000D01*
X150497600Y-84997600D02*
X146500000Y-81000000D01*
X165226500Y-84997600D02*
X150497600Y-84997600D01*
X166035400Y-85806500D02*
X165226500Y-84997600D01*
X171475900Y-85806500D02*
X166035400Y-85806500D01*
X172581300Y-84701100D02*
X171475900Y-85806500D01*
X172581300Y-81348800D02*
X172581300Y-84701100D01*
X177063800Y-76866300D02*
X172581300Y-81348800D01*
X183893700Y-76866300D02*
X177063800Y-76866300D01*
X188780000Y-71980000D02*
X183893700Y-76866300D01*
X125375000Y-119875000D02*
X126500000Y-121000000D01*
X125375000Y-102125000D02*
X125375000Y-119875000D01*
X126500000Y-101000000D02*
X125375000Y-102125000D01*
%TO.N,Net-(A1-GPIO19)*%
X189580000Y-110080000D02*
X188780000Y-110080000D01*
X191522000Y-112022000D02*
X189580000Y-110080000D01*
X191522000Y-115608500D02*
X191522000Y-112022000D01*
X190701900Y-116428600D02*
X191522000Y-115608500D01*
X188481800Y-116428600D02*
X190701900Y-116428600D01*
X187662800Y-117247600D02*
X188481800Y-116428600D01*
X187662800Y-118259000D02*
X187662800Y-117247600D01*
X179421800Y-126500000D02*
X187662800Y-118259000D01*
X177800000Y-126500000D02*
X179421800Y-126500000D01*
%TO.N,Net-(A1-GPIO11)*%
X171000000Y-107540000D02*
X170200000Y-107540000D01*
X145486200Y-122176200D02*
X142000000Y-118690000D01*
X146934800Y-122176200D02*
X145486200Y-122176200D01*
X147601700Y-121509300D02*
X146934800Y-122176200D01*
X147601700Y-118439200D02*
X147601700Y-121509300D01*
X152040800Y-114000100D02*
X147601700Y-118439200D01*
X160260100Y-114000100D02*
X152040800Y-114000100D01*
X162000000Y-115740000D02*
X160260100Y-114000100D01*
X162000000Y-118500000D02*
X162000000Y-115740000D01*
X162000000Y-115740000D02*
X170200000Y-107540000D01*
%TO.N,Net-(A1-GPIO10)*%
X168500000Y-105000000D02*
X170200000Y-105000000D01*
X162000000Y-98500000D02*
X168500000Y-105000000D01*
X171000000Y-105000000D02*
X170200000Y-105000000D01*
X157327200Y-93827200D02*
X162000000Y-98500000D01*
X156001900Y-93827200D02*
X157327200Y-93827200D01*
X153168100Y-90993400D02*
X156001900Y-93827200D01*
X153168100Y-89380900D02*
X153168100Y-90993400D01*
X152378000Y-88590800D02*
X153168100Y-89380900D01*
X150665100Y-88590800D02*
X152378000Y-88590800D01*
X142000000Y-97255900D02*
X150665100Y-88590800D01*
X142000000Y-98690000D02*
X142000000Y-97255900D01*
%TO.N,Net-(A1-GPIO9)*%
X171000000Y-99920000D02*
X170200000Y-99920000D01*
%TO.N,Net-(A1-GPIO5)*%
X171000000Y-87220000D02*
X170200000Y-87220000D01*
%TO.N,Net-(A1-GPIO4)*%
X171000000Y-84680000D02*
X170200000Y-84680000D01*
%TO.N,Net-(A1-GPIO3)*%
X171000000Y-82140000D02*
X170200000Y-82140000D01*
%TO.N,Net-(A1-GPIO2)*%
X171000000Y-79600000D02*
X170200000Y-79600000D01*
X150389400Y-78440600D02*
X150330000Y-78500000D01*
X159724600Y-78440600D02*
X150389400Y-78440600D01*
X164596800Y-83312800D02*
X159724600Y-78440600D01*
X171461600Y-83312800D02*
X164596800Y-83312800D01*
X172141700Y-82632700D02*
X171461600Y-83312800D01*
X172141700Y-80741700D02*
X172141700Y-82632700D01*
X171000000Y-79600000D02*
X172141700Y-80741700D01*
%TO.N,Net-(A1-GPIO1)*%
X171000000Y-74520000D02*
X170200000Y-74520000D01*
X130161200Y-118331200D02*
X130330000Y-118500000D01*
X130161200Y-106897700D02*
X130161200Y-118331200D01*
X130504100Y-106554800D02*
X130161200Y-106897700D01*
X130504100Y-98674100D02*
X130504100Y-106554800D01*
X130330000Y-98500000D02*
X130504100Y-98674100D01*
X166055800Y-74520000D02*
X170200000Y-74520000D01*
X160125100Y-68589300D02*
X166055800Y-74520000D01*
X150709900Y-68589300D02*
X160125100Y-68589300D01*
X145649700Y-73649500D02*
X150709900Y-68589300D01*
X135180500Y-73649500D02*
X145649700Y-73649500D01*
X130330000Y-78500000D02*
X135180500Y-73649500D01*
%TO.N,Net-(A1-GPIO0)*%
X171000000Y-71980000D02*
X170200000Y-71980000D01*
X166407600Y-68187600D02*
X170200000Y-71980000D01*
X143823800Y-68187600D02*
X166407600Y-68187600D01*
X140669000Y-71342400D02*
X143823800Y-68187600D01*
%TO.N,Net-(A1-GPIO15)*%
X171000000Y-120240000D02*
X170200000Y-120240000D01*
X115522700Y-110267300D02*
X116590000Y-109200000D01*
X115522700Y-113032600D02*
X115522700Y-110267300D01*
X116172300Y-113682200D02*
X115522700Y-113032600D01*
X120190400Y-113682200D02*
X116172300Y-113682200D01*
X123774100Y-117265900D02*
X120190400Y-113682200D01*
%TO.N,Net-(D10-DOUT)*%
X117471300Y-106718700D02*
X111690000Y-112500000D01*
X117471300Y-98233700D02*
X117471300Y-106718700D01*
X118638800Y-97066200D02*
X117471300Y-98233700D01*
X118638800Y-91248800D02*
X118638800Y-97066200D01*
X116590000Y-89200000D02*
X118638800Y-91248800D01*
%TO.N,Net-(D10-VDD)*%
X105337400Y-124837400D02*
X106500000Y-126000000D01*
X105337400Y-115552600D02*
X105337400Y-124837400D01*
X111690000Y-109200000D02*
X105337400Y-115552600D01*
%TO.N,/OLED_SDA*%
X189580000Y-117700000D02*
X188780000Y-117700000D01*
%TO.N,/OLED_SCL*%
X189580000Y-120240000D02*
X188780000Y-120240000D01*
X142020200Y-58840200D02*
X143225000Y-60045000D01*
X142020200Y-54071800D02*
X142020200Y-58840200D01*
X142328600Y-53763400D02*
X142020200Y-54071800D01*
X144124800Y-53763400D02*
X142328600Y-53763400D01*
X145063100Y-54701700D02*
X144124800Y-53763400D01*
X174666500Y-54701700D02*
X145063100Y-54701700D01*
X191928100Y-71963300D02*
X174666500Y-54701700D01*
X191928100Y-117891900D02*
X191928100Y-71963300D01*
X189580000Y-120240000D02*
X191928100Y-117891900D01*
%TO.N,+3.3V*%
X189580000Y-82140000D02*
X188780000Y-82140000D01*
%TO.N,Net-(A1-GPIO18)*%
X189580000Y-112620000D02*
X188780000Y-112620000D01*
%TO.N,Net-(D11-DOUT)*%
X114690700Y-71099300D02*
X116590000Y-69200000D01*
X114690700Y-76740000D02*
X114690700Y-71099300D01*
X116182900Y-78232200D02*
X114690700Y-76740000D01*
X116286800Y-78232200D02*
X116182900Y-78232200D01*
X116687200Y-78632600D02*
X116286800Y-78232200D01*
X116687200Y-82846400D02*
X116687200Y-78632600D01*
X113876900Y-85656700D02*
X116687200Y-82846400D01*
X113876900Y-90313100D02*
X113876900Y-85656700D01*
X111690000Y-92500000D02*
X113876900Y-90313100D01*
%TO.N,GND*%
X172146000Y-116306000D02*
X171000000Y-115160000D01*
X172146000Y-124554000D02*
X172146000Y-116306000D01*
X170200000Y-126500000D02*
X172146000Y-124554000D01*
X167265000Y-60765000D02*
X169000000Y-60765000D01*
X163000000Y-56500000D02*
X167265000Y-60765000D01*
X189580000Y-77060000D02*
X188780000Y-77060000D01*
X189580000Y-102460000D02*
X188780000Y-102460000D01*
X189580000Y-115160000D02*
X188780000Y-115160000D01*
X188780000Y-102460000D02*
X187662600Y-103577400D01*
X187662600Y-114042600D02*
X188780000Y-115160000D01*
X187662600Y-103577400D02*
X187662600Y-114042600D01*
X171000000Y-115160000D02*
X170200000Y-115160000D01*
X187662600Y-103577400D02*
X172117400Y-103577400D01*
X171000000Y-102460000D02*
X170200000Y-102460000D01*
X172117400Y-103577400D02*
X171000000Y-102460000D01*
X171000000Y-89760000D02*
X170200000Y-89760000D01*
X171000000Y-77060000D02*
X170200000Y-77060000D01*
X160500000Y-59000000D02*
X163000000Y-56500000D01*
X148500000Y-59000000D02*
X160500000Y-59000000D01*
X160860000Y-77060000D02*
X156450000Y-72650000D01*
X170200000Y-77060000D02*
X160860000Y-77060000D01*
X148500000Y-59000000D02*
X147260000Y-59000000D01*
X147260000Y-59000000D02*
X143225000Y-54965000D01*
X168764300Y-106369700D02*
X172117400Y-106369700D01*
X162484000Y-112650000D02*
X168764300Y-106369700D01*
X156450000Y-112650000D02*
X162484000Y-112650000D01*
X172117400Y-114042600D02*
X172117400Y-106369700D01*
X171000000Y-115160000D02*
X172117400Y-114042600D01*
X172117400Y-106369700D02*
X172117400Y-103577400D01*
X174907700Y-90932300D02*
X188780000Y-77060000D01*
X172172300Y-90932300D02*
X174907700Y-90932300D01*
X172172300Y-101287700D02*
X172172300Y-90932300D01*
X171000000Y-102460000D02*
X172172300Y-101287700D01*
X172172300Y-90932300D02*
X171000000Y-89760000D01*
X159340000Y-89760000D02*
X156450000Y-92650000D01*
X170200000Y-89760000D02*
X159340000Y-89760000D01*
X115537300Y-91447300D02*
X116590000Y-92500000D01*
X115537300Y-88642400D02*
X115537300Y-91447300D01*
X115772900Y-88406800D02*
X115537300Y-88642400D01*
X117421900Y-88406800D02*
X115772900Y-88406800D01*
X120660700Y-91645600D02*
X117421900Y-88406800D01*
X120660700Y-108429300D02*
X120660700Y-91645600D01*
X116590000Y-112500000D02*
X120660700Y-108429300D01*
X116590000Y-72500000D02*
X118636100Y-74546100D01*
X117421900Y-79970800D02*
X117421900Y-88406800D01*
X118636100Y-78756600D02*
X117421900Y-79970800D01*
X118636100Y-74546100D02*
X118636100Y-78756600D01*
X137776600Y-111463400D02*
X137776600Y-105189000D01*
X136590000Y-112650000D02*
X137776600Y-111463400D01*
X138638600Y-94698600D02*
X136590000Y-92650000D01*
X138638600Y-96931500D02*
X138638600Y-94698600D01*
X137776600Y-97793500D02*
X138638600Y-96931500D01*
X137776600Y-105189000D02*
X137776600Y-97793500D01*
X138643000Y-68869800D02*
X137557100Y-68869800D01*
X147260000Y-60252800D02*
X138643000Y-68869800D01*
X147260000Y-59000000D02*
X147260000Y-60252800D01*
X137241300Y-68554000D02*
X137557100Y-68869800D01*
X124628200Y-68554000D02*
X137241300Y-68554000D01*
X118636100Y-74546100D02*
X124628200Y-68554000D01*
X137557100Y-71542900D02*
X136450000Y-72650000D01*
X137557100Y-68869800D02*
X137557100Y-71542900D01*
X155650700Y-113449300D02*
X156450000Y-112650000D01*
X150670700Y-113449300D02*
X155650700Y-113449300D01*
X150483900Y-113262500D02*
X150670700Y-113449300D01*
X150483900Y-112141600D02*
X150483900Y-113262500D01*
X152602600Y-110022900D02*
X150483900Y-112141600D01*
X152602600Y-108827800D02*
X152602600Y-110022900D01*
X152140500Y-108365700D02*
X152602600Y-108827800D01*
X145649500Y-108365700D02*
X152140500Y-108365700D01*
X142472800Y-105189000D02*
X145649500Y-108365700D01*
X137776600Y-105189000D02*
X142472800Y-105189000D01*
%TO.N,Net-(D12-DOUT)*%
X133348200Y-109350000D02*
X132957400Y-109740800D01*
X136590000Y-109350000D02*
X133348200Y-109350000D01*
X111690000Y-74486300D02*
X111690000Y-72500000D01*
X116037600Y-78833900D02*
X111690000Y-74486300D01*
%TO.N,Net-(D12-VDD)*%
X107617400Y-73272600D02*
X111690000Y-69200000D01*
X107617400Y-84882600D02*
X107617400Y-73272600D01*
X106500000Y-86000000D02*
X107617400Y-84882600D01*
%TD*%
M02*
