%TF.GenerationSoftware,KiCad,Pcbnew,10.0.1*%
%TF.CreationDate,2026-05-09T19:58:26+05:30*%
%TF.ProjectId,ValkDeck,56616c6b-4465-4636-9b2e-6b696361645f,rev?*%
%TF.SameCoordinates,Original*%
%TF.FileFunction,Soldermask,Top*%
%TF.FilePolarity,Negative*%
%FSLAX46Y46*%
G04 Gerber Fmt 4.6, Leading zero omitted, Abs format (unit mm)*
G04 Created by KiCad (PCBNEW 10.0.1) date 2026-05-09 19:58:26*
%MOMM*%
%LPD*%
G01*
G04 APERTURE LIST*
G04 Aperture macros list*
%AMRoundRect*
0 Rectangle with rounded corners*
0 $1 Rounding radius*
0 $2 $3 $4 $5 $6 $7 $8 $9 X,Y pos of 4 corners*
0 Add a 4 corners polygon primitive as box body*
4,1,4,$2,$3,$4,$5,$6,$7,$8,$9,$2,$3,0*
0 Add four circle primitives for the rounded corners*
1,1,$1+$1,$2,$3*
1,1,$1+$1,$4,$5*
1,1,$1+$1,$6,$7*
1,1,$1+$1,$8,$9*
0 Add four rect primitives between the rounded corners*
20,1,$1+$1,$2,$3,$4,$5,0*
20,1,$1+$1,$4,$5,$6,$7,0*
20,1,$1+$1,$6,$7,$8,$9,0*
20,1,$1+$1,$8,$9,$2,$3,0*%
%AMFreePoly0*
4,1,37,0.800000,0.796148,0.878414,0.796148,1.032228,0.765552,1.177117,0.705537,1.307515,0.618408,1.418408,0.507515,1.505537,0.377117,1.565552,0.232228,1.596148,0.078414,1.596148,-0.078414,1.565552,-0.232228,1.505537,-0.377117,1.418408,-0.507515,1.307515,-0.618408,1.177117,-0.705537,1.032228,-0.765552,0.878414,-0.796148,0.800000,-0.796148,0.800000,-0.800000,-1.400000,-0.800000,
-1.403843,-0.796157,-1.439018,-0.796157,-1.511114,-0.766294,-1.566294,-0.711114,-1.596157,-0.639018,-1.596157,-0.603843,-1.600000,-0.600000,-1.600000,0.600000,-1.596157,0.603843,-1.596157,0.639018,-1.566294,0.711114,-1.511114,0.766294,-1.439018,0.796157,-1.403843,0.796157,-1.400000,0.800000,0.800000,0.800000,0.800000,0.796148,0.800000,0.796148,$1*%
%AMFreePoly1*
4,1,37,1.403843,0.796157,1.439018,0.796157,1.511114,0.766294,1.566294,0.711114,1.596157,0.639018,1.596157,0.603843,1.600000,0.600000,1.600000,-0.600000,1.596157,-0.603843,1.596157,-0.639018,1.566294,-0.711114,1.511114,-0.766294,1.439018,-0.796157,1.403843,-0.796157,1.400000,-0.800000,-0.800000,-0.800000,-0.800000,-0.796148,-0.878414,-0.796148,-1.032228,-0.765552,-1.177117,-0.705537,
-1.307515,-0.618408,-1.418408,-0.507515,-1.505537,-0.377117,-1.565552,-0.232228,-1.596148,-0.078414,-1.596148,0.078414,-1.565552,0.232228,-1.505537,0.377117,-1.418408,0.507515,-1.307515,0.618408,-1.177117,0.705537,-1.032228,0.765552,-0.878414,0.796148,-0.800000,0.796148,-0.800000,0.800000,1.400000,0.800000,1.403843,0.796157,1.403843,0.796157,$1*%
%AMFreePoly2*
4,1,37,0.603843,0.796157,0.639018,0.796157,0.711114,0.766294,0.766294,0.711114,0.796157,0.639018,0.796157,0.603843,0.800000,0.600000,0.800000,-0.600000,0.796157,-0.603843,0.796157,-0.639018,0.766294,-0.711114,0.711114,-0.766294,0.639018,-0.796157,0.603843,-0.796157,0.600000,-0.800000,0.000000,-0.800000,0.000000,-0.796148,-0.078414,-0.796148,-0.232228,-0.765552,-0.377117,-0.705537,
-0.507515,-0.618408,-0.618408,-0.507515,-0.705537,-0.377117,-0.765552,-0.232228,-0.796148,-0.078414,-0.796148,0.078414,-0.765552,0.232228,-0.705537,0.377117,-0.618408,0.507515,-0.507515,0.618408,-0.377117,0.705537,-0.232228,0.765552,-0.078414,0.796148,0.000000,0.796148,0.000000,0.800000,0.600000,0.800000,0.603843,0.796157,0.603843,0.796157,$1*%
%AMFreePoly3*
4,1,37,0.000000,0.796148,0.078414,0.796148,0.232228,0.765552,0.377117,0.705537,0.507515,0.618408,0.618408,0.507515,0.705537,0.377117,0.765552,0.232228,0.796148,0.078414,0.796148,-0.078414,0.765552,-0.232228,0.705537,-0.377117,0.618408,-0.507515,0.507515,-0.618408,0.377117,-0.705537,0.232228,-0.765552,0.078414,-0.796148,0.000000,-0.796148,0.000000,-0.800000,-0.600000,-0.800000,
-0.603843,-0.796157,-0.639018,-0.796157,-0.711114,-0.766294,-0.766294,-0.711114,-0.796157,-0.639018,-0.796157,-0.603843,-0.800000,-0.600000,-0.800000,0.600000,-0.796157,0.603843,-0.796157,0.639018,-0.766294,0.711114,-0.711114,0.766294,-0.639018,0.796157,-0.603843,0.796157,-0.600000,0.800000,0.000000,0.800000,0.000000,0.796148,0.000000,0.796148,$1*%
G04 Aperture macros list end*
%ADD10RoundRect,0.090000X-0.660000X-0.360000X0.660000X-0.360000X0.660000X0.360000X-0.660000X0.360000X0*%
%ADD11R,1.700000X1.700000*%
%ADD12C,1.700000*%
%ADD13RoundRect,0.170000X-0.680000X0.680000X-0.680000X-0.680000X0.680000X-0.680000X0.680000X0.680000X0*%
%ADD14C,2.200000*%
%ADD15C,1.850000*%
%ADD16FreePoly0,0.000000*%
%ADD17RoundRect,0.200000X-0.600000X-0.600000X0.600000X-0.600000X0.600000X0.600000X-0.600000X0.600000X0*%
%ADD18RoundRect,0.800000X-0.800000X-0.000010X0.800000X-0.000010X0.800000X0.000010X-0.800000X0.000010X0*%
%ADD19C,1.600000*%
%ADD20FreePoly1,0.000000*%
%ADD21FreePoly2,0.000000*%
%ADD22FreePoly3,0.000000*%
%ADD23R,2.000000X2.000000*%
%ADD24C,2.000000*%
%ADD25R,3.200000X2.000000*%
%ADD26RoundRect,0.250000X-0.550000X0.550000X-0.550000X-0.550000X0.550000X-0.550000X0.550000X0.550000X0*%
%ADD27C,1.750000*%
%ADD28C,3.987800*%
%ADD29C,3.300000*%
%ADD30RoundRect,0.250000X0.550000X-0.550000X0.550000X0.550000X-0.550000X0.550000X-0.550000X-0.550000X0*%
G04 APERTURE END LIST*
D10*
%TO.C,D12*%
X111690000Y-69200000D03*
X111690000Y-72500000D03*
X116590000Y-72500000D03*
X116590000Y-69200000D03*
%TD*%
D11*
%TO.C,J1*%
X169000000Y-58225000D03*
D12*
X169000000Y-60765000D03*
%TD*%
D13*
%TO.C,U1*%
X143225000Y-54965000D03*
D12*
X143225000Y-57505000D03*
X143225000Y-60045000D03*
X143225000Y-62585000D03*
%TD*%
D10*
%TO.C,D10*%
X111690000Y-109200000D03*
X111690000Y-112500000D03*
X116590000Y-112500000D03*
X116590000Y-109200000D03*
%TD*%
D14*
%TO.C,A1*%
X177165000Y-72110000D03*
D15*
X177465000Y-75140000D03*
X182315000Y-75140000D03*
D14*
X182615000Y-72110000D03*
D16*
X170200000Y-71980000D03*
D17*
X171000000Y-71980000D03*
D18*
X170200000Y-74520000D03*
D19*
X171000000Y-74520000D03*
D20*
X170200000Y-77060000D03*
D21*
X171000000Y-77060000D03*
D18*
X170200000Y-79600000D03*
D19*
X171000000Y-79600000D03*
D18*
X170200000Y-82140000D03*
D19*
X171000000Y-82140000D03*
D18*
X170200000Y-84680000D03*
D19*
X171000000Y-84680000D03*
D18*
X170200000Y-87220000D03*
D19*
X171000000Y-87220000D03*
D20*
X170200000Y-89760000D03*
D21*
X171000000Y-89760000D03*
D18*
X170200000Y-92300000D03*
D19*
X171000000Y-92300000D03*
D18*
X170200000Y-94840000D03*
D19*
X171000000Y-94840000D03*
D18*
X170200000Y-97380000D03*
D19*
X171000000Y-97380000D03*
D18*
X170200000Y-99920000D03*
D19*
X171000000Y-99920000D03*
D20*
X170200000Y-102460000D03*
D21*
X171000000Y-102460000D03*
D18*
X170200000Y-105000000D03*
D19*
X171000000Y-105000000D03*
D18*
X170200000Y-107540000D03*
D19*
X171000000Y-107540000D03*
D18*
X170200000Y-110080000D03*
D19*
X171000000Y-110080000D03*
D18*
X170200000Y-112620000D03*
D19*
X171000000Y-112620000D03*
D20*
X170200000Y-115160000D03*
D21*
X171000000Y-115160000D03*
D18*
X170200000Y-117700000D03*
D19*
X171000000Y-117700000D03*
D18*
X170200000Y-120240000D03*
D19*
X171000000Y-120240000D03*
X188780000Y-120240000D03*
D18*
X189580000Y-120240000D03*
D19*
X188780000Y-117700000D03*
D18*
X189580000Y-117700000D03*
D22*
X188780000Y-115160000D03*
D16*
X189580000Y-115160000D03*
D19*
X188780000Y-112620000D03*
D18*
X189580000Y-112620000D03*
D19*
X188780000Y-110080000D03*
D18*
X189580000Y-110080000D03*
D19*
X188780000Y-107540000D03*
D18*
X189580000Y-107540000D03*
D19*
X188780000Y-105000000D03*
D18*
X189580000Y-105000000D03*
D22*
X188780000Y-102460000D03*
D16*
X189580000Y-102460000D03*
D19*
X188780000Y-99920000D03*
D18*
X189580000Y-99920000D03*
D19*
X188780000Y-97380000D03*
D18*
X189580000Y-97380000D03*
D19*
X188780000Y-94840000D03*
D18*
X189580000Y-94840000D03*
D19*
X188780000Y-92300000D03*
D18*
X189580000Y-92300000D03*
D22*
X188780000Y-89760000D03*
D16*
X189580000Y-89760000D03*
D19*
X188780000Y-87220000D03*
D18*
X189580000Y-87220000D03*
D19*
X188780000Y-84680000D03*
D18*
X189580000Y-84680000D03*
D19*
X188780000Y-82140000D03*
D18*
X189580000Y-82140000D03*
D19*
X188780000Y-79600000D03*
D18*
X189580000Y-79600000D03*
D22*
X188780000Y-77060000D03*
D16*
X189580000Y-77060000D03*
D19*
X188780000Y-74520000D03*
D18*
X189580000Y-74520000D03*
D19*
X188780000Y-71980000D03*
D18*
X189580000Y-71980000D03*
%TD*%
D10*
%TO.C,D11*%
X111690000Y-89200000D03*
X111690000Y-92500000D03*
X116590000Y-92500000D03*
X116590000Y-89200000D03*
%TD*%
D23*
%TO.C,SW1*%
X148500000Y-56500000D03*
D24*
X148500000Y-61500000D03*
X148500000Y-59000000D03*
D25*
X156000000Y-53400000D03*
X156000000Y-64600000D03*
D24*
X163000000Y-61500000D03*
X163000000Y-56500000D03*
%TD*%
D10*
%TO.C,D18*%
X151550000Y-69350000D03*
X151550000Y-72650000D03*
X156450000Y-72650000D03*
X156450000Y-69350000D03*
%TD*%
%TO.C,D14*%
X131690000Y-89350000D03*
X131690000Y-92650000D03*
X136590000Y-92650000D03*
X136590000Y-89350000D03*
%TD*%
%TO.C,D16*%
X151550000Y-89350000D03*
X151550000Y-92650000D03*
X156450000Y-92650000D03*
X156450000Y-89350000D03*
%TD*%
%TO.C,D13*%
X131690000Y-109350000D03*
X131690000Y-112650000D03*
X136590000Y-112650000D03*
X136590000Y-109350000D03*
%TD*%
%TO.C,D17*%
X151550000Y-109350000D03*
X151550000Y-112650000D03*
X156450000Y-112650000D03*
X156450000Y-109350000D03*
%TD*%
%TO.C,D15*%
X131550000Y-69350000D03*
X131550000Y-72650000D03*
X136450000Y-72650000D03*
X136450000Y-69350000D03*
%TD*%
D26*
%TO.C,D6*%
X162000000Y-98500000D03*
D19*
X162000000Y-106120000D03*
%TD*%
%TO.C,C10*%
X146500000Y-81000000D03*
X146500000Y-86000000D03*
%TD*%
%TO.C,C5*%
X126500000Y-121000000D03*
X126500000Y-126000000D03*
%TD*%
D27*
%TO.C,a8*%
X119220000Y-81040000D03*
D28*
X114140000Y-81040000D03*
D27*
X109060000Y-81040000D03*
D29*
X110330000Y-78500000D03*
X116680000Y-75960000D03*
%TD*%
D27*
%TO.C,a7*%
X119220000Y-121040000D03*
D28*
X114140000Y-121040000D03*
D27*
X109060000Y-121040000D03*
D29*
X110330000Y-118500000D03*
X116680000Y-115960000D03*
%TD*%
D19*
%TO.C,C4*%
X106500000Y-81000000D03*
X106500000Y-86000000D03*
%TD*%
%TO.C,C7*%
X126500000Y-81000000D03*
X126500000Y-86000000D03*
%TD*%
D27*
%TO.C,a6*%
X119220000Y-101040000D03*
D28*
X114140000Y-101040000D03*
D27*
X109060000Y-101040000D03*
D29*
X110330000Y-98500000D03*
X116680000Y-95960000D03*
%TD*%
D26*
%TO.C,D2*%
X142000000Y-78690000D03*
D19*
X142000000Y-86310000D03*
%TD*%
%TO.C,C3*%
X106500000Y-101000000D03*
X106500000Y-106000000D03*
%TD*%
D26*
%TO.C,D9*%
X162000000Y-118500000D03*
D19*
X162000000Y-126120000D03*
%TD*%
D26*
%TO.C,D3*%
X162000000Y-78500000D03*
D19*
X162000000Y-86120000D03*
%TD*%
D23*
%TO.C,BZ1*%
X177800000Y-126500000D03*
D24*
X170200000Y-126500000D03*
%TD*%
D19*
%TO.C,C2*%
X106500000Y-121000000D03*
X106500000Y-126000000D03*
%TD*%
%TO.C,C6*%
X126500000Y-101000000D03*
X126500000Y-106000000D03*
%TD*%
D27*
%TO.C,a2*%
X139220000Y-121040000D03*
D28*
X134140000Y-121040000D03*
D27*
X129060000Y-121040000D03*
D29*
X130330000Y-118500000D03*
X136680000Y-115960000D03*
%TD*%
D26*
%TO.C,D8*%
X142000000Y-118690000D03*
D19*
X142000000Y-126310000D03*
%TD*%
D27*
%TO.C,a4*%
X159220000Y-101040000D03*
D28*
X154140000Y-101040000D03*
D27*
X149060000Y-101040000D03*
D29*
X150330000Y-98500000D03*
X156680000Y-95960000D03*
%TD*%
D27*
%TO.C,a3*%
X139220000Y-101040000D03*
D28*
X134140000Y-101040000D03*
D27*
X129060000Y-101040000D03*
D29*
X130330000Y-98500000D03*
X136680000Y-95960000D03*
%TD*%
D26*
%TO.C,D4*%
X122000000Y-98380000D03*
D19*
X122000000Y-106000000D03*
%TD*%
D27*
%TO.C,a10*%
X159220000Y-81040000D03*
D28*
X154140000Y-81040000D03*
D27*
X149060000Y-81040000D03*
D29*
X150330000Y-78500000D03*
X156680000Y-75960000D03*
%TD*%
D26*
%TO.C,D7*%
X122000000Y-118380000D03*
D19*
X122000000Y-126000000D03*
%TD*%
D30*
%TO.C,D1*%
X122000000Y-86000000D03*
D19*
X122000000Y-78380000D03*
%TD*%
%TO.C,C9*%
X146500000Y-126000000D03*
X146500000Y-121000000D03*
%TD*%
%TO.C,C8*%
X146000000Y-101000000D03*
X146000000Y-106000000D03*
%TD*%
D26*
%TO.C,D5*%
X142000000Y-98690000D03*
D19*
X142000000Y-106310000D03*
%TD*%
D27*
%TO.C,a5*%
X159220000Y-121040000D03*
D28*
X154140000Y-121040000D03*
D27*
X149060000Y-121040000D03*
D29*
X150330000Y-118500000D03*
X156680000Y-115960000D03*
%TD*%
D27*
%TO.C,a9*%
X139220000Y-81040000D03*
D28*
X134140000Y-81040000D03*
D27*
X129060000Y-81040000D03*
D29*
X130330000Y-78500000D03*
X136680000Y-75960000D03*
%TD*%
M02*
